<svg xmlns="http://www.w3.org/2000/svg" width="43" height="45" viewBox="0 0 43 45">
    <g fill="none" fill-rule="evenodd" stroke="#0EBAC5">
        <path stroke-width="1.5" d="M32 23.875v1.875c0 3.438-2.813 6.25-6.25 6.25-3.438 0-6.25-2.813-6.25-6.25v-7.5c0-3.438-2.813-6.25-6.25-6.25C9.812 12 7 14.813 7 18.25v6.213"/>
        <path d="M6.95 25.94v2.424"/>
        <path stroke-width="1.5" d="M1 30.667h11.9M1 37.455c0 3.333 2.678 6.06 5.95 6.06 3.273 0 5.95-2.727 5.95-6.06v-10.91c0-1.333-1.07-2.424-2.38-2.424H3.38c-1.309 0-2.38 1.091-2.38 2.424v10.91z"/>
        <circle cx="31.5" cy="11.5" r="10.5" stroke-width="1.5"/>
        <path fill="#0EBAC5" fill-rule="nonzero" stroke-width=".2" d="M37.084 11.653h-1.632a3.929 3.929 0 0 0-.748-1.92l1.292-1.028c.136-.068.136-.205.136-.343 0-.137-.136-.274-.272-.274s-.272 0-.408.069l-1.36 1.097c-.068-.069-.204-.137-.272-.206A2.134 2.134 0 0 0 32.8 6.58l.476-.96a.536.536 0 0 0-.136-.549c-.136-.137-.408-.068-.544.137l-.544.96a1.15 1.15 0 0 0-.68 0l-.544-.96c-.136-.137-.34-.205-.476-.137-.204.069-.272.343-.136.48l.476.823a2.134 2.134 0 0 0-1.02 2.468c-.068.069-.204.137-.272.206l-1.36-1.097a.358.358 0 0 0-.544.069c-.136.205-.136.411.068.548l1.292 1.029a3.929 3.929 0 0 0-.748 1.92h-1.7c-.204 0-.408.205-.408.41 0 .206.204.412.408.412h1.632c.068.686.34 1.371.748 1.92l-1.292 1.028c-.136.137-.204.412-.068.549.136.137.408.206.544.068l1.36-1.097c.68.549 1.496.892 2.312.892h.068c.884 0 1.768-.343 2.448-.892l1.36 1.097a.358.358 0 0 0 .544-.068c.136-.206.136-.412-.068-.549l-1.292-1.028c.408-.549.68-1.234.748-1.92h1.632c.204 0 .408-.206.408-.411 0-.069-.204-.275-.408-.275zm-6.8-3.085a1.396 1.396 0 0 1 .68-1.371 1.463 1.463 0 0 1 1.496 0c.476.274.68.823.68 1.371-.136-.068-.204-.068-.34-.137-.136 0-.204-.069-.34-.069-.136 0-.204-.068-.34-.068h-.68c-.136 0-.204 0-.34.068-.136 0-.204.069-.34.069-.204.069-.34.069-.476.137zm1.768 6.514v-4.32c0-.206-.204-.411-.408-.411s-.408.205-.408.411v4.32c-1.292-.206-2.244-1.166-2.448-2.469-.204-1.302.408-2.536 1.496-3.154h.068c.068 0 .136-.068.204-.068l.068-.069.136-.068a3.449 3.449 0 0 1 2.04 0l.136.068.068.069c.068 0 .136.068.204.068h.068a2.953 2.953 0 0 1 1.496 3.223c-.408 1.303-1.428 2.263-2.72 2.4z"/>
    </g>
</svg>
