<svg xmlns="http://www.w3.org/2000/svg" width="31" height="24" viewBox="0 0 31 24">
    <g fill="none" fill-rule="evenodd">
        <rect width="30.545" height="24" fill="#0EBAC5" rx="12"/>
        <path fill="#FFF" fill-rule="nonzero" d="M16.469 12.484l-.192.465 7.542.102-1.132.984-6.964-.008c-.12.204-.29.352-.517.548a3.714 3.714 0 0 1-5.29-.37c-1.378-1.584-1.158-3.961.37-5.29 1.528-1.328 3.913-1.215 5.29.37.295.34.534.728.667 1.11l1.375.096.985 1.132 1.132-.984.984 1.132 1.132-.984 1.058.074 1.476 1.698-7.916-.075zm-5.371-1.492c-.397.344-.384.93-.09 1.27.296.34.93.384 1.27.088.34-.295.385-.93.09-1.27-.296-.339-.874-.432-1.27-.088z"/>
    </g>
</svg>
