<svg xmlns="http://www.w3.org/2000/svg" width="68" height="18" viewBox="0 0 68 18">
    <g fill="#8C8C9B" fill-rule="nonzero">
        <path d="M62.17 12.808h2.907c-.07-1.108-.554-1.662-1.454-1.662-.623 0-1.246.346-1.454 1.662zm1.592 4.915c-2.216 0-3.739-1.315-3.739-3.946v-.139c0-2.561 1.592-4.015 3.67-4.015 1.938 0 3.53 1.108 3.53 3.67v.9H62.17c.07 1.384.693 1.938 1.593 1.938.83 0 1.246-.416 1.453-1.039h2.008c-.277 1.523-1.454 2.631-3.461 2.631zm-9-7.892h2.146v1.454c.484-1.039 1.177-1.523 2.354-1.523v2.146c-1.454 0-2.354.415-2.354 1.73v4.016h-2.146V9.83zm-1.524 7.754h-2.146v-1.108c-.346.761-1.107 1.315-2.284 1.315-1.385 0-2.423-.83-2.423-2.7V9.831h2.146v4.915c0 .9.346 1.316 1.107 1.316.762 0 1.385-.485 1.385-1.454V9.83h2.146v7.754h.07zM43.615 7.477V9.83h1.454v1.592h-1.454v3.67c0 .553.277.83.762.83.277 0 .554-.07.761-.138v1.661c-.276.07-.692.139-1.246.139-1.661 0-2.492-.762-2.492-2.354v-3.877h-.9V9.762h.9V8.308l2.215-.831zM32.677 9.83h2.146v1.177c.415-.762 1.177-1.316 2.354-1.316 1.385 0 2.354.831 2.354 2.7v5.193h-2.146v-4.847c0-.9-.347-1.315-1.177-1.315-.762 0-1.385.485-1.385 1.454v4.708h-2.146V9.83zm-6.3 2.977h2.908c-.07-1.108-.554-1.662-1.454-1.662-.693 0-1.316.346-1.454 1.662zm1.523 4.915c-2.215 0-3.738-1.315-3.738-3.946v-.139c0-2.561 1.592-4.015 3.669-4.015 1.938 0 3.53 1.108 3.53 3.67v.9h-5.053c.069 1.384.692 1.938 1.592 1.938.83 0 1.246-.416 1.454-1.039h2.008c-.277 1.523-1.454 2.631-3.462 2.631zm-8.17 0c-2.145 0-3.738-1.315-3.738-3.946v-.07c0-2.63 1.662-4.015 3.739-4.015 1.73 0 3.184.9 3.392 2.908h-2.077c-.138-.762-.484-1.246-1.246-1.246-.9 0-1.523.761-1.523 2.284v.208c0 1.592.554 2.285 1.592 2.285.762 0 1.316-.554 1.385-1.385h1.938c-.138 1.73-1.315 2.977-3.461 2.977zm-8.03 0c-2.146 0-3.738-1.315-3.738-3.946v-.07c0-2.63 1.661-4.015 3.738-4.015 1.73 0 3.185.9 3.392 2.908h-2.077c-.138-.762-.484-1.246-1.246-1.246-.9 0-1.523.761-1.523 2.284v.208c0 1.592.554 2.285 1.592 2.285.762 0 1.316-.554 1.385-1.385h1.939c-.139 1.73-1.385 2.977-3.462 2.977zm-7.062-2.77v-.76h-.9c-1.038 0-1.592.276-1.592.969v.069c0 .554.346.9 1.039.9.761.069 1.453-.346 1.453-1.177zm-2.076 2.77C1.177 17.723 0 17.031 0 15.438v-.069c0-1.938 1.662-2.561 3.67-2.561h.968v-.346c0-.762-.346-1.247-1.107-1.247-.693 0-1.108.416-1.177 1.039H.277C.415 10.524 1.8 9.692 3.6 9.692c1.87 0 3.185.831 3.185 2.7v5.193H4.638v-.9c-.346.553-1.038 1.038-2.076 1.038zM39.185 4.985l3.877-1.454-3.877-1.523V0l6.577 2.7v1.662l-6.577 2.63z"/>
    </g>
</svg>
