<svg xmlns="http://www.w3.org/2000/svg" width="60" height="18" viewBox="0 0 60 18">
    <g fill="#3E3E58" fill-rule="evenodd" opacity=".601">
        <path d="M36.954 14.038c-3.462 2.551-8.48 3.912-12.799 3.912-6.057 0-11.51-2.24-15.635-5.966-.324-.293-.034-.692.355-.464 4.452 2.59 9.957 4.149 15.643 4.149 3.835 0 8.054-.794 11.933-2.44.586-.25 1.076.384.503.809"/>
        <path d="M38.393 12.391c-.441-.565-2.925-.267-4.04-.134-.34.041-.392-.255-.086-.467 1.979-1.393 5.225-.99 5.604-.524.378.47-.099 3.723-1.958 5.277-.285.238-.557.111-.43-.205.417-1.043 1.353-3.379.91-3.947M34.43 1.96V.607c0-.205.156-.343.343-.343h6.06c.194 0 .35.14.35.343v1.159c-.003.194-.166.448-.457.85L37.586 7.1c1.167-.028 2.399.145 3.457.742.238.135.303.332.321.526v1.444c0 .197-.218.428-.446.309-1.864-.978-4.34-1.084-6.402.01-.21.114-.43-.114-.43-.31V8.447c0-.22.003-.597.223-.931L37.947 2.3H34.78c-.195 0-.35-.138-.35-.34M12.327 10.405h-1.844a.348.348 0 0 1-.33-.314V.631c0-.19.159-.34.356-.34h1.719a.347.347 0 0 1 .334.316v1.237h.034C13.045.648 13.887.09 15.023.09c1.154 0 1.875.557 2.393 1.753C17.862.648 18.876.09 19.963.09c.772 0 1.617.319 2.133 1.034.584.796.465 1.953.465 2.967l-.003 5.97c0 .19-.158.343-.355.343h-1.841a.35.35 0 0 1-.332-.342V5.048c0-.399.036-1.395-.052-1.773-.137-.635-.55-.814-1.084-.814-.446 0-.912.298-1.102.775-.189.477-.17 1.276-.17 1.812v5.015c0 .19-.159.342-.356.342h-1.841a.349.349 0 0 1-.332-.342l-.002-5.015c0-1.055.173-2.608-1.136-2.608-1.325 0-1.273 1.514-1.273 2.608v5.015c0 .19-.158.342-.355.342M46.4.09c2.735 0 4.216 2.35 4.216 5.337 0 2.886-1.637 5.175-4.217 5.175-2.686 0-4.148-2.349-4.148-5.276C42.25 2.38 43.73.09 46.399.09m.016 1.931c-1.359 0-1.444 1.852-1.444 3.006 0 1.156-.018 3.624 1.428 3.624 1.43 0 1.497-1.99 1.497-3.204 0-.799-.034-1.753-.275-2.51-.208-.659-.62-.916-1.206-.916M54.163 10.405h-1.836a.35.35 0 0 1-.332-.342L51.992.599a.349.349 0 0 1 .356-.309h1.708c.161.008.293.117.33.265v1.447h.033C54.935.708 55.66.09 56.932.09c.827 0 1.633.298 2.152 1.115.482.757.482 2.03.482 2.945v5.956a.354.354 0 0 1-.355.298h-1.849a.35.35 0 0 1-.327-.298v-5.14c0-1.034.12-2.548-1.153-2.548-.449 0-.861.3-1.066.757-.26.578-.293 1.154-.293 1.792v5.095a.354.354 0 0 1-.36.342M29.6 5.886c0 .718.018 1.317-.345 1.955-.293.518-.76.837-1.275.837-.708 0-1.123-.539-1.123-1.335 0-1.571 1.408-1.856 2.743-1.856v.399m1.86 4.493a.385.385 0 0 1-.436.044c-.612-.508-.724-.744-1.058-1.229-1.011 1.032-1.73 1.34-3.039 1.34-1.553 0-2.759-.956-2.759-2.872 0-1.496.81-2.515 1.966-3.013 1-.44 2.398-.519 3.466-.64V3.77c0-.438.034-.957-.225-1.335-.223-.34-.654-.48-1.035-.48-.703 0-1.327.36-1.48 1.107-.032.166-.153.33-.322.337l-1.786-.192c-.15-.033-.32-.155-.275-.386C24.887.653 26.847 0 28.599 0c.898 0 2.07.239 2.777.918.898.837.812 1.955.812 3.171v2.873c0 .863.358 1.242.695 1.709.117.166.142.365-.008.49a78.23 78.23 0 0 0-1.413 1.223l-.003-.005M5.432 5.886c0 .718.018 1.317-.345 1.955-.293.518-.757.837-1.275.837-.708 0-1.12-.539-1.12-1.335 0-1.571 1.407-1.856 2.74-1.856v.399m1.86 4.493a.385.385 0 0 1-.436.044c-.612-.508-.721-.744-1.058-1.229-1.012 1.032-1.727 1.34-3.04 1.34C1.209 10.535 0 9.579 0 7.663c0-1.496.812-2.515 1.965-3.013 1.001-.44 2.399-.519 3.467-.64V3.77c0-.438.034-.957-.223-1.335-.225-.34-.656-.48-1.034-.48-.703 0-1.33.36-1.484 1.107-.03.166-.153.33-.319.337L.583 3.207c-.15-.033-.316-.155-.274-.386C.72.653 2.679 0 4.43 0c.897 0 2.07.239 2.777.918.897.837.812 1.955.812 3.171v2.873c0 .863.358 1.242.695 1.709.119.166.145.365-.006.49-.376.313-1.044.897-1.413 1.223l-.005-.005"/>
    </g>
</svg>
