<svg xmlns="http://www.w3.org/2000/svg" width="16" height="18" viewBox="0 0 16 18">
    <g fill="#B5B8BD" fill-rule="nonzero">
        <path d="M1.138 5.86h-.047C.491 5.86 0 6.342 0 6.93v4.654c0 .59.49 1.07 1.091 1.07h.048c.601 0 1.092-.481 1.092-1.07V6.93c-.001-.588-.492-1.07-1.093-1.07zM2.872 13.21c0 .541.45.981 1.003.981h1.072v2.515c0 .59.492 1.07 1.091 1.07h.047c.602 0 1.093-.48 1.093-1.07V14.19h1.498v2.515c0 .59.494 1.07 1.093 1.07h.046c.602 0 1.093-.48 1.093-1.07V14.19h1.072a.994.994 0 0 0 1.003-.98V5.86H2.872v7.35zM10.48 1.562l.85-1.288a.175.175 0 0 0-.053-.245.182.182 0 0 0-.25.052l-.882 1.332A5.86 5.86 0 0 0 7.962.998c-.782 0-1.52.15-2.184.415L4.897.081A.183.183 0 0 0 4.645.03a.175.175 0 0 0-.053.245l.852 1.288c-1.536.737-2.572 2.127-2.572 3.722 0 .098.006.194.015.29h10.15a3.24 3.24 0 0 0 .014-.29c0-1.595-1.036-2.985-2.572-3.722zM5.607 3.867a.483.483 0 0 1-.488-.478c0-.265.219-.477.488-.477.272 0 .489.212.489.477a.483.483 0 0 1-.489.478zm4.706 0a.483.483 0 0 1-.488-.478c0-.265.218-.477.488-.477s.488.212.488.477a.482.482 0 0 1-.488.478zM14.677 5.86h-.046c-.6 0-1.093.482-1.093 1.07v4.654c0 .59.493 1.07 1.093 1.07h.047c.602 0 1.091-.481 1.091-1.07V6.93c0-.588-.49-1.07-1.092-1.07z"/>
    </g>
</svg>
