<svg xmlns="http://www.w3.org/2000/svg" width="14" height="18" viewBox="0 0 14 18">
    <path fill="#B5B8BD" fill-rule="nonzero" d="M9.566 2.71c.671-.718 1.125-1.715 1-2.71C9.6.035 8.429.568 7.735 1.286c-.622.636-1.166 1.652-1.021 2.627 1.079.073 2.18-.485 2.853-1.203zm2.059 6.87c-.02-2.23 1.765-3.301 1.844-3.353-1.004-1.514-2.568-1.722-3.124-1.745-1.332-.14-2.597.806-3.273.806-.673 0-1.715-.788-2.819-.766-1.452.023-2.79.869-3.535 2.209C-.79 9.426.33 13.419 1.8 15.606c.718 1.07 1.574 2.27 2.697 2.227 1.084-.043 1.493-.72 2.801-.72 1.31 0 1.676.72 2.82.699 1.166-.022 1.903-1.091 2.615-2.165.824-1.241 1.164-2.443 1.184-2.504-.025-.014-2.27-.897-2.293-3.564z"/>
</svg>
