<svg xmlns="http://www.w3.org/2000/svg" width="15" height="12" viewBox="0 0 15 12">
    <path fill="#B5B8BD" fill-rule="nonzero" d="M13.15.023H1.832C.822.023 0 .845 0 1.855V9.59c0 1.01.821 1.832 1.832 1.832h11.315c1.01 0 1.831-.821 1.831-1.832V1.858A1.831 1.831 0 0 0 13.15.023zm.995 9.567a.996.996 0 0 1-.995.995H1.832a.996.996 0 0 1-.995-.995V1.858c0-.549.446-.995.995-.995h11.315c.548 0 .995.446.995.995V9.59h.003zM9.446 5.627L13.11 2.34a.42.42 0 0 0 .03-.592.42.42 0 0 0-.591-.03L7.497 6.252l-.986-.88c-.003-.004-.006-.007-.006-.01a.62.62 0 0 0-.068-.059l-4.01-3.589a.418.418 0 0 0-.592.034.418.418 0 0 0 .034.592l3.706 3.313-3.69 3.456a.42.42 0 0 0 .573.614l3.747-3.506 1.016.909a.418.418 0 0 0 .558-.004l1.044-.936 3.726 3.54a.418.418 0 0 0 .576-.607L9.446 5.626z"/>
</svg>
