<svg xmlns="http://www.w3.org/2000/svg" width="69" height="100" viewBox="0 0 69 100">
    <g fill="none" fill-rule="nonzero">
        <path fill="#50412E" d="M34.5 2.857c-4.057 0-7.936.76-11.5 2.144C11.22 9.573 2.875 20.96 2.875 34.286v11.428h63.25V34.286c0-17.358-14.16-31.429-31.625-31.429z"/>
        <path fill="#FF5023" d="M40.538 71.429H28.462c-10.955 0-19.837 8.826-19.837 19.714V100h51.75v-8.857c0-10.888-8.882-19.714-19.837-19.714z"/>
        <path fill="#D80027" d="M34.5 71.429h-6.038c-10.955 0-19.837 8.826-19.837 19.714V100H34.5V71.429z"/>
        <path fill="#A2001D" d="M31.625 71.429h5.75v20h-5.75z"/>
        <path fill="#FFE98F" d="M43.125 71.429c0 4.733-3.862 8.571-8.625 8.571s-8.625-3.838-8.625-8.571v-8.572c0-4.734 3.862-8.571 8.625-8.571s8.625 3.837 8.625 8.571v8.572z"/>
        <path fill="#000" d="M23 45.714V5.001a31.717 31.717 0 0 1 11.5-2.144c17.466 0 31.625 14.071 31.625 31.429v11.428H23z"/>
        <ellipse cx="28.75" cy="30" fill="#FFE98F" rx="28.75" ry="30" transform="translate(5.75 11.429)"/>
        <path fill="#E8667D" d="M34.5 61.674a13.974 13.974 0 0 1-12.126-7.037.712.712 0 0 1 .272-.973.722.722 0 0 1 .98.27A12.533 12.533 0 0 0 34.5 60.245c4.491 0 8.658-2.418 10.874-6.311a.722.722 0 0 1 .98-.27c.345.194.467.63.271.973A13.972 13.972 0 0 1 34.5 61.674z"/>
        <ellipse cx="4.313" cy="2.857" fill="#FFC170" rx="4.313" ry="2.857" transform="translate(20.125 45.714)"/>
        <ellipse cx="4.313" cy="2.857" fill="#FFC170" rx="4.313" ry="2.857" transform="translate(40.25 45.714)"/>
        <path fill="#50412E" d="M41.688 42.857A2.866 2.866 0 0 1 44.562 40a2.866 2.866 0 0 1 2.876 2.857M27.313 42.857A2.866 2.866 0 0 0 24.438 40a2.866 2.866 0 0 0-2.875 2.857"/>
        <path fill="#FFC170" d="M34.5 68a49.717 49.717 0 0 1-18.388-3.513c4.984 4.334 11.393 6.942 18.388 6.942 6.995 0 13.404-2.608 18.388-6.942A49.717 49.717 0 0 1 34.5 68z"/>
        <ellipse cx="5.75" cy="5.714" fill="#FFE98F" rx="5.75" ry="5.714" transform="translate(0 40)"/>
        <ellipse cx="5.75" cy="5.714" fill="#FFE98F" rx="5.75" ry="5.714" transform="translate(57.5 40)"/>
        <g fill="#000">
            <path d="M23 14.286c3.97 0 7.188-3.198 7.188-7.143S26.97 0 23 0v14.286z"/>
        </g>
        <g fill="#50412E">
            <path d="M5.75 40S23 34.286 23 17.143l2.875-2.857L23 11.429S11.345 18.803 8.625 22.857C2.875 31.43 5.75 40 5.75 40z"/>
        </g>
        <g fill="#000">
            <path d="M63.25 40S28.75 37.143 23 17.143V8.57l20.556-.714 16.532 9.714 4.6 11.715L63.25 40z"/>
        </g>
    </g>
</svg>
