<svg xmlns="http://www.w3.org/2000/svg" xmlns:xlink="http://www.w3.org/1999/xlink" width="16" height="16" viewBox="0 0 16 16">
    <defs>
        <radialGradient id="b" cy="0%" r="100%" fx="50%" fy="0%">
            <stop offset="0%" stop-color="#B3B3B3"/>
            <stop offset="36.06%" stop-color="#757575"/>
            <stop offset="77.288%" stop-color="#2F2F2F"/>
            <stop offset="100%" stop-color="#090F21"/>
        </radialGradient>
        <circle id="a" cx="8" cy="8" r="8"/>
        <radialGradient id="c" cy="0%" r="100%" fx="50%" fy="0%">
            <stop offset="0%" stop-color="#F7F8F8"/>
            <stop offset="100%" stop-color="#575757"/>
        </radialGradient>
        <radialGradient id="e" cx="84.6%" cy="60.126%" r="163.458%" fx="84.6%" fy="60.126%" gradientTransform="scale(-1 -.52586) rotate(-1.755 -56.962 54.972)">
            <stop offset="0%" stop-color="#F7F8F8"/>
            <stop offset="100%" stop-color="#6B6B6B"/>
        </radialGradient>
        <radialGradient id="f" cx="23.391%" r="163.417%" fx="23.391%" fy="50%" gradientTransform="scale(1 .78) rotate(-1.183 7.063 .57)">
            <stop offset="0%" stop-color="#F7F8F8"/>
            <stop offset="100%" stop-color="#A5A5A5"/>
        </radialGradient>
        <radialGradient id="g" cx="23.391%" r="163.508%" fx="23.391%" fy="50%" gradientTransform="scale(1 .4094) rotate(-2.253 18.571 .86)">
            <stop offset="0%" stop-color="#F7F8F8"/>
            <stop offset="100%" stop-color="#494949"/>
        </radialGradient>
    </defs>
    <g fill="none" fill-rule="evenodd">
        <mask id="d" fill="#fff">
            <use xlink:href="#a"/>
        </mask>
        <use fill="url(#b)" fill-rule="nonzero" xlink:href="#a"/>
        <path fill="url(#c)" fill-rule="nonzero" d="M2.819 11.886h.457v.457H2.82v-.457zm0 .838h.457v.457H2.82v-.457zm.838 0h.457v.457h-.457v-.457zm0-.838h.457v.457h-.457v-.457zm.838.838h.457v.457h-.457v-.457zm.838 0h.457v.457h-.457v-.457zm.838 0h.458v.457H6.17v-.457zm-2.514.838h.457v.457h-.457v-.457zm.838 0h.457v.457h-.457v-.457zm.838 0h.457v.457h-.457v-.457zm.838 0h.458v.457H6.17v-.457zm-1.676.838h.457v.457h-.457V14.4zm.838 0h.457v.457h-.457V14.4zm0 .838h.457v.457h-.457v-.457zm.838-.838h.458v.457H6.17V14.4z" mask="url(#d)"/>
        <path fill="url(#e)" fill-rule="nonzero" d="M3.543 1.257H4v.457h-.457v-.457zM1.029 6.286h.457v.457h-.457v-.457zm-.839 0h.458v.457H.19v-.457zm1.677 0h.457v.457h-.457v-.457zm.838 0h.457v.457h-.457v-.457zm-1.676.838h.457v.457h-.457v-.457zm-.839 0h.458v.457H.19v-.457zm1.677 0h.457v.457h-.457v-.457zm.838 0h.457v.457h-.457v-.457zm-1.676.838h.457v.457h-.457v-.457zm0 .838h.457v.457h-.457V8.8zm-.839 0h.458v.457H.19V8.8zm.839.838h.457v.457h-.457v-.457zM.19 7.962h.458v.457H.19v-.457zm1.677 0h.457v.457h-.457v-.457zm.838 0h.457v.457h-.457v-.457zm.838-1.676H4v.457h-.457v-.457zm.838 0h.457v.457h-.457v-.457zm-3.352-.838h.457v.457h-.457v-.457zm.838 0h.457v.457h-.457v-.457zm.838 0h.457v.457h-.457v-.457zm.838 0H4v.457h-.457v-.457zm.838 0h.457v.457h-.457v-.457zM1.029 4.61h.457v.457h-.457V4.61zm.838 0h.457v.457h-.457V4.61zm-.838-.839h.457v.458h-.457V3.77zm.838 0h.457v.458h-.457V3.77zm.838.839h.457v.457h-.457V4.61zm.838 0H4v.457h-.457V4.61zm.838 0h.457v.457h-.457V4.61zM1.029 2.933h.457v.457h-.457v-.457zm.838 0h.457v.457h-.457v-.457zm.838 0h.457v.457h-.457v-.457zm.838 0H4v.457h-.457v-.457zm.838 0h.457v.457h-.457v-.457zm-1.676-.838h.457v.457h-.457v-.457zm.838 0H4v.457h-.457v-.457zm.838 0h.457v.457h-.457v-.457zm0-.838h.457v.457h-.457v-.457z" mask="url(#d)"/>
        <path fill="url(#f)" fill-rule="nonzero" d="M7.01 2.933h.457v.457H7.01v-.457zm0 .838h.457v.458H7.01V3.77zm.838-.838h.457v.457h-.457v-.457zm1.676-1.676h.457v.457h-.457v-.457zm-.838 1.676h.457v.457h-.457v-.457zM7.01 2.095h.457v.457H7.01v-.457zm.838 0h.457v.457h-.457v-.457zm.838 0h.457v.457h-.457v-.457zm-.838-.838h.457v.457h-.457v-.457zm.838 0h.457v.457h-.457v-.457zM7.848.42h.457v.457h-.457V.42zm.838 0h.457v.457h-.457V.42z" mask="url(#d)"/>
        <path fill="url(#g)" fill-rule="nonzero" d="M12.99 14.438h.458v.457h-.458v-.457zm-.838-5.028h.458v.457h-.458V9.41zm0 .838h.458v.457h-.458v-.457zm0 .838h.458v.457h-.458v-.457zm0 .838h.458v.457h-.458v-.457zm0 .838h.458v.457h-.458v-.457zm0 .838h.458v.457h-.458V13.6zm0-5.029h.458v.458h-.458V8.57zm0-.838h.458v.457h-.458v-.457zm-.838 1.677h.457v.457h-.457V9.41zm0 .838h.457v.457h-.457v-.457zm0 .838h.457v.457h-.457v-.457zm0 .838h.457v.457h-.457v-.457zm0 .838h.457v.457h-.457v-.457zm0-4.19h.457v.457h-.457V8.57zm0-.839h.457v.457h-.457v-.457zm1.676 2.515h.458v.457h-.458v-.457zm0 .838h.458v.457h-.458v-.457zm0 .838h.458v.457h-.458v-.457zm0 .838h.458v.457h-.458v-.457zm0 .838h.458v.457h-.458V13.6zm0-4.19h.458v.457h-.458V9.41zm0-.839h.458v.458h-.458V8.57zm.839 1.677h.457v.457h-.457v-.457zm0 .838h.457v.457h-.457v-.457zm0 .838h.457v.457h-.457v-.457zm0 .838h.457v.457h-.457v-.457zm0 .838h.457v.457h-.457V13.6zm0-4.19h.457v.457h-.457V9.41zm0-.839h.457v.458h-.457V8.57zm.838 1.677h.457v.457h-.457v-.457zm0 .838h.457v.457h-.457v-.457zm0 .838h.457v.457h-.457v-.457zm0 .838h.457v.457h-.457v-.457zm0 .838h.457v.457h-.457V13.6zm0-4.19h.457v.457h-.457V9.41zm0-.839h.457v.458h-.457V8.57zm.838 1.677h.457v.457h-.457v-.457zm0 .838h.457v.457h-.457v-.457zm0-5.029h.457v.457h-.457v-.457zm0-.838h.457v.457h-.457V5.22zm0 1.676h.457v.457h-.457v-.457zm0 .838h.457v.457h-.457v-.457zm-.838-2.514h.457v.457h-.457V5.22zm0-.838h.457v.457h-.457v-.457zm0-.838h.457V4h-.457v-.457zm0 2.514h.457v.457h-.457v-.457zm0 .838h.457v.457h-.457v-.457zm-.838-1.676h.457v.457h-.457V5.22zm0-.838h.457v.457h-.457v-.457zm0-.838h.457V4h-.457v-.457zm0 2.514h.457v.457h-.457v-.457zm0 .838h.457v.457h-.457v-.457zM12.99 5.22h.458v.457h-.458V5.22zm0-.838h.458v.457h-.458v-.457zm-.838 0h.458v.457h-.458v-.457zm.838-.838h.458V4h-.458v-.457zm0 2.514h.458v.457h-.458v-.457zm0 .838h.458v.457h-.458v-.457zm2.515 2.515h.457v.457h-.457V9.41zm0-.839h.457v.458h-.457V8.57zm-3.353-1.676h.458v.457h-.458v-.457zm0-.838h.458v.457h-.458v-.457z" mask="url(#d)"/>
    </g>
</svg>
