<svg xmlns="http://www.w3.org/2000/svg" width="135" height="52" viewBox="0 0 135 52">
    <g fill="none" fill-rule="evenodd" stroke="#0EBAC5">
        <path stroke-width="1.5" d="M117.978 42.25c-8.695 0-15.728-7.396-15.728-16.5s7.033-16.5 15.728-16.5c8.694 0 15.727 7.396 15.727 16.5s-7.033 16.5-15.727 16.5zm0-4.17c3.275 0 4.599-3.993 4.599-12.33 0-8.318-1.334-12.33-4.6-12.33-3.265 0-4.599 4.012-4.599 12.33 0 8.337 1.324 12.33 4.6 12.33z"/>
        <path fill-rule="nonzero" stroke-width="1.5" d="M30.426 20.637l.064-.485.98 3.64c.423 1.574.365 3.415-.148 5.463-.283 1.663-.836 3.289-1.653 4.878l.079-.007-.743 1.248a15.796 15.796 0 0 1-1.282 1.835l-.124.164-.008.01c-.19.25-.277.365-.395.508l-.232.285-.081-.002c-2.906 3.063-6.912 4.832-11.202 4.832-4.876 0-9.375-2.29-12.293-6.11l-.025-.004-.186-.268a2.74 2.74 0 0 1-.083-.127l-.02-.034c-.02-.03-.02-.03-.011-.02a9.101 9.101 0 0 1-.326-.499l-.073-.12a27.38 27.38 0 0 1-.481-.829C.848 32.545.294 30.056.538 27.545l-.372.62.084-2.87c.003-.064.003-.064.007-.11l.001-.014c.002-.022.002-.025.002-.005l.008-.108c.023-.155.05-.339.086-.597.107-.752.423-1.504.879-2.242.267-.432.533-.787.722-1.01.005-1.194.121-2.242.35-3.15l.005-.022.003-.013.135-.532h.029c.103-.284.23-.568.38-.85.234-.447.47-.802.634-1.019l.018-.02a.737.737 0 0 0-.049.07l.062-.078-.003-.002.007-.009.007-.008.007-.009.018-.02.013-.015.002-.003-.003.004.006-.008a17.112 17.112 0 0 1-.001.003l.007-.009.006-.006.005.004-.02.031.026-.025.003.003.033-.04.103-.103-.006-.006-.014.01.01-.013-.003-.004a.73.73 0 0 0-.123.126l.014-.016-.004.003.001-.001c.015-.02.02-.024.036-.042l-.001.002.001-.002.026-.028.05-.043h-.001l.008-.006.023-.02.014-.017-.023.02c-.06.057-.088.085-.104.103a2.42 2.42 0 0 1 .15-.15 16.754 16.754 0 0 1 .065-.058l.013.003-.071.05.007.01.07-.058 1.02.204c.098.228.125.29.13.35l-.009-.031.011.127c-.016-.138-.02-.179-.024-.194l.022.115a10.663 10.663 0 0 0 .184 1 15.073 15.073 0 0 1 22.417.89l-.143-1.479 1.479 1.48c.653.653 1.124 1.652 1.463 2.93zM2.294 18.13a.057.057 0 0 0-.001.012c0-.007 0-.012.002-.02zm1.215-2.525l.017-.02a12.468 12.468 0 0 1-.017.02zm.024-.028l.007-.009.018-.02-.009.01.02-.024a13.045 13.045 0 0 0-.026.03l-.01.013zm.01-.012a65.312 65.312 0 0 0 .005-.008l.005-.006.008-.01-.004.006a.762.762 0 0 1-.014.018zm.005-.008l-.001.001v-.001zm.017-.019l.011-.012h.001a1.14 1.14 0 0 0 .005-.006l.02-.023-.012.014.012-.014.01-.013a.575.575 0 0 1-.048.055zm.028-.02l.006.006.036-.037.083-.099a2.259 2.259 0 0 0-.067.053l-.027.031a.591.591 0 0 0-.031.046zm0-.014zm.035-.04a.282.282 0 0 1-.003.005zm.02-.023a1.87 1.87 0 0 1 .024-.027.255.255 0 0 0-.023.027zm.035-.037a4.161 4.161 0 0 0-.015.018l-.003.003c.005-.007.008-.01.01-.015a.345.345 0 0 0 .002-.002l.002-.001.004-.003zm-.009.008zm-.002.002l-.003.004a.75.75 0 0 1 .003-.004zm.007-.007l.025-.027.016-.014-.002-.002c-.02.02-.02.02-.035.038a1.224 1.224 0 0 0-.004.005zm.004-.005l-.002.002a9.452 9.452 0 0 0 .002-.002zm-.005.005l-.001.001zm.199-.16l.05-.04-.057.038.007.002zm-.109.07a.767.767 0 0 1 0 0zm-.103.108l.002-.002zm1.339.278l-.005-.01.005.02zM1.737 24.12l-1.151.937.017.022.397.238.75.022.002-.031v-.013l.006-.074.002-.05v-.002h-.75l.741.11.01-.07-.024-1.089zm-1.356.773l-.01.018.019-.03a.523.523 0 0 0-.009.012zm.009-.012l.002-.004-.001.002-.001.002zm3.37-6.455l-.628-.158.448.298.18-.14zm-.435.34l.003-.003-.005.002h.002zm.003-.003l.252-.197.085.057-.337.14zm1.34-2.208l.017-.022-.597-.455.53.53c.01-.009.01-.009.043-.045l.007-.008zm.022-.026c.018-.023.027-.036.057-.083l-.644-.386.53.53.041-.042a1.042 1.042 0 0 1-.025.026l.07-.08a6.888 6.888 0 0 1 .013-.017l-.6-.45.53.53c.066-.07.066-.07.084-.096l-.6-.45.53.53.014-.012zm-.016.019l.001-.002v.001zm.075-.093a19.022 19.022 0 0 0-.006.008zm.028-.025a.455.455 0 0 0-.013.01l-.53-.53.45.6a205.698 205.698 0 0 1 .014-.017l.08-.069.03-.032a.943.943 0 0 1-.003.005l.004-.005.016-.018v-.001c-.022.021-.06.053-.136.118l-.388-.582-.04-.031.336.67c.12-.082.172-.117.205-.147a.686.686 0 0 0 .04-.06l-.344-.275-.279-.139.45.6c.066-.058.091-.08.108-.097zm.024-.029zm.001-.001zm-1.247-.294a.084.084 0 0 0 .007.018l-.005-.02zm25.631 4.701v-.632.031l-.014.113-.292.368c.034.11.066.225.098.343a.79.79 0 0 0 .208-.223zM5.585 17.74l-.005.003.042.059a.13.13 0 0 0-.003-.007l.004.008.006.008.017.028a23.37 23.37 0 0 0-.022-.04.442.442 0 0 0-.049-.075l.01.016zm-.694.374l-.492-.393.015-.018c-.026.03-.026.03-.085.13l.562.281zm.728-.32l-.001-.001.001.002zm-.074-.1l.006-.005a7.729 7.729 0 0 0-.056-.064l.05.07zm.029.025a.34.34 0 0 1-.002-.003zm19.592 8.347c.003.828-.101 1.567-.31 2.217l1.427-.006c-.367-1.112-.711-1.83-1.117-2.21zm-1.27 3.907c-.188 1.451-.683 2.595-1.474 3.444l1.269.72c.31-1.064.433-1.951.357-2.686l-.152-1.478zm-8.98 4.47h-.041l-.054-.034-.013.032h-.027v.072l-.229.595.229-.228v.31l.147-.457.155-.155-.002-.002-.085-.055.014-.044a2.177 2.177 0 0 1-.095-.034zm-.048.002h-.002zm-1.077-.537a2.182 2.182 0 0 1-.103-.061 2.463 2.463 0 0 1-.15-.095 1.96 1.96 0 0 1-.093-.06l-.013-.01-.044-.03-.084-.057-.073-.05-.038-.03-.083-.063-.055-.042a3.922 3.922 0 0 1-.197-.158l-.062-.053-.01-.009a3.145 3.145 0 0 0-.07-.059l-.064-.054-.043-.04-.057-.052-.021-.02-.053-.051a2.373 2.373 0 0 1-.112-.106c-.041-.04-.041-.04-.066-.062l-.036-.036-.53.53-.147.736c.132.017.141.019.18.018-.013 0-.008 0 .013.002.023 0 .023 0 .037.002l.133.006.06.004.036.001c.032.004.079.006.132.006-.028 0-.028 0-.013.001.038.003.038.003.115.005h.055c.022-.001.007-.001-.01-.002l.157-.001c.018-.001.018-.001.008-.001h.156l.082-.002h-.03.052l.015-.001.067-.002.137-.01.042-.003.016-.002.021-.001.09-.007.075-.008c-.017.002-.017.002.008 0 .03 0 .03 0 .069-.003l.075-.009.016-.002.044-.004c.063-.008.063-.008.103-.015l.013-.003.023-.004.029-.004c.041-.005.041-.005.107-.017-.001.002-.001.002.03-.003l.027-.004.034-.005zm4.108-1.938l.01-.007.06-.037.708-.448-.529-.661-.586.468.262.703a.215.215 0 0 1 .075-.018zm-7.222-4.246l-.157-.231-.027-.04.181.016c.07.006.143.014.216.023l2.762-.442c.028-.25.03-.501.006-.753l-2.812-.291-.077-.007h-.005l-.027-.002-.113-.01a16.139 16.139 0 0 0-.473-.04 4.499 4.499 0 0 0-.166-.01c-.021-.003-.021-.003-.062-.005l-.054-.003a6.88 6.88 0 0 1-.185-.01l-.056-.005H9.61l-.046-.004a2.059 2.059 0 0 1-.165-.015l-.11.741v.584l-.12.535c-.015.091-.015.091-.018.145l-.002.058h1.499l.004-.041-.001.032.002-.07a1.488 1.488 0 0 1 .024-.155zm2.62-2.772a5.496 5.496 0 0 0-.25-.497l-.01-.021a1.892 1.892 0 0 0-.29-.455l-.573.483-.53.53a.68.68 0 0 1 .04.066l.008.015.365 1.021.834-.782c-.008.008-.008.008.002 0l.063-.056.076-.068.05-.044.032-.028.109-.096.06-.055.014-.013zm-1.647.046a.393.393 0 0 0-.001-.002zm.042.075a.749.749 0 0 0 .025.043c-.008-.013-.016-.031-.045-.099l.02.056zm3.083-1.209l.07-.05-.469-.585.376.65.023-.015zm.078-.051l-.003.002.003-.002zm.649-.82a1.6 1.6 0 0 0 .064-.234l-.736-.145.527.527.012-.005-.015.015c-.111.11-.111.11-.503.2l.506-.21.004.004.008-.01.012-.004.035-.034.086-.104zm-2.177-1.804a12.88 12.88 0 0 1-.107-.012l-.083.746.278-.697-.02-.008a2.812 2.812 0 0 1-.068-.03zm-1.406-1.136a2.138 2.138 0 0 1-.113-.16l-.162-.258c.128.124.204.206.247.277-.046-.2-.103-.276-.317-.389L10.42 17.69v2.602c.407-.798.407-.798 1.084-.67.15.094.153.097.183.128l-.508.399h-.006l.004.001-.076.06.066.065v.636h.003l.317-.316.143.143a3.836 3.836 0 0 1-.021.019l.06-.043c-.07.062-.07.062-.067.058l-.026.019c.037-.024.037-.024.122-.1l-.154-.153.199-.2.121.041-.048.125.146-.214-.026-.208c-.002.05-.013.108-.028.182l-.034.088.045-.19h.001c-.008.085-.012.127-.016.155-.009.024 0-.039.019-.168l.007-.032-.012-.064zm-.31.704a.893.893 0 0 1-.068.06l-.066.037.135-.097zm-.068.06a.433.433 0 0 1-.016.01l-.013.009.012-.008a.438.438 0 0 1-.038.023l.01-.004.046-.03-.017.01-.001.001.018-.011.048-.035a.48.48 0 0 1-.05.034zm-.055.034a1.906 1.906 0 0 1-.14.064l.14-.064zm.056-.034a.677.677 0 0 0 .003-.002zm.275-.313c-.011.028-.012.025-.013.02l.013-.02zm-2.609-2.402c-.089.08-.17.16-.244.243l-.053.048.01.01-.05.042.019-.023-.03.037.463.346.02.829.125.002.016-.75-.016-.015.008-.016.022.02-.004-.056.283-.566c-.11-.047-.11-.047-.14-.054h.001l.061.021-.085-.028-.008-.003-.036-.01a6.625 6.625 0 0 0-.122-.028l-.002-.025-.086.006-.152-.03zm-2.652.074a6.834 6.834 0 0 0-.528.149 1.638 1.638 0 0 1-.21-.23l-.597.455.582.474.06-.074.07.207.068-.142.045.104-.02-.158.219-.452c.102-.113.206-.224.311-.333zm-.777.24a61.67 61.67 0 0 0-.008.003zm14.21-3.645a13.142 13.142 0 0 1 4.419 2.412l.478-.578.335-.67a8.512 8.512 0 0 0-1.343-.534c-1.129-.337-2.428-.547-3.89-.63zm.749 1.918l.11.049.114.04-.015-.004.006.003.024.008c.542.265.872.564 1.011.872l.684-.308.136-.737a4.607 4.607 0 0 0-1.68-.017l.122-.51-.255.538c-.087.019-.172.041-.257.066zm4.762 4.952c.299.527.417 1.066.363 1.616l.746.074.63-.406c-.4-.623-.949-1.045-1.636-1.253l-.103-.03zM12.681 32.516h.018-.018zm.575-.044zm2.076-.622a3.099 3.099 0 0 1 0-.001zm-5.25-3.892l.552.123c.013-.072.013-.072.015-.106v-.017h-.567zm2.921-3.614l.016.03c-.016-.03-.02-.035-.02-.038l.004.008zm-.005-.008zm.991-1.747a139.663 139.663 0 0 1 .003-.003zm-3.345-1.966l.045-.028a2.04 2.04 0 0 1-.205-.221.41.41 0 0 0 .16.25zm.953.117c.013-.008.014-.01.018-.013l-.017.013zM9.97 19.454l-.031.026-.028.029.01-.01c.01-.008.025-.021.05-.045zm-.049.046a1.47 1.47 0 0 0 .04-.033c-.05.046-.05.046-.098.077l.024-.018.006-.004a.288.288 0 0 0 .028-.022zm-3.647.332z"/>
        <g stroke-width="2" transform="translate(41 1)">
            <circle cx="25" cy="25" r="25"/>
            <path stroke-linecap="square" d="M29.5 15.5h18M33 31L21.5 49.5"/>
            <circle cx="25" cy="25" r="10"/>
            <path stroke-linecap="square" d="M15 27L6 11"/>
        </g>
    </g>
</svg>
