<svg xmlns="http://www.w3.org/2000/svg" width="21" height="16" viewBox="0 0 21 16">
    <path fill="#676767" fill-rule="nonzero" d="M13.978 2.3h5.25c.728 0 1.311.582 1.311 1.31v10.656c0 .727-.583 1.31-1.31 1.31H1.16c-.727 0-1.31-.583-1.31-1.31V3.609c0-.727.583-1.31 1.31-1.31h5.251L7.19.5a1.09 1.09 0 0 1 .997-.649h4.017c.444 0 .822.247.997.65l.778 1.8zm5.25 12.31a.32.32 0 0 0 .323-.366V3.61a.343.343 0 0 0-.344-.343h-5.895L12.298.886l-.138-.09H8.207l-.138.09-1.014 2.38H1.16a.343.343 0 0 0-.343.343v10.657c0 .19.153.343.343.343H19.23zM10.34 3.85a4.505 4.505 0 0 1 4.49 4.49 4.505 4.505 0 0 1-4.49 4.49 4.505 4.505 0 0 1-4.49-4.49 4.505 4.505 0 0 1 4.49-4.49zm0 8.013a3.543 3.543 0 0 0 3.523-3.523 3.529 3.529 0 0 0-3.523-3.523A3.529 3.529 0 0 0 6.817 8.34a3.529 3.529 0 0 0 3.523 3.523z"/>
</svg>
