<svg xmlns="http://www.w3.org/2000/svg" width="24" height="24" viewBox="0 0 24 24">
    <path fill="#FFF" fill-rule="nonzero" d="M6 23.5c0 .3-.2.5-.5.5h-5c-.3 0-.5-.2-.5-.5v-5c0-.3.2-.5.5-.5s.5.2.5.5V23h4.5c.3 0 .5.2.5.5zm-6-18v-5C0 .2.2 0 .5 0h5c.3 0 .5.2.5.5s-.2.5-.5.5H1v4.5c0 .3-.2.5-.5.5S0 5.8 0 5.5zm24 13v5c0 .3-.2.5-.5.5h-5c-.3 0-.5-.2-.5-.5s.2-.5.5-.5H23v-4.5c0-.3.2-.5.5-.5s.5.2.5.5zm0-18v5c0 .3-.2.5-.5.5s-.5-.2-.5-.5V1h-4.5c-.3 0-.5-.2-.5-.5s.2-.5.5-.5h5c.3 0 .5.2.5.5zM5 5h14v14H5V5zM3 4v16c0 .55.45 1 1 1h16c.55 0 1-.45 1-1V4c0-.55-.45-1-1-1H4c-.55 0-1 .45-1 1z"/>
</svg>
