<svg xmlns="http://www.w3.org/2000/svg" width="58" height="18" viewBox="0 0 58 18">
    <path fill="#3E3E58" fill-rule="nonzero" d="M20.302 16.67c1.519-.059 3.191.366 4.565 1.33-.459-.661-1.753-1.63-2.835-2.3-1.1-.678-2.509-1.113-4.127-1.127-4.17-.035-8.711 1.99-11.789 2.018-3.627.032-3.808-2.76-3.539-4.293.579-3.301 2.92-6.452 4.427-8.112 1.507-1.661 3.085-2.95 4.397-3.28 1.31-.33 1.187.668 1.027.806-.166.001-.483.037-.663.162-.283.197-.661.552-.684 1.118-.04.871 1.086 1.025 1.9-.801.556-1.244-.325-2.09-1.057-2.172-1.003-.11-2.536.24-4.368 1.415C4.371 3.48.111 8.028.002 13.07c-.063 2.88 1.818 4.497 4.396 4.497 2.687 0 6.08-1.579 9.5-1.618 2.115-.02 3.485.721 4.18 1.932 0 0 .69-1.146 2.224-1.21zM29.89 4.548H28.17l-.972 1.575h1.721l.972-1.575zM55.31 1.72c-1.272.817-3.036 1.558-4.729 1.394-.428.446-.888.957-1.35 1.519 2.942.582 5.511-1.242 6.882-2.791C56.966.872 57.388.01 57.388.01s-.816.897-2.077 1.71zm-1.39 7.184h-1.812l-.293.456s-.369-.667-.995-.655c-1.073.018-2.146.836-3.392 2.256-.914 1.04-2.43 3.357-2.43 3.357s-1.162 1.79-1.75 1.65c-1.002-.238.842-3.948.842-3.948s.97-.599 2.224-1.657c.791-.666 1.701-1.58 2.538-2.428.76-.771 1.658-1.82 2.51-2.969a6.887 6.887 0 0 1-.67.072 29.3 29.3 0 0 1-2.274 2.625c-1.033 1.067-1.982 1.941-2.673 2.497-.66.534-1.085.773-1.085.773s1.262-2.592 3.364-5.455c2.104-2.862 5.047-5.523 4.817-4.26-.067.363-.29.881-.63 1.497.24-.05.473-.11.696-.182.506-1.046.677-1.909.3-2.157-1.542-1.017-5.467 3.186-7.435 5.63-1.967 2.443-3.749 6.176-3.749 6.176s-.306.128-.648.193c-.214.04-.306.033-.34.019-.019-.005-.02-.019-.02-.019s1.731-3.235-.04-3.666c-1.71-.413-4.673 2.75-5.726 4.951-.724 1.51-1.131 3.41.108 3.863 1.342.49 3.623-1.96 4.159-2.673.537-.713 1.205-1.896 1.205-1.896s.328-.018.508-.041c.341-.051.502-.094.502-.094s-.222.583-.462 1.318c-.448 1.376-.852 3.343.76 3.433 1.027.058 2.534-1.795 2.534-1.795s-.407 1.65.926 1.795c.983.11 2.416-1.411 2.416-1.411s-.312 1.312.685 1.426c.853.098 2.066-.901 3.059-2.003 1.085-1.202 1.918-2.52 1.918-2.52h-.632s-1.395 2.12-2.375 2.688c-.806.465-.53-.281-.286-.673.27-.434 3.648-6.172 3.648-6.172l-.001-.001zM40.12 12.897c-.024.057-.478.846-.964 1.465-.522.668-1.48 1.674-2.053 1.462-.899-.333.09-2.29.736-3.24.648-.95.72-1.013.738-1.04.019-.024.037-.049.053-.018.016.031.221.42.63.757.407.342.798.523.83.533.034.012.056.023.032.08h-.002zm.405-.707c-.058.094-.099.1-.215.07-.209-.056-1.068-.455-1.06-1.337.004-.86 1.215-1.7 1.69-1.341.443.336.233 1.195.067 1.632a7.632 7.632 0 0 1-.48.977h-.002zm8.228 2.127c-.239.326-.437.623-.618.83-.386.446-.639.653-.863.708a.492.492 0 0 1-.345-.036c-.33-.199-.099-.982.474-2.03a14.988 14.988 0 0 1 2.127-3.018c.999-1.11 1.382-1.161 1.661-1.15.237.011.269.257.269.257s-.015.056-.054.122c-.33.573-1.992 3.415-2.651 4.317zM12.533 4.372c-1.748-.446-4.651 2.531-5.876 4.953-.754 1.493-1.085 3.372.258 3.86s3.623-1.96 4.159-2.674c.536-.711 1.414-2.14 1.414-2.14s.269-.051.446-.091c.175-.039.461-.122.461-.122s-.33.59-.628 1.193c-.354.716-1.315 3.1.54 3.814 1.772.683 4.296-2.165 4.428-2.218 0 0-.75 1.94.416 2.238 1.28.327 2.683-1.313 2.683-1.313s-.296 1.23.702 1.345c1.787.208 4.947-4.36 4.947-4.36h-.632s-1.607 2.067-2.38 2.496c-.774.428-.496-.333-.285-.672.268-.432 3.683-6.139 3.683-6.139h-1.811l-.21.332s-.373-.57-.998-.53c-1.816.117-3.976 3.011-4.926 4.288-.949 1.275-2.998 3.71-4.078 3.278-1.175-.474-.005-2.646.767-3.922.842-1.389 2.335-2.764 2.925-2.775.726-.014.44.645.44.645s-.542-.069-.935.427c-.278.35-.51.861-.245 1.14.428.45.985-.006 1.316-.517 1.037-1.586.279-2.421-.535-2.543-1.735-.26-3.333 1.967-4.546 2.795-.843.575-1.194.529-1.194.529s1.46-2.867-.306-3.317zm7.85 5.13c.524-.96 1.24-1.885 2.168-3.045.93-1.16 1.393-1.255 1.673-1.242.236.013.27.257.27.257S22.473 8.99 21.74 9.997a12.84 12.84 0 0 1-.624.812c-.386.448-.666.662-.882.716a.47.47 0 0 1-.346-.036c-.33-.2-.077-.94.495-1.987zM11.812 8.36c-.024.055-.602 1.01-1.086 1.63-.523.668-1.488 1.678-2.064 1.465-.9-.332.059-2.279.707-3.227.646-.95.741-1.073.76-1.098.019-.023.036-.047.053-.018.015.03.22.453.667.739.445.285.901.416.934.425.032.014.054.026.03.084h-.001zm.752-1.485c-.167.437-.317.714-.347.779-.05.104-.175.07-.175.07-.14-.005-1.24-.256-1.234-1.139.004-.86 1.216-1.7 1.691-1.342.443.337.232 1.194.067 1.632h-.002zm21.795 1.82c-.901.073-2.496.88-3.365 2.645-.868 1.764-.872 2.85-.872 2.85s.46-.499 1.16-1.026c.704-.527 1.225-.713 1.225-.713s.131-.647.455-1.324c.316-.659.815-1.344 1.435-1.5 1.255-.314.653 1.975-.267 3.468-.496.803-2.253 3.11-3.766 3.11s-1.805-1.46-1.486-2.823c.318-1.363.76-3.096 2.966-6.244 2.209-3.149 4.598-5.014 5.981-5.799 1.42-.806 2-.452 2-.452s-1.815 1.117-2.846 2.46c-.986 1.283-1.575 2.73-1.118 3.439.438.675 1.973.687 3.664-1.757 1.671-2.41 1.25-3.845 1.25-3.845s.2-.067.336-.083c.814-.11 1.466.105 2.477.623 1.058.543 2.073 1.414 3.463 2.125.42-.46.886-.946 1.377-1.423-1.876-.912-3.3-2.213-5.14-2.336-1.6-.108-2.863.475-2.863.475s-.487-.666-1.993-.448c-1.508.217-6.147 2.16-10.097 8.48-3.57 5.718-1.887 8.994.679 8.956 2.782-.04 5.427-3.134 6.322-5.685.897-2.55-.162-3.242-.977-3.173zm5.461-5.313c-.465 1.14-1.155 1.937-1.833 2.544-.867.78-1.345.754-1.552.597-.537-.41.185-1.959 1.44-3.342 1.25-1.38 2.326-1.81 2.326-1.81.002.018.18.643-.38 2.01z" opacity=".601"/>
</svg>
