<svg xmlns="http://www.w3.org/2000/svg" width="27" height="24" viewBox="0 0 27 24">
    <path fill="#353535" fill-rule="evenodd" d="M24.283 20.581h-9.99v2.059h3.225a.537.537 0 1 1 0 1.074H9.99a.537.537 0 1 1 0-1.074h3.226v-2.059H3.225c-1.482 0-2.688-1.363-2.688-3.039V3.572C.537 1.897 1.743.534 3.225.534h21.058c1.482 0 2.688 1.363 2.688 3.038v13.97c0 1.676-1.206 3.04-2.688 3.04zM3.225 19.507h21.058c.866 0 1.569-.836 1.606-1.88H1.62c.038 1.044.74 1.88 1.606 1.88zm21.058-17.9H3.225c-.889 0-1.613.881-1.613 1.965v12.981h24.284V3.572c0-1.084-.724-1.964-1.613-1.964z"/>
</svg>
