<svg xmlns="http://www.w3.org/2000/svg" width="19" height="17" viewBox="0 0 19 17">
    <path fill="#000" fill-rule="nonzero" d="M11.66 12.641h.43v1.351c0 .131.023.262.023.393h-.022c-.194 0-.432-.197-.432-.654v-1.09zm-3.455 0h2.59v1.09c.022.806.562 1.525 1.296 1.525h.28c.152.327.368.61.627.872H5.83v-.872h1.08c.733 0 1.295-.697 1.295-1.525v-1.09zm6.865-2.18a.444.444 0 0 0-.388.436v1.265c0 .109.043.24.13.305.086.087.194.13.302.13a.424.424 0 0 0 .302-.13.432.432 0 0 0 .13-.305v-1.265c0-.13-.044-.24-.13-.326-.108-.088-.216-.131-.346-.11zm.044-.871c1.209 0 2.159.937 2.159 2.136v2.288c0 1.177-.95 2.136-2.16 2.136-1.208 0-2.158-.959-2.158-2.136v-2.288c0-1.2.95-2.136 2.159-2.136zM.864.872h17.272v10.854a3.009 3.009 0 0 0-3.022-3.008 3.009 3.009 0 0 0-3.023 3.008v.043H.864V.872zm0-.872A.87.87 0 0 0 0 .872v10.897c0 .48.389.872.864.872H7.34v1.09c0 .457-.238.654-.432.654H5.398c-.216 0-.432.218-.432.436v1.743c0 .218.216.436.432.436h8.204a.417.417 0 0 0 .367-.218c.346.153.734.218 1.145.218 1.662 0 3.022-1.351 3.022-3.008v-1.351a.87.87 0 0 0 .864-.872V.872A.87.87 0 0 0 18.136 0H.864z"/>
</svg>
