<svg xmlns="http://www.w3.org/2000/svg" width="21" height="21" viewBox="0 0 21 21">
    <g fill="none" fill-rule="nonzero">
        <path fill="#70CADB" d="M2.218 11.387c-.753.006-1.391-.436-1.626-1.126a1.825 1.825 0 0 1-.025-.079C.311 9.3.808 8.374 1.7 8.078l14.29-4.715c.17-.049.346-.074.523-.075.773-.006 1.429.445 1.67 1.15l.021.068c.267.92-.397 1.742-1.193 2.005L2.8 11.291a1.875 1.875 0 0 1-.58.096z"/>
        <path fill="#E01765" d="M4.758 17.968c-.757.006-1.395-.427-1.627-1.101a1.714 1.714 0 0 1 1.103-2.185l14.252-4.72a1.87 1.87 0 0 1 .566-.093c.759-.006 1.426.448 1.661 1.13l.022.072a1.736 1.736 0 0 1-.217 1.42c-.204.31-.848.584-.848.584L5.364 17.867a2 2 0 0 1-.606.102z"/>
        <path fill="#E8A723" d="M16.56 17.969a1.72 1.72 0 0 1-1.648-1.164L10.233 3.013l-.023-.077a1.705 1.705 0 0 1 1.107-2.09A1.724 1.724 0 0 1 13.5 1.922l4.678 13.791.014.045a1.713 1.713 0 0 1-1.632 2.212z"/>
        <path fill="#3EB890" d="M9.45 20.5a1.72 1.72 0 0 1-1.648-1.165L3.128 5.543c-.146-.43-.114-.9.089-1.306a1.716 1.716 0 0 1 1.529-.95 1.719 1.719 0 0 1 1.647 1.165l4.674 13.792c.147.43.115.9-.089 1.307a1.716 1.716 0 0 1-1.528.949z"/>
        <path fill="#CC2027" d="M14.228 14.8l3.44-1.055-1.125-2.995-3.443 1.044 1.128 3.006z"/>
        <path fill="#361238" d="M7.034 17.462l3.434-1.18-1.131-3.376L5.9 14.074l1.134 3.388z"/>
        <path fill="#65863A" d="M11.895 8.05l3.448-1.063L14.229 4l-3.454 1.045z"/>
        <path fill="#1A937D" d="M4.653 10.45L8.09 9.397 6.966 6.4 3.522 7.435l1.13 3.015z"/>
    </g>
</svg>
