<svg xmlns="http://www.w3.org/2000/svg" width="20" height="20" viewBox="0 0 20 20">
    <path fill="#FFF" fill-rule="nonzero" d="M7.9 11.1h-.5c-.2 0-.5-.1-.6-.4 0-.2 0-.5.2-.7l.6-.6H1c-.2 0-.3-.1-.5-.2-.1-.1-.1-.2-.1-.4.3-2.1 1.3-4.1 2.8-5.5C5 1.4 7.4.4 10 .4c2.1 0 4.1.7 5.8 1.9 1.5 1.1 2.6 2.6 3.3 4.3.1.2 0 .4-.1.6-.1.2-.3.3-.5.3h-.3c-.2 0-.5-.2-.6-.4-.6-1.4-1.5-2.6-2.7-3.5-1.5-1.1-3.2-1.7-4.9-1.7-2.2 0-4.2.9-5.8 2.4-1 1-1.8 2.3-2.2 3.7h5.5L7 7.4c-.2-.1-.2-.4-.1-.6.1-.2.3-.4.5-.4h.4c.2 0 .3.1.4.2L10 8.3c.1.1.2.3.2.4 0 .1-.1.3-.2.5l-1.7 1.7c-.1.1-.3.2-.4.2zm2.1 8.7c-2.1 0-4.1-.7-5.8-1.9-1.5-1.1-2.6-2.6-3.3-4.3-.1-.2 0-.4.1-.6.1-.2.3-.3.5-.3h.3c.2 0 .5.2.6.4.6 1.4 1.5 2.6 2.7 3.5 1.4 1.1 3.1 1.6 4.9 1.6 2.2 0 4.2-.9 5.8-2.4 1-1 1.7-2.3 2.1-3.7h-5.5l.6.6c.2.2.2.4.1.7-.1.2-.3.4-.6.4h-.4c-.2 0-.3-.1-.4-.2L10 11.9c-.1-.1-.2-.3-.2-.4 0-.1 0-.4.2-.5l1.8-1.7c.1-.1.3-.2.4-.2h.4c.2 0 .5.1.6.4.1.2 0 .5-.1.7l-.6.6H19c.2 0 .3.1.5.2.1.1.2.3.1.5-.3 2.1-1.3 4.1-2.8 5.5-1.8 1.8-4.2 2.8-6.8 2.8z"/>
</svg>
