<svg xmlns="http://www.w3.org/2000/svg" width="24" height="27" viewBox="0 0 24 27">
    <path fill="#0EBAC5" fill-rule="nonzero" d="M17.828 3.722l4.77 2.744.26.148a1.384 1.384 0 0 1 .694 1.207l.001 5.842a.375.375 0 0 1-.562.325l-2.025-1.165a.375.375 0 0 1-.188-.325v-3.89L16.51 6.153a10.97 10.97 0 0 1-.324-.183l-4.08-2.35-4.254 2.444-.083.053-.258.149-4.078 2.343v9.978l4.269 2.455.32.182.903.511.15.087c.116.067.188.19.188.324v2.32a.375.375 0 0 1-.562.325l-.444-.255-1.613-.915-.258-.145-4.775-2.747-.258-.148a1.383 1.383 0 0 1-.694-1.207l-.002-5.776V7.812c0-.261.075-.514.212-.731.136-.22.333-.398.544-.5l4.71-2.71.256-.148.26-.148L11.153.982l.26-.154a1.389 1.389 0 0 1 1.458.046l4.697 2.701.26.147zm2.95 13.032v-1.379c0-.288.311-.469.561-.325l2.026 1.16a.375.375 0 0 1 .188.326v2.266a.375.375 0 0 1-.107.262l-.974.99c-.263.334-.652.513-1.017.304L13.54 15.79l-.001 8.66a.67.67 0 0 1-.249.582c-.004.003-.471.38-1.402 1.127a.674.674 0 0 1-1.13-.493l.001-11.475-1.527-.879-.791.454c-.02.015-.057.036-.65.376a.677.677 0 0 1-.936-.233l-.357-.614-.354-.608a.675.675 0 0 1 .235-.937L7 11.395l1.544-.884.3-.17a.674.674 0 0 1 .726-.033l.353.204 10.855 6.242z"/>
</svg>
