<svg xmlns="http://www.w3.org/2000/svg" width="24" height="27" viewBox="0 0 24 27">
    <path fill="#FFF" fill-rule="evenodd" stroke="#FFF" stroke-width=".5" d="M12.607 1.181l4.68 2.702.001-.002.256.147.03.017v.001l.012.008 4.712 2.72.256.147a1.007 1.007 0 0 1 .505.882v6.76l-2.017-1.165V8.373L16.582 5.8l-.015-.008-.03-.017-.256-.148.002-.003-4.253-2.455-4.441 2.564a.753.753 0 0 1-.026.018l-.04.024-.256.148V5.92l-4.25 2.453V18.785l4.46 2.575.016.007.03.018.255.148-.001.002 1.886 1.09.15.086v2.319l-.445-.256-2.595-1.498-.002.002-.255-.147-.03-.018-.017-.01-4.707-2.718-.256-.147A1.005 1.005 0 0 1 1 19.356H1V7.794a1.013 1.013 0 0 1 .565-.906l4.695-2.71-.001-.002.256-.148a.987.987 0 0 1 .042-.023L6.567 4l.204-.118.001.002 4.499-2.598-.001-.002.256-.149a1.006 1.006 0 0 1 1.08.046zm-2.938 9.637l11.373 6.566v-2.027l2.018 1.16v2.266l-.997 1.021c-.14.18-.356.313-.533.21l-8.446-4.89v9.341a.297.297 0 0 1-.109.257l-.186-.23.185.23-1.414 1.144a.297.297 0 0 1-.5-.217h.002V13.957l-1.895-1.094-1.002.578a.311.311 0 0 1-.023.015l-.598.344a.297.297 0 0 1-.422-.097l.256-.149-.255.149-.357-.614-.006-.01-.347-.598a.297.297 0 0 1 .098-.424l.148.258-.147-.256.618-.356 1.538-.885.329-.19a.297.297 0 0 1 .32-.014v.001l.352.203z"/>
</svg>
