<svg xmlns="http://www.w3.org/2000/svg" width="25" height="24" viewBox="0 0 25 24">
    <g fill="#79798B" fill-rule="evenodd">
        <path d="M12.553 23.714C6.173 23.714 1 18.63 1 12.357 1 6.085 6.172 1 12.553 1c6.38 0 11.553 5.085 11.553 11.357 0 6.272-5.172 11.357-11.553 11.357zm.327-2.032c5.97 0 9.268-3.478 9.268-9.325 0-3.589-1.32-6.418-3.968-8.332-.185-.134.203-.604 0-.725a10.927 10.927 0 0 0-5.6-1.53c-4.403 0-8.19 2.579-9.875 6.278-.6 1.317-.208 2.775-.208 4.309 0 5.847 4.414 9.325 10.383 9.325z"/>
        <path d="M3.094 3.388L4.648 5.59l2.664.238 2.583-1.455-.813 1.693s.396.572.396 1.111h2.572s.517.333.071.848c-.445.516-2.274 1.912-2.274 1.912l-.013 1.481-1.687.036s-.05 2.012 1.304 2.384c1.355.371 3.136-.536 3.136-.536s1.36-.207 1.878.394c.517.601.459.79-.202 1.006-.66.216-2.148 1.466-3.288 1.466-1.14 0-1.499-.048-1.499-.048s.465.702 1.412 1.002c.947.3 5.331 1.37 7.517-2.454.446-.972.434-2.814.434-2.814l.934.621s.61-2.375 0-3.836l.74-.1s-1.291-2.72-4.266-3.443l1.722-.45s-1.162-1.084-3.021-1.43l3.27.083 3.426 3.169 1.458 4.6-.49 4.646-2.258 3.719-2.905 2.395-3.692 1.025-5.831-.786-5.28-4.743-1.054-7.175.837-3.098.665-3.664z"/>
    </g>
</svg>
