<svg xmlns="http://www.w3.org/2000/svg" xmlns:xlink="http://www.w3.org/1999/xlink" width="18" height="18" viewBox="0 0 18 18">
    <defs>
        <path id="a" d="M17.819 9.26c-.18 4.769-4.098 8.58-8.907 8.58C3.99 17.84 0 13.846 0 8.92S3.99 0 8.912 0c2.33 0 4.45.894 6.038 2.358l-2.268 2.32a5.648 5.648 0 0 0-3.77-1.434A5.674 5.674 0 0 0 3.241 8.92a5.674 5.674 0 0 0 5.671 5.676c2.57 0 4.74-1.71 5.437-4.054H8.912V7.568h8.913s.033.845 0 1.614c0 .02-.003.046-.006.079z"/>
    </defs>
    <g fill="none" fill-rule="evenodd">
        <mask id="b" fill="#fff">
            <use xlink:href="#a"/>
        </mask>
        <use xlink:href="#a"/>
        <path fill="#3973F4" d="M14.35 10.542H8.911V7.568h8.913s-2.305 2.974-3.476 2.974z" mask="url(#b)"/>
    </g>
</svg>
