<svg xmlns="http://www.w3.org/2000/svg" width="21" height="22" viewBox="0 0 21 22">
    <g fill="#4A4A4A" fill-rule="nonzero">
        <path d="M15.68 0L3.09 12.497h4.68l-3.604 9.501L17.037 9.501h-4.68z"/>
        <path d="M10.063 2.668c.375 0 .749.047 1.123.094l1.451-1.451a9.474 9.474 0 0 0-2.574-.328C4.493.936 0 5.429 0 10.999a9.952 9.952 0 0 0 3.978 8.004l.656-1.685c-1.779-1.545-2.902-3.791-2.902-6.319 0-4.587 3.744-8.331 8.331-8.331zM16.007 2.902L15.4 4.634c1.825 1.544 2.995 3.838 2.995 6.365 0 4.587-3.744 8.332-8.33 8.332-.422 0-.89-.047-1.311-.094l-1.498 1.45c.89.235 1.778.375 2.761.375 5.57 0 10.063-4.493 10.063-10.063.047-3.323-1.591-6.272-4.072-8.097z"/>
    </g>
</svg>
