<svg xmlns="http://www.w3.org/2000/svg" width="48" height="48" viewBox="0 0 48 48">
    <g fill="none" fill-rule="evenodd">
        <circle cx="24" cy="24" r="24" fill="#000"/>
        <path fill="#FFF" fill-rule="nonzero" d="M35.364 17.76a13.04 13.04 0 0 0-4.776-4.757C28.577 11.834 26.38 11.25 24 11.25c-2.381 0-4.577.584-6.588 1.753a13.039 13.039 0 0 0-4.777 4.756c-1.173 2.003-1.76 4.19-1.76 6.56 0 2.848.834 5.41 2.504 7.684 1.669 2.274 3.825 3.848 6.468 4.722.308.057.535.017.683-.119a.664.664 0 0 0 .223-.51l-.009-.92a151.34 151.34 0 0 1-.009-1.514l-.393.068c-.25.046-.567.065-.948.06a7.256 7.256 0 0 1-1.188-.12 2.66 2.66 0 0 1-1.145-.51 2.16 2.16 0 0 1-.752-1.046l-.17-.392a4.25 4.25 0 0 0-.539-.867c-.245-.318-.493-.534-.743-.647l-.12-.085a1.253 1.253 0 0 1-.222-.205.933.933 0 0 1-.154-.238c-.034-.08-.006-.145.086-.196.09-.051.256-.076.495-.076l.342.05c.228.046.51.182.846.41.336.226.612.521.829.884.262.465.578.82.948 1.064.37.244.744.365 1.12.365.375 0 .7-.028.974-.084.273-.057.53-.143.769-.256.102-.76.381-1.345.837-1.753-.65-.068-1.233-.17-1.752-.306a6.991 6.991 0 0 1-1.606-.664 4.596 4.596 0 0 1-1.376-1.14c-.364-.454-.664-1.05-.897-1.787-.233-.738-.35-1.588-.35-2.553 0-1.373.45-2.541 1.35-3.506-.422-1.032-.382-2.189.12-3.47.33-.103.82-.026 1.47.229.649.255 1.124.474 1.426.655.302.181.544.335.727.46a12.183 12.183 0 0 1 3.28-.443c1.129 0 2.222.148 3.282.442l.65-.408a9.214 9.214 0 0 1 1.572-.749c.603-.226 1.065-.289 1.384-.187.513 1.282.559 2.44.137 3.472.9.964 1.35 2.133 1.35 3.505 0 .965-.117 1.818-.35 2.561-.234.744-.535 1.339-.906 1.787-.37.449-.832.826-1.384 1.132a7.004 7.004 0 0 1-1.607.664c-.518.136-1.102.238-1.751.306.592.51.888 1.316.888 2.417v3.59c0 .204.071.374.214.51.142.136.367.176.675.12 2.643-.874 4.8-2.448 6.468-4.723 1.67-2.274 2.504-4.835 2.504-7.683 0-2.37-.588-4.557-1.76-6.56z"/>
    </g>
</svg>
