<svg xmlns="http://www.w3.org/2000/svg" width="97" height="30" viewBox="0 0 97 30">
    <g fill="none" fill-rule="evenodd">
        <path fill="#4A4A4A" d="M53.905 16.236v5.133a7.496 7.496 0 0 1-2.151 1.088c-.762.24-1.598.359-2.506.359-1.076 0-2.047-.166-2.912-.5a6.416 6.416 0 0 1-2.217-1.4 6.107 6.107 0 0 1-1.414-2.16c-.33-.84-.494-1.764-.494-2.772 0-1.02.16-1.95.48-2.79.32-.84.777-1.56 1.368-2.161a6.076 6.076 0 0 1 2.156-1.396c.846-.33 1.792-.494 2.837-.494.529 0 1.02.039 1.475.116.454.078.874.19 1.26.336.385.147.743.324 1.073.532.33.209.638.444.924.705l-.513.821a.533.533 0 0 1-.313.238c-.128.035-.27.005-.425-.088-.149-.087-.32-.193-.513-.318a4.476 4.476 0 0 0-.705-.359 5.674 5.674 0 0 0-.98-.294 6.451 6.451 0 0 0-1.339-.121c-.753 0-1.434.123-2.044.368-.61.246-1.13.598-1.559 1.055a4.668 4.668 0 0 0-.989 1.661c-.23.65-.345 1.38-.345 2.189 0 .84.12 1.591.359 2.254a4.72 4.72 0 0 0 1.027 1.69c.445.463.984.816 1.619 1.059.635.242 1.347.364 2.137.364.623 0 1.175-.07 1.657-.21.482-.14.954-.335 1.414-.584v-2.94h-2.081a.395.395 0 0 1-.285-.102.335.335 0 0 1-.107-.252v-1.027h4.106zm4.135-3.024v9.455h-1.661v-9.455h1.661zm.355-2.968c0 .162-.033.313-.098.453-.066.14-.153.264-.262.373a1.2 1.2 0 0 1-.844.35c-.162 0-.313-.031-.453-.093a1.174 1.174 0 0 1-.369-.257 1.274 1.274 0 0 1-.252-.373 1.168 1.168 0 0 1 0-.915 1.24 1.24 0 0 1 .252-.383c.106-.109.229-.194.369-.256a1.168 1.168 0 0 1 .915 0 1.2 1.2 0 0 1 .382.256c.11.11.196.237.262.383.065.146.098.3.098.462zm5.273 12.572c-.747 0-1.32-.208-1.722-.625-.401-.417-.602-1.018-.602-1.802v-5.786h-1.139c-.1 0-.183-.03-.252-.089-.068-.06-.102-.15-.102-.275v-.663l1.549-.196.383-2.921a.368.368 0 0 1 .383-.317h.84v3.257h2.734v1.204h-2.735v5.674c0 .399.097.694.29.887.193.193.441.29.746.29.175 0 .325-.024.453-.07.128-.047.238-.099.331-.155.094-.056.173-.107.238-.154a.311.311 0 0 1 .173-.07c.087 0 .165.053.233.159l.486.793a3.095 3.095 0 0 1-1.036.63 3.518 3.518 0 0 1-1.251.229zm5.46-8.344c.404-.43.852-.772 1.344-1.027.492-.255 1.058-.382 1.699-.382.516 0 .972.085 1.367.256.395.171.725.414.99.728.264.315.464.693.601 1.134.137.442.206.93.206 1.466v6.02h-1.671v-6.02c0-.716-.163-1.271-.49-1.666-.327-.395-.823-.593-1.489-.593-.491 0-.95.118-1.376.355-.427.236-.82.557-1.181.961v6.963h-1.67V8.919h1.67v5.553zm16.52-1.26v9.455h-.99c-.236 0-.385-.115-.447-.346l-.131-1.017a5.2 5.2 0 0 1-1.381 1.097c-.51.277-1.095.415-1.755.415-.516 0-.972-.086-1.367-.257a2.71 2.71 0 0 1-.994-.723 3.072 3.072 0 0 1-.602-1.13c-.134-.441-.201-.93-.201-1.465v-6.029h1.661v6.03c0 .715.164 1.269.49 1.66.327.393.826.589 1.498.589.492 0 .95-.117 1.377-.35.426-.234.82-.556 1.18-.966v-6.963h1.662zm4.303 7.177c.305.411.639.7 1.003.868.364.168.764.252 1.2.252.89 0 1.57-.314 2.043-.942.473-.629.71-1.565.71-2.81 0-1.157-.21-2.008-.63-2.552-.42-.545-1.02-.817-1.797-.817-.541 0-1.013.124-1.414.373-.401.25-.773.6-1.115 1.055v4.573zm0-5.814c.398-.46.847-.828 1.348-1.102.501-.273 1.078-.41 1.732-.41.553 0 1.053.105 1.498.317a3.11 3.11 0 0 1 1.134.92c.31.4.549.888.714 1.46.165.572.247 1.216.247 1.932 0 .765-.093 1.462-.28 2.09-.187.63-.456 1.166-.807 1.61-.352.446-.78.79-1.284 1.037a3.825 3.825 0 0 1-1.698.368c-.623 0-1.147-.116-1.573-.35a3.44 3.44 0 0 1-1.115-.994l-.084.859c-.05.236-.193.355-.43.355H88.28V8.919h1.67v5.656z"/>
        <path fill="#000" fill-rule="nonzero" d="M28.811 7.658a15.342 15.342 0 0 0-5.62-5.596C20.827.687 18.244 0 15.442 0c-2.801 0-5.385.687-7.75 2.062a15.34 15.34 0 0 0-5.62 5.596C.69 10.014 0 12.586 0 15.376c0 3.35.982 6.363 2.945 9.039 1.964 2.676 4.5 4.528 7.61 5.556.362.066.63.02.804-.14a.781.781 0 0 0 .262-.6l-.01-1.082c-.007-.68-.01-1.275-.01-1.781l-.463.08a5.924 5.924 0 0 1-1.116.07 8.537 8.537 0 0 1-1.397-.14 3.129 3.129 0 0 1-1.347-.601 2.54 2.54 0 0 1-.885-1.231l-.2-.46a4.999 4.999 0 0 0-.634-1.022c-.288-.374-.58-.627-.875-.76l-.14-.1a1.474 1.474 0 0 1-.262-.241 1.098 1.098 0 0 1-.18-.28c-.04-.094-.007-.171.1-.231.107-.06.301-.09.583-.09l.402.06c.268.054.6.213.995.48.396.267.72.614.975 1.041.309.548.68.965 1.116 1.252.436.287.875.43 1.317.43.442 0 .824-.033 1.146-.1a4.01 4.01 0 0 0 .905-.3c.12-.895.449-1.582.985-2.062-.764-.08-1.451-.2-2.061-.36-.61-.161-1.24-.421-1.89-.782a5.407 5.407 0 0 1-1.618-1.341c-.43-.534-.781-1.235-1.056-2.102-.275-.868-.412-1.87-.412-3.004 0-1.615.53-2.99 1.589-4.124-.496-1.214-.45-2.576.14-4.084.389-.12.965-.03 1.73.27.763.3 1.323.558 1.678.771.355.213.64.394.855.54a14.333 14.333 0 0 1 3.86-.52c1.327 0 2.614.174 3.86.52l.765-.48a10.84 10.84 0 0 1 1.849-.88c.71-.268 1.253-.341 1.629-.22.603 1.507.657 2.869.16 4.083 1.06 1.135 1.59 2.51 1.59 4.125 0 1.134-.139 2.138-.413 3.013-.275.874-.63 1.574-1.065 2.102a5.616 5.616 0 0 1-1.63 1.331c-.65.36-1.28.62-1.89.781-.61.16-1.296.28-2.06.36.697.601 1.045 1.549 1.045 2.844v4.224c0 .24.084.44.252.6.167.16.432.207.794.14 3.11-1.028 5.647-2.88 7.61-5.556s2.945-5.689 2.945-9.039c0-2.789-.691-5.361-2.071-7.717z"/>
    </g>
</svg>
