<svg xmlns="http://www.w3.org/2000/svg" width="31" height="24" viewBox="0 0 31 24">
    <g fill="none" fill-rule="evenodd">
        <rect width="29.545" height="23" x=".5" y=".5" fill="#E2E2E2" stroke="#E2E2E2" rx="11.5"/>
        <path fill="#FFF" fill-rule="nonzero" d="M15 16c-.6 0-1-.4-1-1v-1c0-.6.4-1 1-1 1.7 0 3-1.3 3-3s-1.3-3-3-3-3 1.3-3 3c0 .6-.4 1-1 1s-1-.4-1-1c0-2.8 2.2-5 5-5s5 2.2 5 5c0 2.4-1.7 4.4-4 4.9v.1c0 .6-.4 1-1 1zm0 4c-.6 0-1-.4-1-1s.4-1 1-1 1 .4 1 1-.4 1-1 1z"/>
    </g>
</svg>
