<svg xmlns="http://www.w3.org/2000/svg" width="19" height="19" viewBox="0 0 19 19">
    <path fill="#000" fill-rule="nonzero" d="M9.442 14.682a.589.589 0 0 0-.518.576v1.151c0 .144.058.317.173.403.115.115.26.173.403.173a.568.568 0 0 0 .403-.173.568.568 0 0 0 .173-.403v-1.151a.586.586 0 0 0-.173-.432c-.144-.115-.288-.173-.46-.144zM15.2 8.924c-.144 0-.288.087-.403.202-.115.115-.144.259-.144.403 0 .144.086.288.202.403.115.115.259.144.403.144h1.151c.144 0 .317-.058.403-.173a.568.568 0 0 0 .173-.403.568.568 0 0 0-.173-.403c-.086-.115-.259-.173-.403-.173H15.2zm-12.667 0c-.144 0-.288.087-.403.202-.115.115-.144.259-.144.403 0 .144.087.288.202.403.115.115.259.144.403.144h1.151c.144 0 .317-.058.403-.173a.568.568 0 0 0 .173-.403.568.568 0 0 0-.173-.403c-.086-.115-.259-.173-.403-.173H2.533zm6.91-3.742a.589.589 0 0 0-.519.576V9.5c0 .144.058.288.173.403l3.167 3.167c.115.115.259.172.403.172.144 0 .316-.057.403-.172a.568.568 0 0 0 .172-.403.568.568 0 0 0-.172-.403L10.076 9.27V5.758a.586.586 0 0 0-.173-.432c-.144-.115-.288-.173-.46-.144zm0-3.167a.589.589 0 0 0-.519.576v1.151c0 .144.058.317.173.403.115.116.26.173.403.173a.568.568 0 0 0 .403-.173.568.568 0 0 0 .173-.403V2.591a.586.586 0 0 0-.173-.432c-.144-.115-.288-.173-.46-.144zM9.5 0C4.26 0 0 4.26 0 9.5S4.26 19 9.5 19 19 14.74 19 9.5c0-2.476-1.008-4.664-2.562-6.333h1.41c.144 0 .317-.058.404-.173a.568.568 0 0 0 .172-.403.568.568 0 0 0-.172-.403c-.087-.115-.26-.173-.404-.173h-2.936a.589.589 0 0 0-.518.576V5.47c0 .144.058.316.173.403.115.115.259.172.403.172a.568.568 0 0 0 .403-.172.568.568 0 0 0 .172-.403V3.886c1.411 1.469 2.303 3.426 2.303 5.614 0 4.606-3.742 8.348-8.348 8.348-4.606 0-8.348-3.742-8.348-8.348 0-4.606 3.742-8.348 8.348-8.348.317-.03.547-.26.547-.576 0-.317-.23-.547-.547-.576z"/>
</svg>
