<svg xmlns="http://www.w3.org/2000/svg" width="18" height="17" viewBox="0 0 18 17">
    <g fill="none" fill-rule="nonzero">
        <path fill="#E24329" d="M8.806 16.203l3.23-9.943h-6.46z"/>
        <path fill="#FC6D26" d="M8.806 16.203L5.576 6.26H1.047z"/>
        <path fill="#FCA326" d="M1.048 6.26L.066 9.282a.669.669 0 0 0 .243.748l8.497 6.173L1.048 6.26z"/>
        <path fill="#E24329" d="M1.048 6.26h4.527L3.63.272a.334.334 0 0 0-.636 0L1.048 6.26z"/>
        <path fill="#FC6D26" d="M8.806 16.203l3.23-9.943h4.528z"/>
        <path fill="#FCA326" d="M16.564 6.26l.981 3.022a.669.669 0 0 1-.243.748l-8.496 6.173 7.758-9.943z"/>
        <path fill="#E24329" d="M16.564 6.26h-4.528L13.982.272a.334.334 0 0 1 .636 0l1.946 5.988z"/>
    </g>
</svg>
