<svg xmlns="http://www.w3.org/2000/svg" width="19" height="18" viewBox="0 0 19 18">
    <path fill="#000" fill-rule="nonzero" d="M17.287 4.595a9.205 9.205 0 0 0-3.372-3.358C12.495.412 10.945 0 9.265 0c-1.681 0-3.231.412-4.65 1.237a9.204 9.204 0 0 0-3.372 3.358A8.995 8.995 0 0 0 0 9.225c0 2.01.589 3.818 1.767 5.424 1.178 1.606 2.7 2.717 4.566 3.333.217.04.378.012.483-.084a.469.469 0 0 0 .156-.36l-.006-.649c-.004-.408-.006-.764-.006-1.068l-.277.047c-.177.033-.4.046-.67.042a5.122 5.122 0 0 1-.838-.084 1.877 1.877 0 0 1-.808-.36 1.524 1.524 0 0 1-.531-.738l-.12-.277a3 3 0 0 0-.38-.612c-.174-.225-.348-.377-.525-.457l-.085-.06a.884.884 0 0 1-.157-.144.659.659 0 0 1-.108-.169c-.024-.056-.004-.102.06-.138.065-.036.181-.054.35-.054l.241.036c.161.032.36.128.597.289.238.16.433.368.585.624.185.328.408.579.67.75.261.173.525.26.79.26s.494-.021.688-.06c.192-.04.373-.101.542-.181.073-.537.27-.95.591-1.237a8.292 8.292 0 0 1-1.236-.217 4.935 4.935 0 0 1-1.134-.468 3.244 3.244 0 0 1-.971-.805c-.257-.32-.469-.741-.633-1.261-.165-.521-.248-1.122-.248-1.802 0-.97.318-1.794.954-2.475-.298-.729-.27-1.545.084-2.45.233-.073.579-.018 1.037.162.459.18.794.334 1.008.462.213.128.384.237.512.325a8.6 8.6 0 0 1 2.317-.313c.796 0 1.568.104 2.316.313l.458-.289a6.504 6.504 0 0 1 1.11-.528c.426-.16.752-.204.977-.132.362.905.394 1.721.097 2.45.635.68.953 1.506.953 2.475 0 .68-.083 1.283-.247 1.808-.165.524-.378.944-.64 1.26a3.37 3.37 0 0 1-.977.8c-.39.216-.768.372-1.134.468a8.283 8.283 0 0 1-1.236.217c.418.36.627.929.627 1.705v2.535c0 .144.05.264.15.36.101.096.26.124.477.084 1.866-.617 3.388-1.728 4.566-3.333 1.178-1.606 1.767-3.414 1.767-5.424a9.002 9.002 0 0 0-1.242-4.63z"/>
</svg>
