<svg xmlns="http://www.w3.org/2000/svg" width="21" height="21" viewBox="0 0 21 21">
    <defs>
        <radialGradient id="a" cx="49.317%" cy="41.702%" r="51.834%" fx="49.317%" fy="41.702%" gradientTransform="matrix(.61534 .77112 -.78826 .60196 .518 -.214)">
            <stop offset="0%" stop-color="#89EAFE"/>
            <stop offset="26.24%" stop-color="#86E8FD"/>
            <stop offset="43.57%" stop-color="#7DDFF9"/>
            <stop offset="58.32%" stop-color="#6ED2F2"/>
            <stop offset="71.63%" stop-color="#59BEE9"/>
            <stop offset="83.97%" stop-color="#3EA5DD"/>
            <stop offset="95.44%" stop-color="#1C87CF"/>
            <stop offset="100%" stop-color="#0D79C8"/>
        </radialGradient>
        <linearGradient id="b" x1="66.864%" x2="23.22%" y1="3.815%" y2="105.226%">
            <stop offset="0%" stop-color="#FFB700"/>
            <stop offset="85.99%" stop-color="#FFB700" stop-opacity="0"/>
        </linearGradient>
        <linearGradient id="c" x1="1.966%" x2="68.95%" y1="85.798%" y2="29.407%">
            <stop offset="0%" stop-color="#FFB700"/>
            <stop offset="100%" stop-color="#FFB700" stop-opacity="0"/>
        </linearGradient>
    </defs>
    <g fill="none" fill-rule="nonzero">
        <path fill="#2064A9" d="M7.584 9.548H15.6c-.17-2.242-1.805-3.827-4.06-3.827-2.015 0-3.697 1.66-3.957 3.827zm-.097.041c.245-2.237 1.975-3.961 4.054-3.961 2.32 0 4.003 1.646 4.154 3.964l.003.05H7.482l.005-.053zm.084 2.638c.043.982.417 1.984 1.046 2.73.72.852 1.717 1.323 2.914 1.292 1.775-.044 3.036-.793 3.648-2.083l5.256-.026-.022.062c-1.321 3.783-4.832 6.36-8.826 6.36-5.175 0-9.368-4.287-9.368-9.577S6.412 1.41 11.587 1.41c5.174 0 9.367 4.287 9.367 9.576 0 .393-.024.783-.073 1.2l-13.31.042zm3.962 4.116c-1.224.03-2.248-.452-2.985-1.326-.653-.774-1.036-1.817-1.07-2.835l13.317-.049c.045-.399.068-.772.068-1.148 0-5.238-4.152-9.482-9.276-9.482-5.125 0-9.277 4.244-9.277 9.482 0 5.239 4.152 9.483 9.277 9.483 3.933 0 7.393-2.523 8.718-6.235h-5.056c-.633 1.307-1.92 2.065-3.716 2.11z"/>
        <path fill="url(#a)" d="M5.341 8.195C5.58 6.02 7.26 4.275 9.35 4.275c2.346 0 3.962 1.68 4.108 3.92H5.341zm7.688 4.592c-.593 1.25-1.826 2.062-3.689 2.109-2.583.065-3.944-2.184-4.008-4.116h13.312c.046-.392.073-.784.073-1.195 0-5.264-4.172-9.529-9.322-9.529-5.15 0-9.322 4.265-9.322 9.53 0 5.263 4.173 9.529 9.322 9.529 4.054 0 7.496-2.642 8.784-6.328h-5.15z" transform="translate(2.191 1.4)"/>
        <g>
            <path fill="url(#b)" fill-opacity=".95" d="M19.859 4.545c-.073.29-.146.542-.192.756-.037.168-.055.663-.055.663s.347-.224.43-.336c.072-.103.173-.541.264-.98l-.447-.103z"/>
            <path fill="#FFB700" fill-opacity=".95" d="M20.324 4.667c.064-.29.119-.588.146-.794.12-.756.366-4.788-4.903-3.64C8.5 1.764 4.593 7.43 3.972 8.213 2.794 9.707-.712 15.475.21 19.021c.539 2.072 2.693 2.063 4.264 1.736l-.11-.569c-2.666.439-3.067-1.633-2.702-3.248.447-2.016 1.899-5.33 6.592-9.996C12.417 2.8 16.837.485 19.137 1.634c1.224.606.986 1.922.722 2.93l.465.103z"/>
            <path fill="#FFFFA6" d="M15.567.233C8.5 1.764 4.593 7.43 3.972 8.213c-.74.934-2.383 3.547-3.287 6.235-.055.215-.119.43-.192.616C3.397 7.457 10.61 2.072 15.85.177c-.09.019-.191.038-.283.056z"/>
            <path fill="url(#c)" fill-opacity=".95" d="M4.474 20.748c.858-.187 1.561-.467 1.716-.55.147-.085.649-.365 1.105-.645l-.402-.233c-.219.084-.474.187-.757.308-.667.28-1.27.457-1.772.532l.11.588z"/>
        </g>
    </g>
</svg>
