<svg xmlns="http://www.w3.org/2000/svg" width="48" height="48" viewBox="0 0 48 48">
    <g fill="none" fill-rule="evenodd">
        <rect width="48" height="48" fill="#2D3955" rx="24"/>
        <path fill="#FFF" d="M35.192 31.05l-.007 6.668-6.752-2.918H16.805a4 4 0 0 1-4.005-3.998V15.998A4.003 4.003 0 0 1 16.805 12h14.39a4 4 0 0 1 4.005 3.998v14.804c0 .083-.003.166-.008.247zm-19.156-2.903c-.194.247-.187.685-.012 1.013.174.328 3.703 2.427 8.094 2.427s7.652-2.056 7.926-2.427.366-.639 0-.978c-.367-.34-.51-.2-.986.014-.475.215-3.592 2.069-7.008 2.037-3.416-.031-6.284-1.627-6.87-2.165-.585-.538-.95-.167-1.144.08z"/>
    </g>
</svg>
