<svg xmlns="http://www.w3.org/2000/svg" width="24" height="24" viewBox="0 0 24 24">
    <path fill="#818A99" fill-rule="nonzero" d="M22.656 13.676h-3.22a7.242 7.242 0 0 0-1.513-3.692l2.551-2.025a.76.76 0 1 0-.953-1.183L16.85 8.894a7.705 7.705 0 0 0-.545-.411 4.2 4.2 0 0 0-1.98-4.733l.909-1.656a.757.757 0 0 0-1.323-.732l-1.035 1.87a3.892 3.892 0 0 0-1.352 0l-1.035-1.87a.757.757 0 0 0-1.308.744l.908 1.644a4.2 4.2 0 0 0-1.976 4.727c-.188.129-.37.266-.545.411L4.895 6.77a.757.757 0 0 0-.941 1.186l2.55 2.025a7.242 7.242 0 0 0-1.512 3.692H1.757a.757.757 0 1 0 0 1.513H4.96a7.239 7.239 0 0 0 1.474 3.74L3.951 20.9a.757.757 0 0 0 .94 1.186l2.591-2.058a7.245 7.245 0 0 0 4.54 1.743h.184a7.245 7.245 0 0 0 4.725-1.74l2.59 2.058a.757.757 0 1 0 .941-1.186l-2.484-1.973a7.239 7.239 0 0 0 1.473-3.74h3.205a.757.757 0 1 0 0-1.514zM9.501 7.744a2.724 2.724 0 1 1 5.414 0h-.036a7.964 7.964 0 0 0-.606-.208h-.036a7.342 7.342 0 0 0-.641-.155h-.028a6.786 6.786 0 0 0-.66-.094h-.03a7.033 7.033 0 0 0-.672-.033c-.227 0-.45 0-.671.033h-.03a7.865 7.865 0 0 0-.66.094h-.028c-.218.043-.43.094-.641.155h-.037c-.201.06-.403.13-.605.208h-.033zm3.31 12.49v-8.356a.757.757 0 1 0-1.512 0v8.31A5.75 5.75 0 0 1 9.425 9.446l.082-.042c.112-.06.23-.115.345-.167l.166-.072.21-.076a5.916 5.916 0 0 1 3.933 0l.21.076.166.072c.118.052.233.106.345.167l.081.042a5.75 5.75 0 0 1-2.151 10.789z"/>
</svg>
