<svg xmlns="http://www.w3.org/2000/svg" width="31" height="24" viewBox="0 0 31 24">
    <g fill="none" fill-rule="evenodd">
        <rect width="30.545" height="24" fill="#FF6565" rx="12"/>
        <path fill="#FFF" fill-rule="nonzero" d="M22.752 7.766a1.12 1.12 0 0 0-1.174.11l-2.102 1.596v-.529l-.004-.07A2.102 2.102 0 0 0 17.38 7H9.606A2.108 2.108 0 0 0 7.5 9.106v5.63c0 1.161.945 2.106 2.106 2.106h7.774a2.102 2.102 0 0 0 2.092-1.873v-.601l2.106 1.597a1.12 1.12 0 0 0 1.796-.892V8.77c0-.426-.241-.814-.622-1.003zm-4.558 7.092a.822.822 0 0 1-.814.702H9.606a.825.825 0 0 1-.824-.824v-5.63c0-.455.37-.824.824-.824h7.774c.41 0 .755.3.814.702v5.874z"/>
    </g>
</svg>
