<svg xmlns="http://www.w3.org/2000/svg" width="148" height="27" viewBox="0 0 148 27">
    <g fill="none" fill-rule="evenodd">
        <path fill="#0EBAC5" fill-rule="nonzero" d="M17.828 3.722l4.77 2.744.26.148a1.384 1.384 0 0 1 .694 1.207l.001 5.842a.375.375 0 0 1-.562.325l-2.025-1.165a.375.375 0 0 1-.188-.325v-3.89L16.51 6.153a10.97 10.97 0 0 1-.324-.183l-4.08-2.35-4.254 2.444-.083.053-.258.149-4.078 2.343v9.978l4.269 2.455.32.182.903.511.15.087c.116.067.188.19.188.324v2.32a.375.375 0 0 1-.562.325l-.444-.255-1.613-.915-.258-.145-4.775-2.747-.258-.148a1.383 1.383 0 0 1-.694-1.207l-.002-5.776V7.812c0-.261.075-.514.212-.731.136-.22.333-.398.544-.5l4.71-2.71.256-.148.26-.148L11.153.982l.26-.154a1.389 1.389 0 0 1 1.458.046l4.697 2.701.26.147zm2.95 13.032v-1.379c0-.288.311-.469.561-.325l2.026 1.16a.375.375 0 0 1 .188.326v2.266a.375.375 0 0 1-.107.262l-.974.99c-.263.334-.652.513-1.017.304L13.54 15.79l-.001 8.66a.67.67 0 0 1-.249.582c-.004.003-.471.38-1.402 1.127a.674.674 0 0 1-1.13-.493l.001-11.475-1.527-.879-.791.454c-.02.015-.057.036-.65.376a.677.677 0 0 1-.936-.233l-.357-.614-.354-.608a.675.675 0 0 1 .235-.937L7 11.395l1.544-.884.3-.17a.674.674 0 0 1 .726-.033l.353.204 10.855 6.242z"/>
        <path fill="#0EBAC5" d="M29.942 20.169a.418.418 0 0 1-.304-.13.415.415 0 0 1-.13-.303V8.484a.432.432 0 0 1 .435-.433h2.432c.128 0 .232.041.313.122a.42.42 0 0 1 .121.311v8.967h5.214c.127 0 .235.044.321.13.087.087.13.193.13.32v1.835c0 .127-.043.231-.13.312a.454.454 0 0 1-.32.121h-8.082zm9.315 0a.348.348 0 0 1-.252-.113.346.346 0 0 1-.113-.25c0-.07.006-.122.017-.156l4.05-11.096c.115-.335.347-.502.694-.502h2.711c.348 0 .58.167.695.502l4.05 11.096a.52.52 0 0 1 .017.155.347.347 0 0 1-.113.251.349.349 0 0 1-.252.113H48.5a.603.603 0 0 1-.59-.38l-.626-1.68h-4.553l-.625 1.68a.603.603 0 0 1-.591.38h-2.26zm4.205-4.656h3.093l-1.546-4.415-1.547 4.415zm9.436 4.656a.455.455 0 0 1-.321-.121.407.407 0 0 1-.13-.312V8.502c0-.127.043-.234.13-.32a.438.438 0 0 1 .321-.13h1.964a.65.65 0 0 1 .626.38l2.989 5.332 3.006-5.332a.65.65 0 0 1 .626-.38h1.964c.127 0 .234.043.321.13.087.086.13.193.13.32v11.234c0 .127-.043.231-.13.312a.455.455 0 0 1-.321.121h-2.208a.418.418 0 0 1-.304-.13.415.415 0 0 1-.13-.303v-6.3l-1.877 3.427c-.15.265-.353.398-.608.398h-.938c-.232 0-.435-.133-.609-.398l-1.86-3.428v6.301c0 .127-.043.231-.13.312a.455.455 0 0 1-.32.121h-2.19zm14.424 0a.417.417 0 0 1-.304-.13.415.415 0 0 1-.13-.303V8.502a.45.45 0 0 1 .121-.32.41.41 0 0 1 .313-.13h5.37c1.471 0 2.566.3 3.285.9.718.6 1.077 1.454 1.077 2.562 0 .554-.148 1.033-.443 1.436-.296.404-.623.699-.982.883.475.208.875.551 1.2 1.03.323.48.486 1.019.486 1.619 0 1.165-.386 2.071-1.156 2.718-.77.646-1.874.969-3.31.969h-5.527zm5.005-7.322c.429 0 .759-.116.99-.347.232-.23.348-.53.348-.9 0-.357-.113-.649-.339-.874-.226-.225-.559-.337-1-.337h-2.171v2.458h2.172zm.156 4.985c.452 0 .803-.13 1.052-.39.249-.259.374-.58.374-.96a1.34 1.34 0 0 0-.383-.978c-.255-.26-.602-.39-1.043-.39h-2.328v2.718h2.328zm7.125 2.337a.418.418 0 0 1-.304-.13.415.415 0 0 1-.13-.303V8.502a.45.45 0 0 1 .122-.32.41.41 0 0 1 .312-.13h4.571c1.715 0 3.047.406 3.997 1.22.95.814 1.448 1.982 1.494 3.505.012.335.018.78.018 1.333 0 .554-.006.993-.018 1.316-.116 3.162-1.917 4.743-5.404 4.743h-4.658zm4.571-2.597c.73 0 1.268-.173 1.616-.519.348-.346.533-.9.556-1.662.023-.334.035-.767.035-1.298 0-.53-.012-.958-.035-1.28-.023-.74-.223-1.285-.6-1.637-.376-.352-.929-.528-1.659-.528h-1.651v6.924h1.738zm6.812 2.597a.349.349 0 0 1-.252-.113.346.346 0 0 1-.113-.25.52.52 0 0 1 .017-.156l4.05-11.096c.115-.335.347-.502.695-.502h2.71c.348 0 .58.167.696.502l4.049 11.096a.522.522 0 0 1 .017.155.347.347 0 0 1-.113.251.348.348 0 0 1-.252.113h-2.259a.603.603 0 0 1-.59-.38l-.626-1.68h-4.554l-.625 1.68a.602.602 0 0 1-.59.38h-2.26zm4.206-4.656h3.093l-1.547-4.415-1.546 4.415z"/>
        <path fill="#343534" d="M107.309 20.169a.455.455 0 0 1-.322-.121.406.406 0 0 1-.13-.312v-8.863H103.8a.455.455 0 0 1-.322-.12.406.406 0 0 1-.13-.312V8.5c0-.126.043-.233.13-.32a.438.438 0 0 1 .322-.13h9.436c.127 0 .234.044.321.13.087.087.13.194.13.32v1.94c0 .127-.043.23-.13.311a.455.455 0 0 1-.321.121h-3.059v8.863c0 .127-.043.231-.13.312a.455.455 0 0 1-.321.121h-2.416zm8.341 0a.418.418 0 0 1-.304-.13.415.415 0 0 1-.13-.303V8.502a.45.45 0 0 1 .122-.32.41.41 0 0 1 .312-.13h8.203c.127 0 .234.043.321.13.087.086.13.193.13.32v1.714c0 .127-.043.23-.13.31a.454.454 0 0 1-.321.122h-5.491v2.199h5.108c.128 0 .235.043.322.13.087.086.13.193.13.32v1.575a.434.434 0 0 1-.13.32.44.44 0 0 1-.322.13h-5.108v2.25h5.63c.127 0 .234.044.321.13.087.087.13.193.13.32v1.714c0 .127-.043.231-.13.312a.455.455 0 0 1-.321.121h-8.342zm15.328.173c-1.124 0-2.08-.161-2.868-.485-.787-.323-1.384-.75-1.79-1.28-.405-.531-.62-1.108-.642-1.732 0-.103.037-.19.112-.26a.385.385 0 0 1 .27-.103h2.311a.72.72 0 0 1 .339.07c.087.045.182.126.287.241.15.277.385.505.703.684.32.18.745.268 1.278.268.626 0 1.106-.095 1.442-.285.336-.19.504-.453.504-.788a.766.766 0 0 0-.26-.597c-.174-.156-.452-.294-.835-.415a18.07 18.07 0 0 0-1.65-.407c-1.402-.277-2.45-.698-3.146-1.264-.695-.565-1.043-1.373-1.043-2.423 0-.716.2-1.353.6-1.913.4-.56.967-.995 1.703-1.307.735-.312 1.59-.467 2.563-.467 1.02 0 1.903.176 2.65.527.747.353 1.321.791 1.72 1.316.4.525.612 1.042.635 1.55a.381.381 0 0 1-.104.268.34.34 0 0 1-.26.112h-2.434a.67.67 0 0 1-.59-.311c-.07-.243-.25-.447-.54-.615-.289-.167-.648-.25-1.077-.25-.486 0-.863.086-1.13.259-.266.173-.4.427-.4.761 0 .335.175.598.522.788.348.19.997.384 1.946.58 1.09.196 1.956.441 2.598.736.643.294 1.118.675 1.425 1.142.308.468.46 1.06.46 1.775 0 .784-.225 1.465-.677 2.042-.451.577-1.077 1.018-1.877 1.324-.799.306-1.714.459-2.745.459zm10.096-.173a.454.454 0 0 1-.321-.121.406.406 0 0 1-.13-.312v-8.863h-3.059a.454.454 0 0 1-.321-.12.406.406 0 0 1-.13-.312V8.5c0-.126.043-.233.13-.32a.437.437 0 0 1 .321-.13H147c.128 0 .235.044.322.13.087.087.13.194.13.32v1.94c0 .127-.043.23-.13.311a.454.454 0 0 1-.322.121h-3.058v8.863c0 .127-.044.231-.13.312a.454.454 0 0 1-.322.121h-2.416z"/>
    </g>
</svg>
