<svg xmlns="http://www.w3.org/2000/svg" width="21" height="21" viewBox="0 0 21 21">
    <g fill="none" fill-rule="evenodd">
        <rect width="21" height="21" fill="#0EBAC5" rx="5"/>
        <path fill="#FFF" fill-rule="nonzero" d="M13.27 10.148l-2.768-3.69a.56.56 0 0 0-.792-.113.56.56 0 0 0-.113.791l2.091 2.789H5.565A.569.569 0 0 0 5 10.49v.02c0 .31.256.565.565.565h6.123l-2.09 2.79a.56.56 0 0 0 .112.79.56.56 0 0 0 .792-.113l2.769-3.693c.08-.1.116-.226.116-.349a.568.568 0 0 0-.116-.352zM15.328 6.18c-.309 0-.565.28-.565.618v7.456a.565.565 0 1 0 1.13 0V6.798c0-.339-.252-.618-.565-.618z"/>
    </g>
</svg>
