<svg xmlns="http://www.w3.org/2000/svg" width="22" height="22" viewBox="0 0 22 22">
    <defs>
        <radialGradient id="a" cx="86.85%" cy="30.027%" r="184.024%" fx="86.85%" fy="30.027%" gradientTransform="scale(1 .36288) rotate(2.555 -10.953 .564)">
            <stop offset="4.5%" stop-color="#FFEA00"/>
            <stop offset="12%" stop-color="#FFDE00"/>
            <stop offset="25.4%" stop-color="#FFBF00"/>
            <stop offset="42.9%" stop-color="#FF8E00"/>
            <stop offset="76.9%" stop-color="#FF272D"/>
            <stop offset="87.2%" stop-color="#E0255A"/>
            <stop offset="95.3%" stop-color="#CC2477"/>
            <stop offset="100%" stop-color="#C42482"/>
        </radialGradient>
        <radialGradient id="b" cx="70.828%" cy="12.393%" r="109.234%" fx="70.828%" fy="12.393%" gradientTransform="matrix(1 0 0 .9947 0 0)">
            <stop offset="0%" stop-color="#00CCDA"/>
            <stop offset="22%" stop-color="#0083FF"/>
            <stop offset="26.1%" stop-color="#007AF9"/>
            <stop offset="33%" stop-color="#0060E8"/>
            <stop offset="33.3%" stop-color="#005FE7"/>
            <stop offset="43.8%" stop-color="#2639AD"/>
            <stop offset="52.2%" stop-color="#401E84"/>
            <stop offset="56.6%" stop-color="#4A1475"/>
        </radialGradient>
        <linearGradient id="c" x1="57.339%" x2="35.146%" y1="75.22%" y2="6.805%">
            <stop offset="0%" stop-color="#000F43" stop-opacity=".4"/>
            <stop offset="48.5%" stop-color="#001962" stop-opacity=".173"/>
            <stop offset="100%" stop-color="#002079" stop-opacity="0"/>
        </linearGradient>
        <radialGradient id="d" cx="147.727%" cy="-21.664%" r="171.815%" fx="147.727%" fy="-21.664%" gradientTransform="scale(.92332 1) rotate(5.762 1.539 1.002)">
            <stop offset=".3%" stop-color="#FFEA00"/>
            <stop offset="49.7%" stop-color="#FF272D"/>
            <stop offset="100%" stop-color="#C42482"/>
        </radialGradient>
        <radialGradient id="e" cx="135.976%" cy="-52.131%" r="453.896%" fx="135.976%" fy="-52.131%" gradientTransform="scale(1 .54148) rotate(5.762 5.746 -.742)">
            <stop offset=".3%" stop-color="#FFE900"/>
            <stop offset="15.7%" stop-color="#FFAF0E"/>
            <stop offset="31.6%" stop-color="#FF7A1B"/>
            <stop offset="47.2%" stop-color="#FF4E26"/>
            <stop offset="62.1%" stop-color="#FF2C2E"/>
            <stop offset="76.2%" stop-color="#FF1434"/>
            <stop offset="89.2%" stop-color="#FF0538"/>
            <stop offset="100%" stop-color="#FF0039"/>
        </radialGradient>
        <radialGradient id="f" cx="211.883%" cy="2.145%" r="377.539%" fx="211.883%" fy="2.145%" gradientTransform="scale(.53347 1) rotate(5.762 3.045 18.432)">
            <stop offset=".3%" stop-color="#FF272D"/>
            <stop offset="49.7%" stop-color="#C42482"/>
            <stop offset="98.6%" stop-color="#620700"/>
        </radialGradient>
        <radialGradient id="g" cx="89.956%" cy="39.179%" r="65.47%" fx="89.956%" fy="39.179%" gradientTransform="matrix(1 0 0 .95947 0 .016)">
            <stop offset="0%" stop-color="#FFEA00"/>
            <stop offset="23.1%" stop-color="#FFDE00"/>
            <stop offset="36.5%" stop-color="#FFBF00"/>
            <stop offset="54.1%" stop-color="#FF8E00"/>
            <stop offset="100%" stop-color="#FF2D18"/>
        </radialGradient>
        <radialGradient id="h" cx="24.953%" cy=".138%" r="249.815%" fx="24.953%" fy=".138%" gradientTransform="matrix(1 0 0 .39648 0 0)">
            <stop offset="27.9%" stop-color="#FFEA00"/>
            <stop offset="40.2%" stop-color="#FD0"/>
            <stop offset="63%" stop-color="#FFBA00"/>
            <stop offset="85.6%" stop-color="#FF9100"/>
            <stop offset="93.3%" stop-color="#FF6711"/>
            <stop offset="99.4%" stop-color="#FF4A1D"/>
        </radialGradient>
        <linearGradient id="i" x1="-121.603%" x2="142.342%" y1="64.455%" y2="29.666%">
            <stop offset="0%" stop-color="#C42482" stop-opacity=".5"/>
            <stop offset="47.4%" stop-color="#FF272D" stop-opacity=".5"/>
            <stop offset="48.6%" stop-color="#FF2C2C" stop-opacity=".513"/>
            <stop offset="67.5%" stop-color="#FF7A1A" stop-opacity=".72"/>
            <stop offset="82.9%" stop-color="#FFB20D" stop-opacity=".871"/>
            <stop offset="94.2%" stop-color="#FFD605" stop-opacity=".964"/>
            <stop offset="100%" stop-color="#FFE302"/>
        </linearGradient>
        <linearGradient id="j" x1="56.498%" x2="19.49%" y1="94.893%" y2="5.478%">
            <stop offset="0%" stop-color="#891551" stop-opacity=".6"/>
            <stop offset="100%" stop-color="#C42482" stop-opacity="0"/>
        </linearGradient>
        <linearGradient id="k" x1="8.04%" x2="47.914%" y1="6.686%" y2="47.886%">
            <stop offset=".5%" stop-color="#891551" stop-opacity=".5"/>
            <stop offset="48.4%" stop-color="#FF272D" stop-opacity=".5"/>
            <stop offset="100%" stop-color="#FF272D" stop-opacity="0"/>
        </linearGradient>
        <linearGradient id="l" x1="47.509%" x2="50.009%" y1="102.675%" y2="31.749%">
            <stop offset="0%" stop-color="#C42482"/>
            <stop offset="8.3%" stop-color="#C42482" stop-opacity=".81"/>
            <stop offset="20.6%" stop-color="#C42482" stop-opacity=".565"/>
            <stop offset="32.8%" stop-color="#C42482" stop-opacity=".362"/>
            <stop offset="44.7%" stop-color="#C42482" stop-opacity=".204"/>
            <stop offset="56.2%" stop-color="#C42482" stop-opacity=".091"/>
            <stop offset="67.3%" stop-color="#C42482" stop-opacity=".023"/>
            <stop offset="77.3%" stop-color="#C42482" stop-opacity="0"/>
        </linearGradient>
        <linearGradient id="m" x1="6.334%" x2="92.351%" y1="1.647%" y2="89.461%">
            <stop offset="0%" stop-color="#FFF14F"/>
            <stop offset="26.8%" stop-color="#FFEE4C"/>
            <stop offset="45.2%" stop-color="#FFE643"/>
            <stop offset="61.2%" stop-color="#FFD834"/>
            <stop offset="75.7%" stop-color="#FFC41E"/>
            <stop offset="89.2%" stop-color="#FFAB02"/>
            <stop offset="90.2%" stop-color="#FFA900"/>
            <stop offset="94.9%" stop-color="#FFA000"/>
            <stop offset="100%" stop-color="#FF9100"/>
        </linearGradient>
        <linearGradient id="n" x1="71.789%" x2="42.746%" y1="7.159%" y2="81.948%">
            <stop offset="0%" stop-color="#FF8E00"/>
            <stop offset="4%" stop-color="#FF8E00" stop-opacity=".858"/>
            <stop offset="8.4%" stop-color="#FF8E00" stop-opacity=".729"/>
            <stop offset="13%" stop-color="#FF8E00" stop-opacity=".628"/>
            <stop offset="17.8%" stop-color="#FF8E00" stop-opacity=".557"/>
            <stop offset="22.7%" stop-color="#FF8E00" stop-opacity=".514"/>
            <stop offset="28.2%" stop-color="#FF8E00" stop-opacity=".5"/>
            <stop offset="38.9%" stop-color="#FF8E00" stop-opacity=".478"/>
            <stop offset="52.4%" stop-color="#FF8E00" stop-opacity=".416"/>
            <stop offset="67.6%" stop-color="#FF8E00" stop-opacity=".314"/>
            <stop offset="83.8%" stop-color="#FF8E00" stop-opacity=".172"/>
            <stop offset="100%" stop-color="#FF8E00" stop-opacity="0"/>
        </linearGradient>
    </defs>
    <g fill="none" fill-rule="nonzero">
        <path fill="url(#a)" d="M16.956 2.015c-.527.614-.773 1.996-.238 3.396.534 1.4 1.354 1.096 1.864 2.524.674 1.885.36 4.416.36 4.416s.811 2.346 1.376-.146c1.25-4.682-3.362-9.037-3.362-10.19z" transform="translate(.82)"/>
        <path fill="url(#b)" d="M10.524 21.454c5.398 0 9.771-4.396 9.771-9.818 0-5.421-4.373-9.818-9.766-9.818S.763 6.215.763 11.636c-.01 5.427 4.368 9.818 9.76 9.818z" transform="translate(.82)"/>
        <path fill="url(#c)" d="M17.845 17.69a5.435 5.435 0 0 1-.663.4c.305-.447.586-.91.843-1.386.208-.23.399-.454.554-.696.076-.12.161-.266.252-.437.548-.988 1.153-2.587 1.17-4.23v-.004-.122a5.67 5.67 0 0 0-.125-1.227l.012.095-.014-.073.022.131c.112.952.032 1.88-.368 2.564l-.019.029c.207-1.04.277-2.188.046-3.337 0 0-.092-.56-.779-2.255-.395-.977-1.097-1.777-1.717-2.36-.543-.673-1.037-1.124-1.309-1.41-.568-.599-.806-1.047-.904-1.34-.085-.043-1.17-1.097-1.256-1.137-.474.734-1.963 3.03-1.254 5.176.32.973 1.133 1.982 1.982 2.548.038.043.506.551.729 1.698.23 1.186.109 2.11-.365 3.478-.556 1.2-1.982 2.386-3.317 2.507-2.855.26-3.9-1.433-3.9-1.433 1.02.408 2.148.323 2.834-.1.69-.428 1.109-.745 1.448-.62.335.125.601-.237.362-.611a1.728 1.728 0 0 0-1.748-.761c-.692.112-1.325.66-2.232.13a1.883 1.883 0 0 1-.17-.112c-.06-.039.194.06.135.015a4.432 4.432 0 0 1-.57-.379c-.013-.012.137.048.124.036-.848-.698-.742-1.17-.716-1.465.022-.237.176-.54.435-.663.126.068.204.12.204.12l-.083-.166c.01-.005.02-.004.03-.008.103.05.33.178.45.257.155.11.205.208.205.208s.04-.023.01-.119a.615.615 0 0 0-.212-.29l.01.001c.092.053.18.114.26.182.044-.158.122-.323.105-.619-.01-.207-.005-.26-.042-.341-.033-.069.018-.096.075-.024a.723.723 0 0 0-.048-.163V9.37c.071-.247 1.502-.89 1.607-.965.17-.121.314-.278.42-.458.08-.127.14-.305.155-.575.008-.195-.083-.324-1.53-.476-.396-.039-.628-.326-.76-.59a3.86 3.86 0 0 0-.073-.16 1.277 1.277 0 0 1-.057-.186 3.474 3.474 0 0 1 1.219-1.689c.032-.029-.127.008-.095-.021.037-.034.28-.132.325-.154.056-.026-.24-.152-.5-.121-.266.03-.322.062-.464.122.059-.059.246-.136.202-.135-.286.044-.642.21-.947.399 0-.033.006-.066.019-.096-.142.06-.49.304-.592.51a.976.976 0 0 0 .006-.12 1.86 1.86 0 0 0-.29.305l-.006.005c-.822-.332-1.546-.353-2.158-.205-.134-.134-.2-.036-.504-.705-.02-.04.016.04 0 0-.05-.13.03.173 0 0-.513.404-1.187.862-1.51 1.186-.005.013.377-.108 0 0-.133.038-.124.116-.144.825-.005.054 0 .114-.005.163-.259.33-.435.608-.501.753-.335.576-.703 1.474-1.06 2.895a7.36 7.36 0 0 1 .567-1.109c-.297.754-.584 1.939-.641 3.763.072-.376.164-.749.276-1.115-.07 1.513.19 3.024.765 4.426.205.502.545 1.264 1.123 2.1a9.927 9.927 0 0 0 7.217 3.101 9.936 9.936 0 0 0 7.45-3.354z" transform="translate(.82)"/>
        <path fill="url(#d)" d="M15.653 19.078c3.585-.415 5.172-4.11 3.134-4.182-1.84-.059-4.832 4.378-3.134 4.182z" transform="translate(.82)"/>
        <path fill="url(#e)" d="M19.045 14.141c2.467-1.435 1.824-4.536 1.824-4.536s-.952 1.106-1.599 2.869c-.639 1.745-1.708 2.534-.225 1.667z" transform="translate(.82)"/>
        <path fill="url(#f)" d="M11.215 20.913c3.439 1.098 6.394-1.611 4.573-2.516-1.657-.816-6.205 1.997-4.573 2.516z" transform="translate(.82)"/>
        <path fill="url(#g)" d="M19.302 15.458c.083-.118.197-.496.296-.665.608-.98.612-1.762.612-1.78.367-1.831.333-2.58.108-3.963-.182-1.113-.976-2.71-1.664-3.478-.709-.791-.21-.533-.895-1.112-.602-.667-1.185-1.327-1.503-1.592C13.961.948 14.013.54 14.056.472l-.032.036a6.003 6.003 0 0 1-.046-.2s-1.255 1.255-1.519 3.346c-.172 1.365.339 2.789 1.079 3.698.385.472.82.9 1.298 1.277.56.802.867 1.793.867 2.859a4.834 4.834 0 0 1-5.916 4.71c-1.26-.24-1.988-.875-2.35-1.306a2.367 2.367 0 0 1-.297-.428c1.129.405 2.377.32 3.136-.1.765-.423 1.228-.738 1.603-.614.37.124.665-.234.401-.606-.26-.37-.933-.902-1.934-.755-.766.112-1.468.656-2.471.13a2.12 2.12 0 0 1-.188-.111c-.067-.04.215.059.149.015a4.98 4.98 0 0 1-.63-.376c-.015-.012.151.047.136.035-.938-.692-.821-1.16-.792-1.453a.842.842 0 0 1 .482-.658c.138.068.225.12.225.12l-.091-.165c.01-.005.021-.004.033-.008.113.05.364.177.497.255.172.109.227.206.227.206s.045-.022.012-.117a.614.614 0 0 0-.235-.288l.01.001a2 2 0 0 1 .29.18c.048-.157.134-.32.115-.613-.012-.206-.006-.26-.047-.339-.036-.068.02-.095.084-.024a.661.661 0 0 0-.054-.162v-.005c.079-.245 1.663-.883 1.778-.958.186-.116.345-.271.466-.454.088-.126.155-.302.171-.57.005-.12-.032-.216-.451-.307-.252-.055-.642-.108-1.243-.165-.438-.038-.695-.323-.84-.585a3.61 3.61 0 0 0-.082-.16 1.169 1.169 0 0 1-.062-.183 3.488 3.488 0 0 1 1.349-1.675c.035-.028-.141.008-.106-.021.041-.034.31-.13.36-.152.062-.026-.265-.15-.553-.12-.294.029-.357.06-.514.12.065-.058.273-.134.224-.134-.317.044-.711.209-1.048.396 0-.033.007-.065.02-.095-.156.06-.542.301-.654.505a.87.87 0 0 0 .006-.118c-.118.088-.226.19-.32.302l-.007.005c-.91-.329-1.71-.35-2.389-.203-.148-.133-.386-.335-.724-1-.023-.04-.035.084-.053.044-.13-.304-.21-.802-.197-1.146 0 0-.27.124-.495.64-.042.093-.069.144-.095.195-.013.015.027-.17.021-.16-.039.067-.14.16-.184.279-.03.088-.073.138-.1.248l-.007.01c-.002-.032.008-.134 0-.113a5.197 5.197 0 0 0-.27.657c-.121.397-.262.938-.284 1.641-.006.054 0 .113-.006.161-.286.327-.48.604-.555.747-.37.572-.777 1.463-1.172 2.872.175-.385.386-.753.628-1.1-.329.748-.646 1.923-.71 3.732.08-.375.182-.744.305-1.106a9.369 9.369 0 0 0 .847 4.389c.453.992 1.495 3.008 4.042 4.58 0 0 .866.646 2.355 1.13.11.039.222.078.336.116a2.212 2.212 0 0 1-.104-.045c.991.297 2.02.449 3.055.45 3.856.003 4.994-1.546 4.994-1.546l-.012.008c.055-.05.107-.104.157-.16-.608.575-1.996.613-2.516.572.886-.26 1.468-.48 2.602-.914.132-.05.268-.105.407-.168l.045-.02.082-.04a7.687 7.687 0 0 0 1.547-.968c1.138-.909 1.386-1.795 1.515-2.38a3.274 3.274 0 0 1-.114.272c-.293.627-.943 1.012-1.649 1.342.336-.441.648-.9.933-1.375.23-.228.303-.586.475-.826z" transform="translate(.82)"/>
        <path fill="url(#h)" d="M17.916 17.632a7.292 7.292 0 0 0 1.197-1.76c.812-1.708 2.068-4.548 1.079-7.514-.782-2.344-1.855-3.625-3.218-4.877C14.761 1.447 14.143.54 14.143 0c0 0-2.556 2.849-1.447 5.82 1.108 2.97 3.378 2.862 4.88 5.962 1.766 3.649-1.43 7.63-4.074 8.745.162-.036 5.877-1.33 6.177-4.598-.007.06-.136.964-1.762 1.703z" transform="translate(.82)"/>
        <path fill="url(#i)" d="M10.513 7.03c.009-.193-.091-.322-1.688-.472-.657-.06-.908-.668-.985-.923-.234.606-.33 1.243-.278 2.013.035.505.374 1.046.536 1.364 0 0 .036-.047.053-.064.305-.318 1.583-.802 1.704-.87.132-.084.636-.452.658-1.048z" transform="translate(.82)"/>
        <path fill="url(#j)" d="M3.485 3.444c-.023-.04-.035.083-.053.043a2.924 2.924 0 0 1-.192-1.145s-.271.124-.495.64c-.042.093-.069.144-.096.195-.012.015.028-.17.022-.16-.04.067-.14.159-.184.273-.036.093-.074.144-.101.26-.009.03.008-.14 0-.12-.521 1.01-.62 2.535-.566 2.47 1.111-1.186 2.385-1.468 2.385-1.468-.136-.1-.43-.388-.72-.988z" transform="translate(.82)"/>
        <path fill="url(#k)" d="M7.701 15.851c-1.535-.655-3.28-1.58-3.214-3.679.09-2.765 2.579-2.219 2.579-2.219-.094.023-.345.202-.434.393-.094.238-.266.776.254 1.34.816.885-1.677 2.1 2.172 4.393.097.053-.902-.031-1.357-.228z" transform="translate(.82)"/>
        <path fill="url(#l)" d="M7.156 14.473c1.088.379 2.356.313 3.115-.107.508-.283 1.16-.736 1.561-.624a2.727 2.727 0 0 0-.927-.217c-.053 0-.118-.001-.177-.007-.116 0-.231.006-.347.02-.195.017-.413.14-.61.12-.01 0 .191-.082.175-.079-.105.022-.218.027-.338.042-.077.008-.142.018-.218.021-2.267.192-4.183-1.228-4.183-1.228-.163.549.73 1.635 1.949 2.06z" transform="translate(.82)"/>
        <path fill="url(#m)" d="M17.912 17.646c2.293-2.25 3.453-4.987 2.963-8.057 0 0 .196 1.574-.547 3.184.357-1.572.398-3.525-.55-5.547-1.265-2.7-3.347-4.12-4.141-4.712-1.204-.898-1.703-1.812-1.712-2.001-.36.737-1.448 3.262-.117 5.437 1.246 2.038 3.21 2.642 4.586 4.511 2.533 3.444-.482 7.185-.482 7.185z" transform="translate(.82)"/>
        <path fill="url(#n)" d="M17.584 11.789c-.801-1.656-1.801-2.378-2.748-3.16.11.154.138.208.199.308.832.888 2.06 3.052 1.169 5.77-1.678 5.115-8.39 2.706-9.094 2.03.285 2.96 5.24 4.377 8.466 2.457 1.836-1.738 3.321-4.692 2.008-7.405z" transform="translate(.82)"/>
    </g>
</svg>
