<svg xmlns="http://www.w3.org/2000/svg" width="334" height="24" viewBox="0 0 334 24">
    <g fill="none" fill-rule="evenodd" opacity=".698">
        <path fill="#0EBAC5" fill-rule="nonzero" d="M328.377 13.179h5.266c.04-.366.057-.74.057-1.121 0-1.79-.48-3.47-1.32-4.917.868-2.306.837-4.264-.324-5.433-1.104-1.1-4.066-.922-7.415.562a9.935 9.935 0 0 0-.75-.028c-4.596 0-8.453 3.165-9.518 7.43 1.441-1.847 2.958-3.187 4.985-4.162-.185.173-1.26 1.242-1.44 1.423-5.344 5.346-7.03 12.33-5.216 14.144 1.378 1.38 3.876 1.147 6.745-.26a9.758 9.758 0 0 0 4.444 1.064c4.308 0 7.959-2.775 9.281-6.64h-5.306a4.318 4.318 0 0 1-3.797 2.265 4.318 4.318 0 0 1-3.796-2.265 4.343 4.343 0 0 1-.512-2.046v-.016h8.616zm-8.608-2.59a4.135 4.135 0 0 1 4.122-3.898c2.198 0 4 1.73 4.121 3.897h-8.243zm12.239-7.791c.748.756.73 2.148.09 3.884a9.847 9.847 0 0 0-4.569-3.742c2.01-.862 3.645-.977 4.479-.142zm-17.923 17.935c-.954-.955-.666-2.96.563-5.376a9.85 9.85 0 0 0 4.179 5.116c-2.129.967-3.871 1.13-4.742.26z"/>
        <g fill="#0EBAC5" fill-rule="nonzero">
            <path d="M61.735 16.119c-.283.085-.71.213-1.24.213-.955 0-1.837-.26-2.621-.774a4.986 4.986 0 0 1-1.79-2.02L51.617 5.71l-.302.54c-.87 1.557-1.312 3.321-1.312 5.242 0 2.61.862 4.921 2.562 6.866 1.7 1.943 3.843 3.122 6.372 3.503l.236.036 3.498-6.053-.936.275z"/>
            <path d="M55.763 10.18c.263-1.031.854-1.909 1.757-2.608.848-.657 1.821-.976 2.975-.976h9.326l-.309-.527c-.88-1.502-2.12-2.704-3.79-3.675A10.267 10.267 0 0 0 60.494 1c-1.632 0-3.177.352-4.591 1.046-1.508.74-2.789 1.783-3.703 3.018l-.14.19 3.496 5.729.206-.803z"/>
            <path d="M70.19 7.539l-.095-.2h-6.958l.597.597c1.033 1.033 1.601 2.295 1.601 3.556a4.894 4.894 0 0 1-.864 2.796l-4.468 7.701.615-.006c2.855-.027 5.324-1.075 7.337-3.114 2.011-2.04 3.032-4.522 3.032-7.377 0-1.038-.139-2.566-.797-3.953z"/>
            <path d="M56.298 11.492c0 2.275 1.922 4.197 4.197 4.197 2.275 0 4.197-1.922 4.197-4.197 0-2.275-1.922-4.197-4.197-4.197-2.275 0-4.197 1.922-4.197 4.197z"/>
        </g>
        <path fill="#0EBAC5" fill-rule="nonzero" d="M123.805 8.423c-.104.79-.217 1.198-.33 1.225 0 0-.04-4.23-1.444-5.633.24 2.467.004 1.473.004 1.485-1.904-3.284-5.457-5.5-9.518-5.5a10.982 10.982 0 0 0-8.448 3.96 1.718 1.718 0 0 1-.055-.05c-.316-.289-.498-1.676-.498-1.676 0-.005-.003-.01-.003-.014l-.002-.015c0-.002 0-.005-.002-.008-.003.002-.004.006-.008.008l-.011.013c-.004.003-.006.01-.01.013-.005.004-.008.01-.012.012a.04.04 0 0 1-.01.013c-.005.004-.008.01-.011.013-.004.004-.008.01-.013.012-.003.006-.007.009-.01.013l-.012.014a.112.112 0 0 1-.01.012l-.011.013-.012.013a.067.067 0 0 1-.011.013s-.59.776-.8 1.62c-.138.67-.001.01-.004.012 0 .004 0 .01-.002.015l-.003.013c-.176.694-.261 1.522-.25 2.492-.008.008-.017.015-.023.023 0 0-1.04 1.127-1.212 2.334l-.067.46v.007c-.002.036-.006.072-.007.108l.01-.016c.003.09.012.18.035.262l.624-.508c-.008.06-.02.118-.03.18a7.679 7.679 0 0 0-.41 1.731c-.204 1.85.195 3.683 1.183 5.496 0 0 .396.713.637 1.051.03.048.058.096.092.144l.007.001c2.065 2.818 5.375 4.645 9.108 4.645 3.304 0 6.272-1.43 8.343-3.71h.04c.137-.167.262-.338.392-.508.345-.427.663-.878.946-1.352l-.027.002c.886-1.453 1.467-2.95 1.73-4.495.38-1.524.422-2.838.125-3.943zm-19.75-4.444a.07.07 0 0 1-.007-.012l-.009-.015-.01-.012c-.001-.006-.004-.011-.007-.016l.045.039c-.003.006-.008.01-.012.016zm16.579 3.941a1.653 1.653 0 0 0-.938-.72c.488 1.895.537 3.46.142 4.692-.271-.822-.52-1.315-.743-1.488.31 2.538-.11 4.417-1.25 5.641.216-.746.303-1.359.253-1.84-1.342 2.009-2.87 3.048-4.58 3.113a6.427 6.427 0 0 1-1.916-.303l-.037-.002a3.464 3.464 0 0 1-.175-.063v-.002a3.644 3.644 0 0 1-.297-.125c-.049-.022-.097-.041-.146-.065-.045-.023-.09-.048-.137-.071a4.09 4.09 0 0 1-.136-.069c-.044-.023-.086-.05-.128-.075a2.172 2.172 0 0 1-.129-.076 1.892 1.892 0 0 1-.124-.078c-.041-.026-.08-.054-.12-.082l-.12-.08-.113-.087c-.037-.029-.076-.057-.112-.087a3.108 3.108 0 0 1-.11-.09c-.036-.028-.07-.06-.106-.09-.035-.03-.07-.059-.106-.092l-.1-.094a2.083 2.083 0 0 1-.099-.094l-.078-.075c.01.002.021.002.032.002l.078.005.078.003c.025.003.05.004.076.005.027.002.052.004.077.004.027 0 .052.004.078.004.027 0 .054-.002.08 0 .027 0 .054-.003.08-.003h.081l.08-.001.08-.002.081-.007.085-.006.08-.007c.028-.002.056-.003.083-.006l.085-.009c.028-.003.056-.01.085-.014l.084-.012c.029-.004.056-.009.085-.012.028-.005.058-.008.085-.014.03-.005.059-.012.087-.019.029-.005.058-.013.088-.019l.089-.02c.03-.007.06-.012.087-.02l.09-.024.091-.027c.032-.009.063-.017.093-.027.03-.01.061-.017.09-.026.032-.01.064-.022.095-.033.031-.012.065-.023.096-.036l.095-.035c.031-.013.064-.023.095-.036.034-.016.067-.03.1-.047.033-.014.066-.03.1-.046l.1-.045c.016-.009.032-.014.046-.023l.062-.04.112-.072.112-.072.113-.073.112-.072.112-.072.112-.073.113-.072.111-.072.111-.073.113-.073.112-.071.111-.073.052-.033-.004-.005a.668.668 0 0 1 .542.016c.356-.05.482-.24.362-.558-.172-.238-.434-.454-.768-.643-.732-.38-1.494-.32-2.29.183-.758.427-1.488.411-2.198-.043-.466-.32-.916-.747-1.347-1.284l-.174-.253c-.002.01-.002.021-.002.03 0-.01 0-.021.002-.032v-.005l.001-.022a1.446 1.446 0 0 1 .066-.37.768.768 0 0 1 .14-.256.674.674 0 0 1 .306-.204c.048-.015.098-.026.151-.035l-.085-.007-.215-.02a15.982 15.982 0 0 0-.322-.024l-.115-.007c-.061-.002-.119-.006-.178-.01-.017 0-.027-.003-.044-.004a2.106 2.106 0 0 1-.175-.016c.066 0 .134-.002.199 0l.292.016c.11.006.32.023.62.049a9.025 9.025 0 0 1 1.642.33c.104-.59-.032-1.208-.406-1.84v-.011a.885.885 0 0 0-.136-.211.587.587 0 0 1 .134.19c.008.014.018.027.024.042.016-.016.032-.028.05-.043.023-.023.047-.044.072-.066.025-.022.048-.043.074-.064l.073-.065.072-.067c.024-.02.049-.043.073-.065l.074-.06c.024-.021.048-.04.073-.058l.073-.06.072-.06.074-.058.073-.057c.026-.02.049-.034.073-.053.025-.02.05-.035.073-.053l.075-.054c.024-.016.048-.035.073-.05.024-.018.05-.035.072-.05l.074-.047.074-.046c.024-.013.048-.029.073-.045l.072-.045a.114.114 0 0 0 .02-.012c.02-.011.035-.024.055-.037.024-.015.05-.03.073-.048.028-.023.05-.05.074-.077a.72.72 0 0 0 .145-.309c.005-.005.01-.01.016-.01l.005-.006.021-.02c.114-.169.076-.305-.119-.423-.404.02-1.213-.07-1.223-.071l-.015-.007c-.96-.4-1.49-1.244-1.49-1.244 0 .006-.022-.024-.022-.024l-.03-.039c.001-.002.001-.003.005-.004l.012-.008.01-.008.011-.008.012-.009h.002l.002-.01a.045.045 0 0 0 .002-.01c0-.005.001-.01.003-.013 0-.004-.015.014.002-.012-.18-1.466 1.745-2.431 1.745-2.431s-2.316.648-3.037 1.49l-.106.007.095.002a.037.037 0 0 1-.009.006l-.008.01-.011.01-.004.003c-.004-.003-.01-.004-.016-.006l-.043-.012c-1.398-.338-2.544.167-2.544.167-.009.001-.016.004-.022.007l-.022.008-.024.007c-.007.004-.013.006-.02.008a1.535 1.535 0 0 1-.545-.466 10.663 10.663 0 0 1 8.28-3.94c2.58 0 4.949.92 6.797 2.45a5.951 5.951 0 0 0-.94-.374c-.94-.28-2.062-.443-3.355-.48.567.112 1.05.254 1.438.431.023.007.047.017.07.023.549.26.916.586 1.09.97-.557-.103-1.062-.065-1.506.108 3.185 1.256 4.695 2.75 4.524 4.477zM7.498 6.179c-.84.911-1.261 2.034-1.401 3.226h7.428v-.561c-.07-.772-.21-1.543-.63-2.245-.561-.911-1.472-1.402-2.524-1.542-1.541-.28-3.013 0-4.414.56A12.237 12.237 0 0 0 .7 9.336c-.21.28-.42.63-.701.981 0-.21 0-.28.07-.42.28-1.964.981-3.857 2.313-5.4C3.924 2.672 5.886 1.55 8.269 1.129c2.313-.35 4.485 0 6.517 1.193 1.892 1.052 3.154 2.665 3.925 4.698.42 1.122.63 2.385.7 3.577V13.191H6.238c0 1.053.35 2.035 1.051 2.806.841.912 1.962 1.332 3.084 1.543 2.522.35 4.835-.07 7.007-1.333.07 0 .14-.07.14-.07h.07v4.208c0 .14-.07.21-.21.28-1.541.772-3.223 1.263-4.975 1.333-1.121.07-2.243.07-3.294-.14-3.293-.702-5.956-3.086-6.587-6.522-.7-3.928 1.191-7.504 4.905-9.117h.07z"/>
        <g transform="translate(259)">
            <circle cx="11.842" cy="11.842" r="11.842" fill="#0EBAC5"/>
            <path fill="#FFF" fill-rule="nonzero" d="M16.13 4.728c-.266.778-.544 1.556-.81 2.334-.812 2.344-1.634 4.688-2.445 7.033-.033.11-.078.222-.111.322 0 .011-.011.022-.011.033.011-.11-.033.067 0 0-.033.456 0 .934 0 1.389v3.167a.342.342 0 0 1-.333.333h-1.445a.318.318 0 0 1-.233-.089h-.011v-.011a.318.318 0 0 1-.09-.233v-3.3c0-.422.023-.856 0-1.278v-.033c.023.077 0-.1 0 0v-.023c-.021-.088-.066-.166-.1-.255-.332-.9-.677-1.822-1.01-2.733-.667-1.767-1.322-3.545-1.978-5.311-.078-.211.122-.422.322-.422h1.567c.155 0 .278.1.322.244.656 1.844 1.311 3.689 1.967 5.522.777-2.289 1.555-4.578 2.333-6.877a.314.314 0 0 1 .311-.234h1.433c.211 0 .4.211.322.422z"/>
        </g>
        <path fill="#0EBAC5" d="M218.808 22.714C212.84 22.714 208 17.63 208 11.357 208 5.085 212.839 0 218.808 0c5.97 0 10.809 5.085 10.809 11.357 0 6.272-4.84 11.357-10.809 11.357zm0-1.925c3.19 0 3.86-4.223 3.86-9.432 0-5.21-.682-9.432-3.86-9.432s-3.86 4.223-3.86 9.432c0 5.21.67 9.432 3.86 9.432z"/>
    </g>
</svg>
