<svg xmlns="http://www.w3.org/2000/svg" width="22" height="14" viewBox="0 0 22 14">
    <g fill="none" fill-rule="evenodd">
        <rect width="22" height="14" fill="#0EBAC5" rx="7"/>
        <path fill="#FFF" d="M5 7.264c0 .686.56 1.25 1.24 1.25.68 0 1.255-.564 1.255-1.25C7.495 6.58 6.92 6 6.24 6 5.56 6 5 6.579 5 7.264zm4.753 0c0 .686.56 1.25 1.24 1.25.68 0 1.254-.564 1.254-1.25 0-.685-.574-1.264-1.255-1.264-.68 0-1.24.579-1.24 1.264zm4.752 0c0 .686.56 1.25 1.24 1.25.68 0 1.255-.564 1.255-1.25C17 6.58 16.425 6 15.745 6c-.68 0-1.24.579-1.24 1.264z"/>
    </g>
</svg>
