<svg xmlns="http://www.w3.org/2000/svg" width="52" height="52" viewBox="0 0 52 52">
    <g fill="none" fill-rule="evenodd" stroke="#0EBAC5" stroke-width="2">
        <path d="M25.194 1H3.419A2.42 2.42 0 0 0 1 3.42v20.967h9.677v-.806c-1.445-.837-2.419-2.242-2.419-4.033a4.839 4.839 0 0 1 9.677 0c0 1.79-.974 3.196-2.419 4.033v.806h9.678M1 26.806v21.775A2.42 2.42 0 0 0 3.42 51h20.967v-9.677h-.806c-.837 1.445-2.242 2.419-4.033 2.419a4.839 4.839 0 0 1 0-9.677c1.79 0 3.196.974 4.033 2.419h.806v-9.678M26.806 51h21.775A2.42 2.42 0 0 0 51 48.58V27.614h-9.677v.806c1.612.837 2.419 2.242 2.419 4.033a4.84 4.84 0 0 1-9.677 0c0-1.79.806-3.196 2.419-4.033v-.806h-9.678M51 25.194V3.419A2.42 2.42 0 0 0 48.58 1H27.614v9.677h.806c.837-1.445 2.242-2.419 4.033-2.419a4.839 4.839 0 0 1 0 9.677c-1.79 0-3.196-.974-4.033-2.419h-.806v9.678M25.194 4.226H23.58M21.968 4.226h-1.613M18.742 4.226h-1.613M34.871 47.774h-1.613M31.645 47.774h-1.613M28.42 47.774h-1.614M4.226 26.806v1.613M4.226 30.032v1.613M4.226 33.258v1.613M47.774 17.129v1.613M47.774 20.355v1.613M47.774 23.58v1.614"/>
    </g>
</svg>
