<svg xmlns="http://www.w3.org/2000/svg" width="22" height="22" viewBox="0 0 22 22">
    <path fill="#B5B8BD" fill-rule="evenodd" stroke="#B5B8BD" stroke-width=".5" d="M11 21C5.487 21 1 16.514 1 11c0-2.795 1.183-5.483 3.245-7.373a.48.48 0 1 1 .649.708A9.063 9.063 0 0 0 1.96 11c0 4.985 4.056 9.04 9.04 9.04 4.985 0 9.04-4.055 9.04-9.04 0-4.823-3.799-8.764-8.56-9.016v2.5a.48.48 0 1 1-.96 0v-2.96c0-.009.004-.015.005-.023 0-.007-.004-.014-.004-.02A.48.48 0 0 1 11 1C16.515 1 21 5.486 21 11s-4.485 10-10 10zm.725-9.66a.478.478 0 0 1-.679 0L7.349 7.642a.48.48 0 1 1 .68-.678l3.696 3.696a.48.48 0 0 1 0 .678z"/>
</svg>
