<svg xmlns="http://www.w3.org/2000/svg" width="24" height="27" viewBox="0 0 24 27">
    <g fill="#FFF" fill-rule="nonzero">
        <path d="M23 24.503l-4.716-5.294a10.972 10.972 0 0 0 3.703-8.216A10.988 10.988 0 0 0 10.993 0 10.988 10.988 0 0 0 0 10.993a10.988 10.988 0 0 0 10.993 10.994c2.373 0 4.571-.753 6.365-2.054l4.773 5.323a.52.52 0 0 0 .434.202.55.55 0 0 0 .376-.144c.26-.203.26-.58.058-.81zM10.992 20.83a9.828 9.828 0 0 1-9.836-9.836 9.828 9.828 0 0 1 9.836-9.836 9.828 9.828 0 0 1 9.836 9.836 9.828 9.828 0 0 1-9.836 9.836z"/>
        <path d="M16.114 13.915c-1.33-1.157-2.633-2.314-3.964-3.471V4.918c0-.636-.491-1.157-1.157-1.157-.665 0-1.157.492-1.157 1.157v5.786c0 .203-.029.781.376 1.128.723.637 1.447 1.244 2.17 1.88.723.637 1.446 1.274 2.17 1.881.231.203.491.29.78.29.116 0 .261-.03.377-.058.405-.145.723-.492.81-.897a1.084 1.084 0 0 0-.405-1.013zm0 0c-1.33-1.157-2.633-2.314-3.964-3.471V4.918c0-.636-.491-1.157-1.157-1.157-.665 0-1.157.492-1.157 1.157v5.786c0 .203-.029.781.376 1.128.723.637 1.447 1.244 2.17 1.88.723.637 1.446 1.274 2.17 1.881.231.203.491.29.78.29.116 0 .261-.03.377-.058.405-.145.723-.492.81-.897a1.084 1.084 0 0 0-.405-1.013zm0 0c-1.33-1.157-2.633-2.314-3.964-3.471V4.918c0-.636-.491-1.157-1.157-1.157-.665 0-1.157.492-1.157 1.157v5.786c0 .203-.029.781.376 1.128.723.637 1.447 1.244 2.17 1.88.723.637 1.446 1.274 2.17 1.881.231.203.491.29.78.29.116 0 .261-.03.377-.058.405-.145.723-.492.81-.897a1.084 1.084 0 0 0-.405-1.013zm0 0c-1.33-1.157-2.633-2.314-3.964-3.471V4.918c0-.636-.491-1.157-1.157-1.157-.665 0-1.157.492-1.157 1.157v5.786c0 .203-.029.781.376 1.128.723.637 1.447 1.244 2.17 1.88.723.637 1.446 1.274 2.17 1.881.231.203.491.29.78.29.116 0 .261-.03.377-.058.405-.145.723-.492.81-.897a1.084 1.084 0 0 0-.405-1.013zm0 0c-1.33-1.157-2.633-2.314-3.964-3.471V4.918c0-.636-.491-1.157-1.157-1.157-.665 0-1.157.492-1.157 1.157v5.786c0 .203-.029.781.376 1.128.723.637 1.447 1.244 2.17 1.88.723.637 1.446 1.274 2.17 1.881.231.203.491.29.78.29.116 0 .261-.03.377-.058.405-.145.723-.492.81-.897a1.084 1.084 0 0 0-.405-1.013z"/>
    </g>
</svg>
