<svg xmlns="http://www.w3.org/2000/svg" width="15" height="17" viewBox="0 0 15 17">
    <path fill="#000" fill-rule="nonzero" d="M3.115 2.779l.85.85c.23.23.07.601-.248.601h-.779a.423.423 0 0 1-.248-.088L.973 2.425C.85 2.3.85 2.07.973 1.929L2.69.212c.071-.07.142-.088.248-.088h.779c.3-.036.46.336.248.566l-.85.85h4.319a7.331 7.331 0 0 1 7.328 7.328c0 4.035-3.293 7.327-7.328 7.327A7.331 7.331 0 0 1 .106 8.868c0-.337.266-.62.62-.62.336 0 .62.266.62.62 0 3.362 2.743 6.106 6.106 6.106 3.362 0 6.106-2.744 6.106-6.106a6.088 6.088 0 0 0-6.089-6.09H3.115zm6.832 8l-.62.62a.415.415 0 0 1-.3.123.462.462 0 0 1-.301-.123L7.434 10.07l-1.31 1.31a.415.415 0 0 1-.3.124.462.462 0 0 1-.302-.124l-.62-.62a.415.415 0 0 1-.123-.3c0-.107.053-.23.124-.301l1.31-1.31-1.31-1.31a.415.415 0 0 1-.124-.3c0-.107.053-.23.124-.302l.62-.62a.415.415 0 0 1 .3-.123c.106 0 .23.053.301.124l1.31 1.327 1.31-1.31a.415.415 0 0 1 .3-.123c.107 0 .23.053.301.123l.62.62a.415.415 0 0 1 .124.3c0 .107-.053.231-.124.302l-1.31 1.31 1.31 1.31a.415.415 0 0 1 .124.3.44.44 0 0 1-.142.301z"/>
</svg>
