<svg xmlns="http://www.w3.org/2000/svg" width="59" height="53" viewBox="0 0 59 53">
    <g fill="#AC92EC" fill-rule="nonzero">
        <path d="M9.255 52.98v-3.597h6.234l.193-1.027a14.258 14.258 0 0 1 2.635-5.651l1.542-2.055H0V0h59v40.65H39.205l1.542 2.055c1.35 1.798 2.25 3.724 2.635 5.587l.193 1.027h6.234v3.596H9.255v.065zM29.5 40.586c-4.499 0-8.42 2.76-9.898 7l-.578 1.733h20.952l-.643-1.734c-1.478-4.174-5.463-7-9.833-7zM3.6 36.989h51.865V3.596H3.6V36.99z"/>
        <path d="M39.402 21.603H18.394v4.887l-7.557-6.623 7.557-6.622v4.758h21.008v-4.758l7.557 6.622-7.557 6.623z"/>
    </g>
</svg>
