<svg xmlns="http://www.w3.org/2000/svg" width="59" height="52" viewBox="0 0 59 52">
    <g fill="none" fill-rule="evenodd" stroke="#0EBAC5" stroke-width="2">
        <path d="M50.09 9.182V3.727A2.728 2.728 0 0 0 47.365 1H3.727A2.728 2.728 0 0 0 1 3.727v34.546A2.728 2.728 0 0 0 3.727 41h29.091M30.09 41v9.09M21 50.09V41"/>
        <path stroke-linecap="round" d="M18.273 50.09h14.545"/>
        <path d="M1 33.727h31.818M24.636 37.364h1.819M35.545 16.455v-2.728c0-1.003.815-1.818 1.819-1.818h18.181c1.004 0 1.819.815 1.819 1.818v34.546a1.819 1.819 0 0 1-1.819 1.818H37.364a1.819 1.819 0 0 1-1.819-1.818V25.545M48.273 46.455h-3.637M49.182 22.818h-20M40.09 19.182H22.819"/>
        <path stroke-linecap="round" d="M25.545 21.91l-2.727-2.728 2.727-2.727M49.182 22.818l-2.727-2.727M49.182 22.818l-2.727 2.727"/>
        <path d="M35.545 42.818h21.819"/>
    </g>
</svg>
