<svg xmlns="http://www.w3.org/2000/svg" width="14" height="11" viewBox="0 0 14 11">
    <path fill="#000" fill-rule="nonzero" d="M10.8.071C8.429-.37 6.286 1.314 6.114 3.557c0 .172.129.357.315.357h.042a.308.308 0 0 0 .315-.314A3.272 3.272 0 0 1 10.043.657c1.7.043 3.171 1.472 3.171 3.172.043 1.785-1.428 3.3-3.257 3.3H4.243V4.986a.875.875 0 0 0-.543-.8c-.314-.086-.629-.043-.843.171L.3 6.943a.87.87 0 0 0-.229.586c0 .228.086.4.229.585l2.543 2.543c.228.229.543.314.843.172.3-.143.543-.443.543-.8V7.886h5.757c2.414 0 4.328-2.186 3.843-4.729C13.557 1.63 12.314.386 10.8.071z"/>
</svg>
