<svg xmlns="http://www.w3.org/2000/svg" width="13" height="12" viewBox="0 0 13 12">
    <path fill="#FFF" fill-rule="nonzero" d="M9.874 2.546l-.603.744c1.3.97 1.948 2.543 1.693 4.103-.387 2.363-2.705 3.984-5.166 3.611-2.46-.372-4.148-2.597-3.761-4.96A4.288 4.288 0 0 1 3.84 3.21a4.618 4.618 0 0 1 2.907-.825L5.9 3.24l.63.577 1.338-1.35.6-.605-.628-.576L6.434 0l-.6.605.916.838a5.618 5.618 0 0 0-3.487 1.006c-1.188.83-1.967 2.055-2.196 3.448-.47 2.877 1.583 5.585 4.578 6.038.289.044.575.065.858.065 2.659 0 5.004-1.861 5.43-4.46.311-1.9-.478-3.813-2.059-4.994z"/>
</svg>
