<svg xmlns="http://www.w3.org/2000/svg" width="24" height="23" viewBox="0 0 24 23">
    <g fill="none" fill-rule="evenodd">
        <ellipse cx="11.548" cy="11.376" fill="#2A90FF" rx="11.548" ry="11.376"/>
        <path fill="#FFF" d="M7.407 9.405l.795 1.168a3.279 3.279 0 0 0 3.18 4.082 3.279 3.279 0 1 0-.784-6.462L9.437 7.39a4.407 4.407 0 0 1 1.191-.385l.755-3.92.754 3.92a4.44 4.44 0 0 1 3.62 3.617l3.92.754-3.92.755a4.44 4.44 0 0 1-3.62 3.616l-.754 3.92-.755-3.92a4.44 4.44 0 0 1-3.619-3.616l-3.92-.755 3.92-.754c.074-.43.21-.839.398-1.217z"/>
        <path fill="#FFF" d="M4.035 4.022l8.59 6.135-2.455 2.455z"/>
        <path fill="#FFF" d="M18.729 18.712l-8.59-6.135 2.455-2.456z"/>
        <ellipse cx="11.383" cy="11.376" fill="#FFF" rx="1.736" ry="1.735"/>
    </g>
</svg>
