<svg xmlns="http://www.w3.org/2000/svg" xmlns:xlink="http://www.w3.org/1999/xlink" width="21" height="21" viewBox="0 0 21 21">
    <defs>
        <path id="a" d="M0 10.5C0 16.299 4.701 21 10.5 21S21 16.299 21 10.5 16.299 0 10.5 0 0 4.701 0 10.5"/>
        <linearGradient id="b" x1="50%" x2="50%" y1="0%" y2="100%">
            <stop offset="0%" stop-color="#F7F7F7"/>
            <stop offset="100%" stop-color="#CCC"/>
        </linearGradient>
        <radialGradient id="d" cy="52%" fx="50%" fy="52%">
            <stop offset="0%" stop-color="#00EFFF"/>
            <stop offset="100%" stop-color="#0070DF"/>
        </radialGradient>
    </defs>
    <g fill="none" fill-rule="evenodd">
        <g>
            <mask id="c" fill="#fff">
                <use xlink:href="#a"/>
            </mask>
            <path fill="url(#b)" d="M0 10.5C0 16.299 4.701 21 10.5 21S21 16.299 21 10.5 16.299 0 10.5 0 0 4.701 0 10.5" mask="url(#c)"/>
            <path fill="url(#d)" d="M.875 10.5a9.625 9.625 0 1 0 19.25 0 9.625 9.625 0 0 0-19.25 0" mask="url(#c)"/>
        </g>
        <path fill="#DDD" fill-rule="nonzero" d="M10.39 1.488a.11.11 0 0 1 .22 0v1.53a.11.11 0 0 1-.22 0v-1.53zM10.61 19.512a.11.11 0 0 1-.22 0v-1.53a.11.11 0 0 1 .22 0v1.53zM11.275 1.52a.11.11 0 1 1 .217.022l-.064.653a.11.11 0 1 1-.218-.022l.065-.653zM9.725 19.48a.11.11 0 1 1-.217-.022l.064-.653a.11.11 0 1 1 .218.022l-.065.653zM19.512 10.39a.11.11 0 0 1 0 .22h-1.53a.11.11 0 0 1 0-.22h1.53zM1.488 10.61a.11.11 0 0 1 0-.22h1.53a.11.11 0 0 1 0 .22h-1.53zM19.48 11.275a.11.11 0 1 1-.022.217l-.653-.064a.11.11 0 1 1 .022-.218l.653.065zM1.52 9.725a.11.11 0 1 1 .022-.217l.653.064a.11.11 0 1 1-.022.218l-.653-.065zM16.795 4.05a.11.11 0 1 1 .155.155l-1.083 1.082a.11.11 0 0 1-.154-.154l1.082-1.083zM4.205 16.95a.11.11 0 1 1-.155-.155l1.083-1.082a.11.11 0 1 1 .154.154L4.205 16.95zM17.397 4.698a.11.11 0 1 1 .14.17l-.508.415a.11.11 0 0 1-.139-.169l.507-.416zM3.603 16.302a.11.11 0 0 1-.14-.17l.508-.415a.11.11 0 1 1 .139.169l-.507.416zM16.95 16.795a.11.11 0 1 1-.155.155l-1.082-1.083a.11.11 0 1 1 .154-.154l1.083 1.082zM4.05 4.205a.11.11 0 1 1 .155-.155l1.082 1.083a.11.11 0 0 1-.154.154L4.05 4.205zM16.302 17.397a.11.11 0 1 1-.17.14l-.415-.508a.11.11 0 0 1 .169-.139l.416.507zM4.698 3.603a.11.11 0 0 1 .17-.14l.415.508a.11.11 0 1 1-.169.139l-.416-.507zM13.848 2.132a.11.11 0 0 1 .202.083l-.586 1.415a.11.11 0 0 1-.202-.084l.586-1.414zM7.152 18.868a.11.11 0 0 1-.202-.083l.586-1.415a.11.11 0 0 1 .202.084l-.586 1.414zM14.652 2.5a.11.11 0 1 1 .193.103l-.31.579a.11.11 0 0 1-.192-.103l.309-.579zM6.348 18.5a.11.11 0 0 1-.193-.103l.31-.579a.11.11 0 1 1 .192.103l-.309.579zM18.868 13.848a.11.11 0 0 1-.083.202l-1.415-.586a.11.11 0 0 1 .084-.202l1.414.586zM2.132 7.152a.11.11 0 1 1 .083-.202l1.415.586a.11.11 0 1 1-.084.202l-1.414-.586zM18.5 14.652a.11.11 0 1 1-.103.193l-.579-.31a.11.11 0 0 1 .103-.192l.579.309zM2.5 6.348a.11.11 0 0 1 .103-.193l.579.31a.11.11 0 0 1-.103.192L2.5 6.348zM18.785 6.95a.11.11 0 1 1 .083.202l-1.414.586a.11.11 0 1 1-.084-.202l1.415-.586zM2.215 14.05a.11.11 0 0 1-.083-.202l1.414-.586a.11.11 0 0 1 .084.202l-1.415.586zM19.093 7.78a.11.11 0 0 1 .063.208l-.628.191a.11.11 0 1 1-.063-.21l.628-.19zM1.907 13.22a.11.11 0 0 1-.063-.208l.628-.191a.11.11 0 0 1 .063.21l-.628.19zM14.05 18.785a.11.11 0 0 1-.202.083l-.586-1.414a.11.11 0 0 1 .202-.084l.586 1.415zM6.95 2.215a.11.11 0 0 1 .202-.083l.586 1.414a.11.11 0 0 1-.202.084L6.95 2.215zM13.22 19.093a.11.11 0 1 1-.208.063l-.191-.628a.11.11 0 1 1 .21-.063l.19.628zM7.78 1.907a.11.11 0 1 1 .208-.063l.191.628a.11.11 0 1 1-.21.063l-.19-.628zM12.151 1.64a.11.11 0 0 1 .215.042l-.3 1.502a.11.11 0 0 1-.214-.043l.299-1.502zM8.849 19.36a.11.11 0 1 1-.215-.042l.3-1.502a.11.11 0 1 1 .214.043l-.299 1.502zM13.012 1.844a.11.11 0 1 1 .209.063l-.19.628a.11.11 0 1 1-.21-.063l.19-.628zM7.988 19.156a.11.11 0 0 1-.209-.063l.19-.628a.11.11 0 0 1 .21.063l-.19.628zM19.36 12.151a.11.11 0 0 1-.042.215l-1.502-.3a.11.11 0 0 1 .043-.214l1.502.299zM1.64 8.849a.11.11 0 1 1 .042-.215l1.502.3a.11.11 0 0 1-.043.214L1.64 8.849zM19.156 13.012a.11.11 0 1 1-.063.209l-.628-.19a.11.11 0 1 1 .063-.21l.628.19zM1.844 7.988a.11.11 0 1 1 .063-.209l.628.19a.11.11 0 0 1-.063.21l-.628-.19zM17.933 5.402a.11.11 0 1 1 .121.182l-1.273.85a.11.11 0 0 1-.121-.181l1.273-.851zM3.067 15.598a.11.11 0 0 1-.121-.182l1.273-.85a.11.11 0 0 1 .121.181l-1.273.851zM18.397 6.155a.11.11 0 1 1 .103.193l-.579.31a.11.11 0 1 1-.103-.194l.579-.309zM2.603 14.845a.11.11 0 0 1-.103-.193l.579-.31a.11.11 0 0 1 .103.194l-.579.309zM15.598 17.933a.11.11 0 0 1-.182.121l-.85-1.273a.11.11 0 0 1 .181-.121l.851 1.273zM5.402 3.067a.11.11 0 1 1 .182-.121l.85 1.273a.11.11 0 1 1-.181.121l-.851-1.273zM14.845 18.397a.11.11 0 1 1-.193.103l-.31-.579a.11.11 0 0 1 .194-.103l.309.579zM6.155 2.603a.11.11 0 1 1 .193-.103l.31.579a.11.11 0 0 1-.194.103l-.309-.579zM15.416 2.946a.11.11 0 0 1 .182.121l-.85 1.273a.11.11 0 0 1-.183-.121l.851-1.273zM5.584 18.054a.11.11 0 1 1-.182-.121l.85-1.273a.11.11 0 0 1 .183.121l-.851 1.273zM16.133 3.464a.11.11 0 0 1 .169.139l-.416.507a.11.11 0 1 1-.17-.139l.417-.507zM4.867 17.536a.11.11 0 0 1-.169-.139l.416-.507a.11.11 0 0 1 .17.139l-.417.507zM18.054 15.416a.11.11 0 1 1-.121.182l-1.273-.85a.11.11 0 0 1 .121-.183l1.273.851zM2.946 5.584a.11.11 0 1 1 .121-.182l1.273.85a.11.11 0 1 1-.121.183l-1.273-.851zM17.536 16.133a.11.11 0 0 1-.139.169l-.507-.416a.11.11 0 1 1 .139-.17l.507.417zM3.464 4.867a.11.11 0 1 1 .139-.169l.507.416a.11.11 0 0 1-.139.17l-.507-.417zM19.318 8.634a.11.11 0 0 1 .043.215l-1.502.299a.11.11 0 0 1-.043-.215l1.502-.299zM1.682 12.366a.11.11 0 0 1-.043-.215l1.502-.299a.11.11 0 0 1 .043.215l-1.502.299zM19.458 9.508a.11.11 0 1 1 .022.217l-.653.065a.11.11 0 0 1-.022-.218l.653-.064zM1.542 11.492a.11.11 0 1 1-.022-.217l.653-.065a.11.11 0 1 1 .022.218l-.653.064zM12.366 19.318a.11.11 0 0 1-.215.043l-.299-1.502a.11.11 0 0 1 .215-.043l.299 1.502zM8.634 1.682a.11.11 0 1 1 .215-.043l.299 1.502a.11.11 0 0 1-.215.043l-.299-1.502zM11.492 19.458a.11.11 0 1 1-.217.022l-.065-.653a.11.11 0 0 1 .218-.022l.064.653zM9.508 1.542a.11.11 0 0 1 .217-.022l.065.653a.11.11 0 0 1-.218.022l-.064-.653z"/>
        <path fill="#DDD" d="M3.895 17.105L9.541 9.54l.959.959z"/>
        <path fill="#E44" d="M9.541 9.541l7.564-5.646L10.5 10.5z"/>
        <path fill="#C00" d="M17.105 3.895l-5.646 7.564-.959-.959z"/>
        <path fill="#AAA" d="M3.895 17.105l7.564-5.646-.959-.959z"/>
    </g>
</svg>
