<svg xmlns="http://www.w3.org/2000/svg" width="59" height="59" viewBox="0 0 59 59">
    <g fill="none" fill-rule="evenodd" stroke="#0EBAC5">
        <g stroke-linejoin="round" stroke-width="2">
            <path d="M58 49.726V58h-8.274M9.274 58H1v-8.274M9.274 1H1v8.274M49.726 1H58v8.274"/>
        </g>
        <g stroke-linejoin="round">
            <path stroke-width="1.5" d="M45.129 48.806c0-.735-.092-1.47-.184-2.206-.46.184-1.011.368-1.655.368a3.688 3.688 0 0 1-3.677-3.678c0-1.655 1.103-3.034 2.666-3.493-1.011-1.471-2.298-2.666-3.677-3.678-.46 1.563-1.84 2.666-3.494 2.666a3.688 3.688 0 0 1-3.677-3.677c0-.643.184-1.195.367-1.655-.827-.184-1.563-.276-2.298-.276-.735 0-1.471.092-2.206.184.275.46.367 1.104.367 1.655a3.688 3.688 0 0 1-3.677 3.678c-1.655 0-3.034-1.104-3.494-2.667-1.47 1.012-2.666 2.299-3.677 3.678 1.563.46 2.666 1.839 2.666 3.493a3.688 3.688 0 0 1-3.677 3.678c-.644 0-1.196-.184-1.655-.368-.184.827-.276 1.563-.276 2.298"/>
            <path d="M26.742 48.806c0-1.562 1.195-2.758 2.758-2.758s2.758 1.196 2.758 2.758"/>
            <path stroke-width="1.5" d="M22.145 48.806c0-4.045 3.31-7.354 7.355-7.354s7.355 3.31 7.355 7.354"/>
        </g>
        <path stroke-width="2" d="M7.516 7.516h43.968v43.968H7.516z"/>
    </g>
</svg>
