<svg xmlns="http://www.w3.org/2000/svg" width="20" height="20" viewBox="0 0 20 20">
    <path fill="#000" fill-rule="evenodd" d="M11 10a1 1 0 1 1-2 0 1 1 0 0 1 2 0m3.82 1.358a4.934 4.934 0 0 1-3.462 3.462A5.017 5.017 0 0 1 5.18 8.642 4.934 4.934 0 0 1 8.642 5.18a5.017 5.017 0 0 1 6.178 6.178M19 9h-1.656c-.241 0-.572-.016-.57-.257.005-.889-.286-2.153-.928-2.845-.164-.177-.116-.339.054-.509l1.171-1.108a.962.962 0 0 0 0-1.383 1 1 0 0 0-1.414.015l-1.171 1.179a.502.502 0 0 1-.634.059 6.947 6.947 0 0 0-2.442-1.01.499.499 0 0 1-.41-.485V1a1 1 0 0 0-2 0v1.656a.501.501 0 0 1-.41.487 6.949 6.949 0 0 0-2.442 1.011.5.5 0 0 1-.634-.054L4.343 2.929a.999.999 0 1 0-1.414 1.414L4.1 5.514a.49.49 0 0 1 .054.634c-.494.683-.81 1.414-.952 2.692-.027.239-.305.16-.546.16H1a1 1 0 0 0 0 2h1.656c.241 0 .533.088.581.323.181.887.436 1.549.917 2.279.133.201.116.589-.054.759l-1.171 1.233a1.038 1.038 0 0 0 0 1.446 1 1 0 0 0 1.414.015l1.171-1.163a.5.5 0 0 1 .634-.05 6.97 6.97 0 0 0 2.442 1.013c.236.049.41.248.41.489V19a1 1 0 0 0 2 0v-1.656c0-.241.174-.438.41-.487a6.967 6.967 0 0 0 2.442-1.011.5.5 0 0 1 .634.054l1.171 1.171a.999.999 0 1 0 1.414-1.414L15.9 14.486a.5.5 0 0 1-.054-.634c.481-.73.742-1.138 1.011-1.942.077-.228.246-.91.487-.91H19a1 1 0 0 0 0-2"/>
</svg>
