<svg xmlns="http://www.w3.org/2000/svg" width="15" height="8" viewBox="0 0 15 8">
    <path fill="#818A99" fill-rule="nonzero" d="M7.51 0C3.373 0 .276 3.194.146 3.33a.529.529 0 0 0 0 .73c.13.137 3.227 3.33 7.364 3.33 4.137 0 7.233-3.193 7.363-3.33a.529.529 0 0 0 0-.73C14.743 3.194 11.647 0 7.51 0zm0 5.82A2.12 2.12 0 0 1 5.4 3.695a2.12 2.12 0 0 1 2.11-2.124 2.12 2.12 0 0 1 2.11 2.124A2.12 2.12 0 0 1 7.51 5.82zM5.325 1.395a3.18 3.18 0 0 0-.983 2.3c0 .905.378 1.721.983 2.301-1.88-.568-3.354-1.713-4.022-2.3.668-.588 2.142-1.733 4.022-2.301zm4.37 4.601a3.18 3.18 0 0 0 .983-2.3c0-.905-.378-1.721-.983-2.301 1.879.568 3.353 1.713 4.022 2.3-.669.588-2.143 1.733-4.022 2.301z"/>
</svg>
