<svg xmlns="http://www.w3.org/2000/svg" width="90" height="99" viewBox="0 0 90 99">
    <g fill="#E8E9ED" fill-rule="nonzero">
        <path d="M88.33 95.551h-2.778V8.333c0-.92-.747-1.667-1.667-1.667h-31.11c-.92 0-1.666.746-1.666 1.667v7.222h-3.333V8.333c0-.92-.747-1.667-1.667-1.667h-7.222v-5a1.666 1.666 0 1 0-3.333 0v5h-7.222c-.92 0-1.666.746-1.666 1.667v7.222h-5c-.92 0-1.667.746-1.667 1.666V31.11H6.111c-.92 0-1.666.746-1.666 1.667v62.775H1.667a1.666 1.666 0 1 0 0 3.333h86.662a1.666 1.666 0 1 0 0-3.333zM29.998 9.999h14.443v5.556H30V9.999zm-5.556 85.552h-1.11v-2.778a1.666 1.666 0 1 0-3.334 0v2.778h-1.111v-5.555h5.555v5.555zm11.11-42.776V95.551h-7.777v-7.222c0-.92-.746-1.666-1.666-1.666H17.22c-.92 0-1.666.746-1.666 1.666v7.222H7.777V34.443h27.777v18.332zM37.22 31.11H23.332V18.888H51.11v32.22H38.887v-5.555h5a1.666 1.666 0 1 0 0-3.333h-5v-5.555h5a1.666 1.666 0 1 0 0-3.333h-5v-.556c0-.92-.746-1.666-1.667-1.666zM66.664 95.55H38.887V54.442h27.777V95.55zm15.554 0H69.997V50.553a1.666 1.666 0 1 0-3.333 0v.555H63.33v-.555a1.666 1.666 0 1 0-3.333 0v.555h-5.555V10h27.776v85.552z"/>
        <path d="M45.667 92.443c.92 0 1.666-.747 1.666-1.667v-31.11a1.666 1.666 0 1 0-3.333 0v31.11c0 .92.746 1.667 1.667 1.667zM52.667 92.443c.92 0 1.666-.747 1.666-1.667v-31.11a1.666 1.666 0 1 0-3.333 0v31.11c0 .92.746 1.667 1.667 1.667zM59.667 92.443c.92 0 1.666-.747 1.666-1.667v-31.11a1.666 1.666 0 1 0-3.333 0v31.11c0 .92.746 1.667 1.667 1.667zM61.667 21.555c.92 0 1.666-.746 1.666-1.666v-2.222a1.666 1.666 0 1 0-3.333 0v2.222c0 .92.746 1.666 1.667 1.666zM68.667 21.555c.92 0 1.666-.746 1.666-1.666v-2.222a1.666 1.666 0 1 0-3.333 0v2.222c0 .92.746 1.666 1.667 1.666zM74.667 21.555c.92 0 1.666-.746 1.666-1.666v-2.222a1.666 1.666 0 1 0-3.333 0v2.222c0 .92.746 1.666 1.667 1.666zM61.667 32.555c.92 0 1.666-.746 1.666-1.666v-2.222a1.666 1.666 0 1 0-3.333 0v2.222c0 .92.746 1.666 1.667 1.666zM68.667 32.555c.92 0 1.666-.746 1.666-1.666v-2.222a1.666 1.666 0 1 0-3.333 0v2.222c0 .92.746 1.666 1.667 1.666zM74.667 32.555c.92 0 1.666-.746 1.666-1.666v-2.222a1.666 1.666 0 1 0-3.333 0v2.222c0 .92.746 1.666 1.667 1.666zM61.667 43.555c.92 0 1.666-.746 1.666-1.666v-2.222a1.666 1.666 0 1 0-3.333 0v2.222c0 .92.746 1.666 1.667 1.666zM68.667 43.555c.92 0 1.666-.746 1.666-1.666v-2.222a1.666 1.666 0 1 0-3.333 0v2.222c0 .92.746 1.666 1.667 1.666zM74.667 43.555c.92 0 1.666-.746 1.666-1.666v-2.222a1.666 1.666 0 1 0-3.333 0v2.222c0 .92.746 1.666 1.667 1.666zM14.667 47.555c.92 0 1.666-.746 1.666-1.666v-2.222a1.666 1.666 0 1 0-3.333 0v2.222c0 .92.746 1.666 1.667 1.666zM21.667 47.555c.92 0 1.666-.746 1.666-1.666v-2.222a1.666 1.666 0 1 0-3.333 0v2.222c0 .92.746 1.666 1.667 1.666zM28.667 47.555c.92 0 1.666-.746 1.666-1.666v-2.222a1.666 1.666 0 1 0-3.333 0v2.222c0 .92.746 1.666 1.667 1.666zM14.667 58.555c.92 0 1.666-.746 1.666-1.666v-2.222a1.666 1.666 0 1 0-3.333 0v2.222c0 .92.746 1.666 1.667 1.666zM21.667 58.555c.92 0 1.666-.746 1.666-1.666v-2.222a1.666 1.666 0 1 0-3.333 0v2.222c0 .92.746 1.666 1.667 1.666zM28.667 58.555c.92 0 1.666-.746 1.666-1.666v-2.222a1.666 1.666 0 1 0-3.333 0v2.222c0 .92.746 1.666 1.667 1.666zM14.667 69.555c.92 0 1.666-.746 1.666-1.666v-2.222a1.666 1.666 0 1 0-3.333 0v2.222c0 .92.746 1.666 1.667 1.666zM21.667 69.555c.92 0 1.666-.746 1.666-1.666v-2.222a1.666 1.666 0 1 0-3.333 0v2.222c0 .92.746 1.666 1.667 1.666zM28.667 69.555c.92 0 1.666-.746 1.666-1.666v-2.222a1.666 1.666 0 1 0-3.333 0v2.222c0 .92.746 1.666 1.667 1.666zM14.667 81.555c.92 0 1.666-.746 1.666-1.666v-2.222a1.666 1.666 0 1 0-3.333 0v2.222c0 .92.746 1.666 1.667 1.666zM21.667 81.555c.92 0 1.666-.746 1.666-1.666v-2.222a1.666 1.666 0 1 0-3.333 0v2.222c0 .92.746 1.666 1.667 1.666zM28.667 81.555c.92 0 1.666-.746 1.666-1.666v-2.222a1.666 1.666 0 1 0-3.333 0v2.222c0 .92.746 1.666 1.667 1.666zM74.667 54.555c.92 0 1.666-.746 1.666-1.666v-2.222a1.666 1.666 0 1 0-3.333 0v2.222c0 .92.746 1.666 1.667 1.666zM74.667 65.555c.92 0 1.666-.746 1.666-1.666v-2.222a1.666 1.666 0 1 0-3.333 0v2.222c0 .92.746 1.666 1.667 1.666zM74.667 76.555c.92 0 1.666-.746 1.666-1.666v-2.222a1.666 1.666 0 1 0-3.333 0v2.222c0 .92.746 1.666 1.667 1.666zM74.667 87.555c.92 0 1.666-.746 1.666-1.666v-2.222a1.666 1.666 0 1 0-3.333 0v2.222c0 .92.746 1.666 1.667 1.666zM45.666 25.667c0-.921-.746-1.667-1.667-1.667H30.667a1.666 1.666 0 1 0 0 3.333h13.332c.92 0 1.667-.746 1.667-1.666z"/>
    </g>
</svg>
