<svg xmlns="http://www.w3.org/2000/svg" width="48" height="48" viewBox="0 0 48 48">
    <g fill="none" fill-rule="evenodd">
        <circle cx="24" cy="24" r="24" fill="#FAFAFA" stroke="#EAEAEA"/>
        <g fill-rule="nonzero">
            <path fill="#70CADB" d="M15.218 25.387c-.753.006-1.391-.436-1.626-1.126a1.825 1.825 0 0 1-.025-.079c-.256-.883.241-1.808 1.132-2.104l14.29-4.715c.17-.049.346-.074.523-.075.773-.006 1.429.445 1.67 1.15l.021.068c.267.92-.397 1.742-1.193 2.005L15.8 25.291a1.875 1.875 0 0 1-.58.096z"/>
            <path fill="#E01765" d="M17.758 31.968c-.757.006-1.395-.427-1.627-1.101a1.714 1.714 0 0 1 1.103-2.185l14.252-4.72a1.87 1.87 0 0 1 .566-.093c.759-.006 1.426.448 1.661 1.13l.022.072a1.736 1.736 0 0 1-.217 1.42c-.204.31-.848.584-.848.584l-14.306 4.792a2 2 0 0 1-.606.102z"/>
            <path fill="#E8A723" d="M29.56 31.969a1.72 1.72 0 0 1-1.648-1.164l-4.679-13.792-.023-.077a1.705 1.705 0 0 1 1.107-2.09 1.724 1.724 0 0 1 2.183 1.075l4.678 13.791.014.045a1.713 1.713 0 0 1-1.632 2.212z"/>
            <path fill="#3EB890" d="M22.45 34.5a1.72 1.72 0 0 1-1.648-1.165l-4.674-13.792c-.146-.43-.114-.9.089-1.306a1.716 1.716 0 0 1 1.529-.95 1.719 1.719 0 0 1 1.647 1.165l4.674 13.792c.147.43.115.9-.089 1.307a1.716 1.716 0 0 1-1.528.949z"/>
            <path fill="#CC2027" d="M27.228 28.8l3.44-1.055-1.125-2.995-3.443 1.044 1.128 3.006z"/>
            <path fill="#361238" d="M20.034 31.462l3.434-1.18-1.131-3.376-3.437 1.168 1.134 3.388z"/>
            <path fill="#65863A" d="M24.895 22.05l3.448-1.063L27.229 18l-3.454 1.045z"/>
            <path fill="#1A937D" d="M17.653 24.45l3.437-1.053-1.124-2.997-3.444 1.035 1.13 3.015z"/>
        </g>
    </g>
</svg>
