<svg xmlns="http://www.w3.org/2000/svg" width="13" height="12" viewBox="0 0 13 12">
    <defs>
        <linearGradient id="a" x1="50%" x2="50%" y1="100%" y2="0%">
            <stop offset="0%" stop-color="#FCC23C"/>
            <stop offset="100%" stop-color="#F8E71C"/>
        </linearGradient>
    </defs>
    <path fill="url(#a)" fill-rule="evenodd" d="M12.582 4.65c0 .111-.065.232-.196.363L9.64 7.69l.65 3.78c.005.036.008.086.008.152a.445.445 0 0 1-.08.268.267.267 0 0 1-.23.11.612.612 0 0 1-.303-.09l-3.395-1.785-3.395 1.784a.642.642 0 0 1-.302.091c-.106 0-.186-.037-.239-.11a.445.445 0 0 1-.079-.268c0-.03.005-.08.015-.151l.65-3.781L.19 5.013C.063 4.877 0 4.756 0 4.65c0-.186.141-.302.423-.348L4.22 3.75 5.921.31C6.016.103 6.14 0 6.29 0s.275.103.37.31l1.702 3.44 3.796.552c.282.046.423.162.423.348z"/>
</svg>
