<svg xmlns="http://www.w3.org/2000/svg" width="20" height="20" viewBox="0 0 20 20">
    <g fill="#FFF" fill-rule="nonzero" stroke="#656565" stroke-linecap="round" stroke-linejoin="round">
        <path d="M8.247 10.456l1.616-1.59H1c.08-.538.189-1.05.35-1.535.593-1.832 1.697-3.395 3.26-4.526A8.83 8.83 0 0 1 9.998 1c2.425 0 4.715.943 6.439 2.667a8.84 8.84 0 0 1 2.047 3.179h-.296a8.394 8.394 0 0 0-1.967-2.963 8.744 8.744 0 0 0-6.223-2.587 8.768 8.768 0 0 0-5.253 1.725 9.018 9.018 0 0 0-3.152 4.39c-.054.19-.108.351-.135.513l-.162.673h8.54L8.22 7.007h.431l1.751 1.725-1.751 1.724h-.404zM9.998 19.185a9.116 9.116 0 0 1-5.415-1.778 9.086 9.086 0 0 1-3.071-4.041h.323a8.66 8.66 0 0 0 2.937 3.798 8.768 8.768 0 0 0 5.253 1.724 8.744 8.744 0 0 0 6.223-2.586 8.988 8.988 0 0 0 2.317-4.041l.162-.673H10.59l1.616 1.589h-.43l-1.752-1.724 1.751-1.724h.431l-1.616 1.59h8.405a8.961 8.961 0 0 1-2.586 5.199 8.941 8.941 0 0 1-6.412 2.667z"/>
    </g>
</svg>
