<svg xmlns="http://www.w3.org/2000/svg" width="71" height="20" viewBox="0 0 71 20">
    <g fill="#8C8C9B" fill-rule="evenodd">
        <path d="M8.628.22L.118.218v1.994h3.101v6.544h2.302V2.213h3.107zM31.775 14.69a1.35 1.35 0 0 0-1.355-1.348h-2.995c-.261 0-.392.131-.53.34-.009.007-.894 1.285-.894 1.285h2.887a.636.636 0 0 1 .608.639v3.996h2.28V14.69"/>
        <path d="M23.722 11.064h2.28v8.538h-2.28zM43.524 13.342h-6.475v6.26h2.294v-4.635h2.602c.355 0 .648.285.648.639v3.996h2.286V14.69a1.35 1.35 0 0 0-1.355-1.348M11.065 11.064H.117v8.538h2.271v-6.544h2.433a.42.42 0 0 1 .416.423v6.12h2.279v-6.12c0-.239.193-.423.423-.423h1.794c.347 0 .632.277.632.623v5.92h2.27v-6.967c0-.87-.7-1.57-1.57-1.57M33.277 15.375v4.227h2.279V13.412s-1.055.654-1.802 1.124a1.01 1.01 0 0 0-.477.839M33.277 11.056h2.279v1.578l-2.28 1.509zM57.067 13.342c-.57 0-.94.44-.94.909v5.35h2.294v-3.988c0-.354.255-.654.617-.654h1.701a.776.776 0 0 0 .585-.354c.008-.008.893-1.263.893-1.263h-5.15zM52.34 11.064v6.975h-3.304c-.23 0-.392-.2-.392-.37v-2.063h.008c0-.354.284-.639.639-.639h1.67a.77.77 0 0 0 .608-.316l.77-1.309h-4.634c-.74 0-1.348.6-1.348 1.348V18.478c0 .723.578 1.124 1.109 1.124h7.16v-8.538H52.34zM68.908 13.342H63.64c-.261 0-.5.123-.646.324l-.886 1.301h5.305c.331.015.6.3.6.639l-.007 2.487h-3.973v-.716c0-.139.115-.255.254-.255h2.78V16.2c0-.223-.139-.347-.332-.347h-3.85a.846.846 0 0 0-.854.847v2.271c0 .016 0 .024.008.04a.705.705 0 0 0 .7.592h7.515V14.69c0-.747-.6-1.348-1.347-1.348M20.958 13.342h-5.266c-.254 0-.5.123-.639.324l-.893 1.301h5.305c.33.015.6.3.6.639v2.487h-3.98v-.716c0-.139.115-.255.254-.255h2.78V16.2c0-.223-.14-.347-.332-.347h-3.85a.846.846 0 0 0-.854.847v2.271c0 .016 0 .024.008.04a.705.705 0 0 0 .7.592h7.515V14.69c0-.747-.6-1.348-1.348-1.348M35.556 3.951A1.35 1.35 0 0 0 34.2 2.604h-3.074c-.262 0-.393.131-.531.339-.008.007-.893 1.286-.893 1.286h2.965a.637.637 0 0 1 .609.639v3.995h2.279V3.951zM27.424.325h2.279v8.538h-2.28V.325zM21.099 6.6h.008a.64.64 0 0 0 .642.639h4.258v1.624h-5.852c-.743 0-1.354-.6-1.354-1.347V2.884v.96c0-.746.611-1.347 1.354-1.347h5.838l-.36.893c-.075.189-.115.349-.287.47-.124.087-.228.148-.387.148h-3.21a.64.64 0 0 0-.642.639h-.008V6.6M10.873 8.785h4.876c.254 0 .5-.123.639-.323l.893-1.302h-4.914a.64.64 0 0 1-.6-.639V4.035h3.59v.716a.256.256 0 0 1-.255.254h-2.388v.924c0 .223.138.346.33.346h3.46a.846.846 0 0 0 .854-.847V3.157c0-.015 0-.023-.008-.038a.705.705 0 0 0-.7-.593H9.526v4.912c0 .746.6 1.347 1.347 1.347"/>
    </g>
</svg>
