<svg xmlns="http://www.w3.org/2000/svg" width="20" height="19" viewBox="0 0 20 19">
    <g fill="#FFF" fill-rule="nonzero">
        <path d="M15.749 18.407a2.662 2.662 0 0 1-1.891-.782l-4.08-4.08-3.61 3.61c-.583.584-1.329.919-2.05.919-.522 0-.996-.186-1.334-.525-.838-.837-.665-2.325.394-3.385l3.61-3.61-.622-.621-.186.03a4.81 4.81 0 0 1-2.613-.303 4.795 4.795 0 0 1-1.573-1.045 4.846 4.846 0 0 1-1.106-5.11.417.417 0 0 1 .305-.265h.004a.413.413 0 0 1 .384.114L3.657 5.63l1.566-.42.42-1.564-2.279-2.278a.42.42 0 0 1 .15-.692A4.861 4.861 0 0 1 5.219.369c1.288 0 2.499.502 3.41 1.412a4.841 4.841 0 0 1 1.349 4.185l-.03.186 1.817 1.818 3.96-3.957-.084-.222a1.553 1.553 0 0 1 .352-1.64L17.308.832a.425.425 0 0 1 .298-.113c.116 0 .226.043.299.113l1.592 1.593a.418.418 0 0 1 .002.595l-1.318 1.32a1.543 1.543 0 0 1-1.638.353l-.223-.083-3.96 3.956 5.278 5.278c.506.506.784 1.176.784 1.89 0 .715-.278 1.385-.784 1.89a2.648 2.648 0 0 1-1.89.783zm-9.45-9.362c.11 0 .219.045.297.123l7.86 7.86c.331.332.804.521 1.294.521.491 0 .964-.19 1.295-.52.347-.347.538-.806.538-1.294 0-.487-.191-.948-.538-1.293l-7.862-7.86a.428.428 0 0 1-.111-.403c.35-1.378-.04-2.8-1.04-3.802a3.948 3.948 0 0 0-2.73-1.164l-.915-.019 2.028 2.029a.42.42 0 0 1 .111.407L5.98 5.665a.42.42 0 0 1-.297.298l-2.035.546a.419.419 0 0 1-.407-.109L1.208 4.37l.021.92a3.97 3.97 0 0 0 1.165 2.73A4.021 4.021 0 0 0 6.198 9.06l.005-.001a.32.32 0 0 1 .095-.014zM3.771 14.76c-.335.335-.563.744-.64 1.151-.08.426.009.806.247 1.044l.001.001c.183.18.437.275.737.275.49 0 1.034-.251 1.454-.672l3.585-3.582-1.8-1.8-3.584 3.583zM16.588 2.747a.712.712 0 0 0-.039.955l.014.017.027.025.016.016.012.014.015.013c.144.13.293.195.452.195.176 0 .339-.077.498-.235l1.02-1.022-.997-.995-1.018 1.017z"/>
        <path d="M15.633 14.903a.658.658 0 1 0 0 1.317.658.658 0 0 0 0-1.317z"/>
    </g>
</svg>
