<svg xmlns="http://www.w3.org/2000/svg" width="48" height="48" viewBox="0 0 48 48">
    <g fill="none" fill-rule="evenodd">
        <circle cx="24" cy="24" r="24" fill="#373737"/>
        <path fill="#FFF" fill-rule="nonzero" d="M16.483 14h14.9c1.37 0 2.482 1.132 2.482 2.527v15.165c0 1.396-1.112 2.528-2.483 2.528H16.483c-1.37 0-2.483-1.132-2.483-2.528V16.527C14 15.132 15.112 14 16.483 14zm9.932 2.629c-.658 0-1.191.543-1.191 1.213v6.47c0 .67.534 1.213 1.191 1.213h3.676c.658 0 1.192-.543 1.192-1.213v-6.47c0-.67-.534-1.213-1.192-1.213h-3.676zm-8.64 0c-.66 0-1.193.542-1.193 1.213v11.525c0 .67.534 1.213 1.192 1.213h3.676c.658 0 1.191-.542 1.191-1.213V17.842c0-.67-.533-1.213-1.191-1.213h-3.676z"/>
    </g>
</svg>
