<svg xmlns="http://www.w3.org/2000/svg" xmlns:xlink="http://www.w3.org/1999/xlink" width="55" height="17" viewBox="0 0 55 17">
    <defs>
        <path id="a" d="M.364.24h8.698v9.112H.364z"/>
        <path id="c" d="M3.014.561a4.014 4.014 0 0 0-1.385.921A4.327 4.327 0 0 0 .702 2.92a4.994 4.994 0 0 0-.339 1.877c0 .69.114 1.315.34 1.875.225.56.533 1.039.926 1.438.391.4.852.707 1.385.921a4.497 4.497 0 0 0 1.7.322c.6 0 1.167-.107 1.699-.322.53-.214.993-.52 1.385-.921.392-.4.702-.878.926-1.438.216-.535.33-1.13.338-1.783v-.185a4.91 4.91 0 0 0-.338-1.784 4.323 4.323 0 0 0-.926-1.438 4.042 4.042 0 0 0-1.385-.92 4.498 4.498 0 0 0-1.7-.323c-.6 0-1.167.107-1.7.322zm.274 5.826c-.339-.405-.509-.936-.509-1.59 0-.655.17-1.186.509-1.591.338-.404.813-.607 1.425-.607.612 0 1.088.203 1.427.607.337.405.506.936.506 1.59 0 .655-.17 1.186-.506 1.59-.34.406-.815.608-1.427.608-.612 0-1.087-.202-1.425-.607z"/>
        <path id="e" d="M2.217.741c-.487.256-.845.517-1.171.952-.321.429-.509.858-.66 1.418-.15.559-.188 1.202-.188 1.776 0 .657.1 1.28.259 1.843.161.568.42 1.078.755 1.463.364.42.74.637 1.264.858.523.222 1.082.303 1.725.295.406-.004.803-.095 1.261-.272a2.559 2.559 0 0 0 1.1-.836h.03v.845c0 .622-.135 1.132-.521 1.532-.387.402-.952.616-1.774.616-.547 0-.891.012-1.448-.14-.485-.131-1.093-.362-1.545-.695L.005 12.311c.692.503 1.318.813 2.07 1.011.744.2 1.507.261 2.28.261 1.691 0 2.888-.427 3.717-1.282.827-.854 1.164-2.107 1.164-3.757V.422H6.878V1.59h-.04c-.047-.065-.112-.161-.303-.327-.252-.216-.437-.32-.685-.458a3.804 3.804 0 0 0-.855-.34A4.505 4.505 0 0 0 3.892.316c-.62 0-1.186.169-1.675.426zm1.135 5.657c-.34-.405-.51-.938-.51-1.596 0-.657.17-1.189.51-1.596.34-.405.816-.608 1.43-.608.615 0 1.091.203 1.43.608.34.407.51.939.51 1.596 0 .658-.17 1.19-.51 1.596-.339.406-.815.61-1.43.61-.614 0-1.09-.204-1.43-.61z"/>
        <path id="g" d="M3.007.588a4.9 4.9 0 0 0-1.745 1.045L2.687 3.1a3.29 3.29 0 0 1 .97-.76 2.61 2.61 0 0 1 1.202-.277c.462 0 .864.14 1.2.42.34.28.508.658.508 1.134-.368 0-.768.007-1.2.018-.435.013-.867.049-1.3.108-.434.06-.853.152-1.255.278-.405.124-.764.3-1.078.526a2.485 2.485 0 0 0-.748.858C.802 5.75.71 6.174.71 6.673c0 .441.082.828.25 1.161.165.335.39.616.675.841.285.228.615.398.988.511a4.02 4.02 0 0 0 1.167.174c.545 0 1.065-.094 1.558-.297.492-.203.886-.557 1.184-.985h.048v1.071h2.42V4.724c0-.725-.047-1.366-.166-1.92-.118-.555-.318-1.021-.62-1.402-.303-.382-.706-.671-1.21-.868C6.499.338 5.856.239 5.073.239c-.712 0-1.401.117-2.066.35zM3.684 7.3a.766.766 0 0 1-.41-.714c0-.298.098-.528.294-.695.195-.166.434-.288.712-.371.279-.083.57-.127.872-.145.303-.018.555-.012.757-.012h.672v.542c0 .275-.063.513-.175.714a1.49 1.49 0 0 1-.46.501 2.21 2.21 0 0 1-.65.304 2.655 2.655 0 0 1-.758.108c-.298 0-.581-.078-.854-.232z"/>
        <path id="i" d="M1.762.109c-.392 0-.725.14-1.003.417a1.375 1.375 0 0 0-.417 1.008c0 .391.14.727.417 1.005.278.279.611.418 1.003.418.39 0 .725-.14 1.002-.418.278-.278.417-.614.417-1.005 0-.394-.14-.73-.417-1.008A1.366 1.366 0 0 0 1.762.11zM.45 12.545h2.635V3.826H.45v8.719z"/>
        <path id="k" d="M4.224.648c-.391.268-.729.64-1.014 1.211h-.027V.43H.478V9.15h2.705V5.511c0-.428.02-.822.068-1.18.046-.356.146-.664.306-.92.16-.255.39-.456.687-.598.296-.143.701-.214 1.211-.214.202 0 .397.015.581.045.184.028.351.073.565.133V.329a2.526 2.526 0 0 0-.43-.07 6.145 6.145 0 0 0-.468-.017c-.594 0-1.086.137-1.479.406z"/>
        <path id="m" d="M1.852.405v2.572H0v2.145h1.852v4.151c0 .477.096.881.272 1.215.176.334.428.604.742.812.314.21.68.362 1.099.456.416.097.875.144 1.371.144.34 0 .69-.018 1.042-.054a5.32 5.32 0 0 0 1.028-.215V9.398c-.143.107-.333.176-.586.205-.256.03-.472.045-.628.045-.312 0-.566-.039-.755-.116a.869.869 0 0 1-.426-.33 1.246 1.246 0 0 1-.185-.51c-.025-.197-.055-.413-.055-.652V5.122h2.635V2.977H4.771V.405h-2.92z"/>
    </defs>
    <g fill="none" fill-rule="evenodd">
        <g transform="translate(44.994 3.287)">
            <mask id="b" fill="#fff">
                <use xlink:href="#a"/>
            </mask>
            <path fill="#84858E" d="M3.013.561a4.022 4.022 0 0 0-1.384.921A4.318 4.318 0 0 0 .702 2.92C.477 3.48.364 4.105.364 4.797c0 .69.113 1.315.338 1.875.226.56.534 1.04.927 1.439.391.4.853.706 1.384.92.533.214 1.099.32 1.7.32.602 0 1.168-.106 1.7-.32a4.02 4.02 0 0 0 1.385-.92c.392-.4.701-.879.926-1.44.226-.559.339-1.184.339-1.874 0-.692-.113-1.317-.339-1.877a4.316 4.316 0 0 0-.926-1.438 4.034 4.034 0 0 0-1.385-.92 4.49 4.49 0 0 0-1.7-.323c-.601 0-1.167.107-1.7.322m.275 5.826c-.338-.405-.508-.936-.508-1.59 0-.656.17-1.186.508-1.591.338-.404.813-.608 1.426-.608.612 0 1.086.204 1.425.608.338.405.507.935.507 1.59s-.169 1.186-.507 1.59c-.339.406-.813.608-1.425.608-.613 0-1.088-.202-1.426-.607" mask="url(#b)"/>
        </g>
        <g transform="translate(44.994 3.287)">
            <mask id="d" fill="#fff">
                <use xlink:href="#c"/>
            </mask>
            <path fill="#84858E" d="M-1.406 11.124h12.24V-1.531h-12.24z" mask="url(#d)"/>
        </g>
        <path fill="#84858E" d="M37.873 4.028c-.487.256-.845.517-1.171.952-.322.428-.509.858-.66 1.418-.151.56-.189 1.202-.189 1.776 0 .657.099 1.28.26 1.843.16.567.42 1.078.754 1.463.365.42.74.637 1.264.859.524.22 1.082.301 1.725.294.407-.005.803-.095 1.26-.271a2.554 2.554 0 0 0 1.101-.837h.03v.845c0 .622-.134 1.133-.52 1.533-.388.4-.952.615-1.774.615-.548 0-.892.012-1.448-.14-.485-.13-1.094-.363-1.545-.695l-1.3 1.914c.693.503 1.318.813 2.07 1.013.745.198 1.506.26 2.28.26 1.692 0 2.889-.427 3.717-1.281.827-.855 1.165-2.108 1.165-3.758V3.71h-2.358v1.168h-.041c-.046-.063-.111-.16-.302-.326-.252-.217-.437-.32-.686-.458a3.773 3.773 0 0 0-.855-.34 4.54 4.54 0 0 0-1.103-.152c-.62 0-1.185.17-1.674.427m1.134 5.658c-.338-.407-.51-.94-.51-1.596 0-.658.172-1.19.51-1.596.34-.406.817-.61 1.43-.61.615 0 1.092.204 1.431.61.339.406.51.938.51 1.596 0 .657-.171 1.19-.51 1.596-.34.406-.816.608-1.43.608s-1.091-.202-1.43-.608"/>
        <g transform="translate(35.656 3.287)">
            <mask id="f" fill="#fff">
                <use xlink:href="#e"/>
            </mask>
            <path fill="#84858E" d="M-1.766 15.354h12.773v-16.81H-1.766z" mask="url(#f)"/>
        </g>
        <path fill="#84858E" d="M29.324 3.875a4.9 4.9 0 0 0-1.745 1.045l1.425 1.465c.285-.32.609-.574.97-.76a2.61 2.61 0 0 1 1.202-.276c.463 0 .864.14 1.202.42.338.28.506.658.506 1.134-.367 0-.767.007-1.2.018-.434.013-.867.048-1.3.108-.434.06-.853.152-1.255.278-.404.124-.763.3-1.078.526a2.485 2.485 0 0 0-.748.858c-.184.346-.276.77-.276 1.268 0 .442.083.829.25 1.163.166.333.392.614.677.84.285.227.614.4.987.511a4.02 4.02 0 0 0 1.167.174c.545 0 1.065-.094 1.558-.297a2.687 2.687 0 0 0 1.183-.986h.049v1.072h2.421V8.012c0-.727-.048-1.367-.167-1.921-.118-.555-.318-1.021-.62-1.403a2.81 2.81 0 0 0-1.21-.866c-.505-.197-1.149-.296-1.932-.296-.712 0-1.401.116-2.066.35m.677 6.71a.768.768 0 0 1-.41-.714c0-.298.099-.528.294-.695.196-.167.434-.288.712-.371.279-.083.57-.127.872-.145.303-.018.556-.012.758-.012h.671v.542c0 .274-.063.513-.175.715-.114.203-.27.37-.46.5-.191.132-.407.233-.651.304a2.645 2.645 0 0 1-.757.108c-.297 0-.581-.078-.854-.232"/>
        <g transform="translate(26.317 3.287)">
            <mask id="h" fill="#fff">
                <use xlink:href="#g"/>
            </mask>
            <path fill="#84858E" d="M-1.06 11.13h11.832V-1.53H-1.06z" mask="url(#h)"/>
        </g>
        <g fill="#84858E">
            <path d="M25.007 3.718l-2.03 5.931h-.035l-2.19-5.931h-2.885l3.579 8.718h2.831l3.419-8.718zM16.194 0c-.392 0-.726.14-1.004.418a1.375 1.375 0 0 0-.415 1.007c0 .392.138.727.415 1.005.278.28.612.418 1.004.418.39 0 .725-.139 1.003-.418.277-.278.415-.613.415-1.005 0-.393-.138-.73-.415-1.007A1.366 1.366 0 0 0 16.194 0zm-1.311 12.436h2.635V3.718h-2.635v8.718z"/>
        </g>
        <g transform="translate(14.432 -.109)">
            <mask id="j" fill="#fff">
                <use xlink:href="#i"/>
            </mask>
            <path fill="#84858E" d="M-1.428 14.316h6.379V-1.662h-6.379z" mask="url(#j)"/>
        </g>
        <path fill="#84858E" d="M11.865 3.935c-.392.267-.73.64-1.015 1.212h-.026V3.718H8.117v8.718h2.707V8.798c0-.43.019-.822.067-1.18.047-.357.147-.664.307-.92.16-.255.39-.456.686-.598.297-.143.701-.215 1.212-.215.2 0 .396.015.58.046a4.9 4.9 0 0 1 .566.133V3.616a2.705 2.705 0 0 0-.432-.07 6.145 6.145 0 0 0-.466-.017c-.595 0-1.087.137-1.48.406"/>
        <g transform="translate(7.64 3.287)">
            <mask id="l" fill="#fff">
                <use xlink:href="#k"/>
            </mask>
            <path fill="#84858E" d="M-1.294 10.92h9.665V-1.527h-9.665z" mask="url(#l)"/>
        </g>
        <path fill="#84858E" d="M1.852 1.145v2.573H0v2.144h1.852v4.152c0 .476.096.88.272 1.214.176.334.428.604.742.812.313.21.68.362 1.099.457.416.096.875.143 1.371.143.34 0 .69-.018 1.043-.054.353-.035.67-.108 1.026-.215v-2.233c-.141.107-.332.176-.586.205-.255.03-.47.045-.626.045-.314 0-.567-.039-.756-.117a.87.87 0 0 1-.426-.33 1.246 1.246 0 0 1-.185-.509c-.025-.197-.055-.414-.055-.652V5.862h2.634V3.718H4.771V1.145h-2.92z"/>
        <g transform="translate(0 .74)">
            <mask id="n" fill="#fff">
                <use xlink:href="#m"/>
            </mask>
            <path fill="#84858E" d="M-1.77 13.67H9.175V-1.366H-1.77z" mask="url(#n)"/>
        </g>
    </g>
</svg>
