<svg xmlns="http://www.w3.org/2000/svg" width="18" height="20" viewBox="0 0 18 20">
    <path fill="#0EBAC5" fill-rule="evenodd" d="M14.159 18.075c0 .513.192.963.576 1.348.384.385.832.577 1.344.577.512 0 .96-.192 1.345-.577.384-.385.576-.835.576-1.348V9.02c0-2.456-.878-4.574-2.634-6.352C13.61.89 11.488 0 9 0 6.512 0 4.39.89 2.634 2.667.878 4.445 0 6.563 0 9.02v9.056c0 .513.192.963.576 1.348.384.385.833.577 1.345.577s.96-.192 1.344-.577c.384-.385.576-.835.576-1.348V9.02c0-1.43.504-2.649 1.51-3.657S7.573 3.85 9 3.85s2.643.504 3.65 1.512c1.005 1.008 1.509 2.227 1.509 3.657v9.056z"/>
</svg>
