<svg xmlns="http://www.w3.org/2000/svg" width="16" height="16" viewBox="0 0 16 16">
    <path fill="#F0820B" fill-rule="nonzero" d="M.308 2.567C1.384.481 4.387-.584 6.392.329c2.375 1.082 2.876 3.98.96 5.916-.646.652-1.459 1.149-2.228 1.668-.954.643-1.825 1.34-2.293 2.438-.8 1.877-.118 4.143 1.596 5.244.15.096.305.186.476.289-.985.124-2.512-.455-3.354-1.259-1.704-1.628-2.06-4.217-.78-6.228.507-.797 1.223-1.461 1.741-2.254.387-.592.785-1.271.865-1.949.15-1.264-1.135-2.147-2.454-1.82-.174.043-.343.107-.613.193zM8.88 6.74c.868-.48 1.627-.89 2.376-1.316.397-.226.556-.566.598-1.042.044-.498.255-.98.392-1.47l.25-.02c.153.283.364.551.445.854.121.45.354.696.79.887 1.393.608 2.061 1.738 2.181 3.232.04.489-.17.759-.626.76-.538.003-1.142.06-1.605-.152-1.53-.703-2.982-1.586-4.801-1.733zm-4.816 3.428c.882-1.407 2.517-1.864 4.186-1.24 2.223.83 3.053 2.656 2.557 5.729.373.09.776.134 1.129.29.343.152.635.42.95.636l-.084.23L7.685 16c.862-.587 1.538-1.274 1.821-2.28.288-1.02.091-1.968-.489-2.837C8.011 9.376 6.2 9.1 4.065 10.168zm4.415 2.708c-.006 1.275-.994 2.239-2.29 2.234-1.285-.005-2.265-.986-2.261-2.265a2.284 2.284 0 0 1 2.321-2.288c1.245.02 2.236 1.05 2.23 2.32zM6.23 13.96c.6-.014 1.114-.551 1.099-1.147-.016-.593-.567-1.119-1.154-1.1-.595.019-1.113.565-1.096 1.157a1.141 1.141 0 0 0 1.151 1.09zm.508-6.219c1.647-.405 3.22-.118 4.66.697 1.124.636 2.237 1.19 3.548 1.294.45.035.827.284 1.054.915-.959-.375-1.69.048-2.457.325-1.011.364-1.494.183-2.134-.694-1.154-1.58-2.67-2.498-4.671-2.537z"/>
</svg>
