<svg xmlns="http://www.w3.org/2000/svg" width="48" height="48" viewBox="0 0 48 48">
    <g fill="none" fill-rule="evenodd">
        <circle cx="24" cy="24" r="24" fill="#000"/>
        <g fill="#FFF" fill-rule="nonzero">
            <path d="M33.818 23.905c0-1.105-.166-2.175-.467-3.178l-4.624 12.364c3.046-1.857 5.091-5.274 5.091-9.186zM20.727 34.016c1.118.345 2.315.53 3.56.53 1.303 0 2.55-.203 3.713-.576l-3.43-8.152-3.843 8.198zM14.588 20.727c-.263.96-.406 1.975-.406 3.026 0 4.011 2.054 7.507 5.09 9.338L14.62 20.794l-.03-.067z"/>
            <path d="M19.582 20.791l-.427-.02c-.933-.015-.83.97-.83.97l3.309 8.44 2.224-5.404-1.242-3.216c-.497-.85-1.71-.84-1.71-.84v-.449h6.956l-.01.497-.724.046c-.902 0-.72.872-.72.872l3.019 8.203.865-2.271c1.535-3.54.588-6.16.588-6.16-1.537-3.217.405-3.678.405-3.678.123-.018.238-.028.351-.034-1.825-2.181-4.543-3.565-7.578-3.565-4.104 0-7.629 2.53-9.149 6.14l4.657-.05.016.52v-.001z"/>
            <path d="M35.475 24.3c0 6.326-5.148 11.474-11.473 11.474-6.327 0-11.475-5.148-11.475-11.473 0-6.327 5.148-11.472 11.475-11.472 6.325 0 11.473 5.145 11.473 11.472zm-11.473-12C17.385 12.3 12 17.684 12 24.301 12 30.918 17.385 36.3 24.002 36.3 30.62 36.3 36 30.918 36 24.301 36 17.684 30.619 12.3 24.002 12.3z"/>
        </g>
    </g>
</svg>
