<svg xmlns="http://www.w3.org/2000/svg" width="25" height="24" viewBox="0 0 25 24">
    <g fill="none" fill-rule="evenodd">
        <circle cx="12.842" cy="11.842" r="11.842" fill="#79798B"/>
        <path fill="#FFF" fill-rule="nonzero" d="M17.13 4.728c-.266.778-.544 1.556-.81 2.334-.812 2.344-1.634 4.688-2.445 7.033-.033.11-.078.222-.111.322 0 .011-.011.022-.011.033.011-.11-.033.067 0 0-.033.456 0 .934 0 1.389v3.167a.342.342 0 0 1-.333.333h-1.445a.318.318 0 0 1-.233-.089h-.011v-.011a.318.318 0 0 1-.09-.233v-3.3c0-.422.023-.856 0-1.278v-.033c.023.077 0-.1 0 0v-.023c-.021-.088-.066-.166-.1-.255-.332-.9-.677-1.822-1.01-2.733-.667-1.767-1.322-3.545-1.978-5.311-.078-.211.122-.422.322-.422h1.567c.155 0 .278.1.322.244.656 1.844 1.311 3.689 1.967 5.522.777-2.289 1.555-4.578 2.333-6.877a.314.314 0 0 1 .311-.234h1.433c.211 0 .4.211.322.422z"/>
    </g>
</svg>
